EXTCKAI.sfdir
StartChar: u2A703
Encoding: 173827 173827 4
Width: 1024
Flags: W
LayerCount: 2
Back
Fore
SplineSet
384 343 m 1,0,-1
 307 327 l 2,1,2
 266 319 266 319 243 334 c 0,3,4
 215 352 215 352 214 365 c 0,5,6
 214 377 214 377 227 377 c 0,7,8
 294 375 294 375 352 384 c 2,9,-1
 392 391 l 1,10,-1
 405 495 l 2,11,12
 410 556 410 556 397 584 c 1,13,-1
 397 596 l 1,14,-1
 265 576 l 2,15,16
 245 574 245 574 224 580 c 0,17,18
 203 588 203 588 186 607 c 0,19,20
 173 626 173 626 195 626 c 2,21,-1
 487 651 l 1,22,-1
 710 676 l 2,23,24
 739 681 739 681 756 672 c 2,25,-1
 796 645 l 2,26,27
 817 627 817 627 810 618 c 0,28,29
 803 608 803 608 784 608 c 2,30,-1
 662 611 l 2,31,32
 553 613 553 613 458 603 c 2,33,-1
 432 601 l 1,34,-1
 451 590 l 2,35,36
 483 570 483 570 479 555 c 2,37,-1
 467 520 l 1,38,-1
 451 403 l 1,39,-1
 489 411 l 1,40,-1
 614 447 l 2,41,42
 635 457 635 457 669 438 c 0,43,44
 705 419 705 419 706 406 c 0,45,46
 708 394 708 394 695 381 c 0,47,48
 669 359 669 359 637 288 c 0,49,50
 606 214 606 214 596 137 c 0,51,52
 587 55 587 55 602 23 c 0,53,54
 617 -4 617 -4 660 -20 c 1,55,56
 708 -33 708 -33 762 -27 c 0,57,58
 819 -19 819 -19 833 -4 c 0,59,60
 853 18 853 18 859 50 c 2,61,-1
 873 126 l 2,62,63
 878 146 878 146 883 146 c 0,64,65
 890 146 890 146 891 128 c 0,66,67
 906 41 906 41 930 -14 c 0,68,69
 941 -40 941 -40 919 -53 c 0,70,71
 887 -73 887 -73 833 -86 c 0,72,73
 779 -97 779 -97 713 -91 c 0,74,75
 649 -84 649 -84 610 -62 c 0,76,77
 574 -39 574 -39 557 3 c 0,78,79
 541 53 541 53 548 142 c 0,80,81
 555 233 555 233 577 306 c 0,82,83
 597 379 597 379 594 383 c 0,84,85
 592 388 592 388 537 374 c 2,86,-1
 443 354 l 1,87,-1
 426 275 l 1,88,-1
 414 235 l 1,89,-1
 462 213 l 1,90,-1
 490 190 l 2,91,92
 498 182 498 182 501 155 c 0,93,94
 503 129 503 129 490 122 c 0,95,96
 475 117 475 117 465 125 c 0,97,98
 446 141 446 141 403 199 c 1,99,100
 388 156 388 156 369 122 c 0,101,102
 333 59 333 59 289 21 c 0,103,104
 240 -23 240 -23 186 -52 c 0,105,106
 162 -63 162 -63 150 -63 c 0,107,108
 137 -61 137 -61 140 -56 c 0,109,110
 143 -48 143 -48 158 -38 c 2,111,-1
 227 20 l 2,112,113
 275 60 275 60 319 143 c 0,114,115
 364 226 364 226 382 330 c 2,116,-1
 384 343 l 1,0,-1
EndSplineSet
EndChar
StartChar: u2A705
Encoding: 173829 173829 5
Width: 1024
Flags: W
LayerCount: 2
Back
Fore
SplineSet
570 636 m 1,0,-1
 527 633 l 1,1,-1
 541 616 l 2,2,3
 550 603 550 603 548 593 c 0,4,5
 546 584 546 584 539 581 c 2,6,-1
 525 571 l 1,7,-1
 529 565 l 1,8,-1
 644 547 l 2,9,10
 729 533 729 533 763 517 c 0,11,12
 786 510 786 510 802 484 c 0,13,14
 821 459 821 459 818 445 c 0,15,16
 812 431 812 431 802 430 c 0,17,18
 793 429 793 429 770 440 c 0,19,20
 635 502 635 502 532 536 c 1,21,-1
 530 492 l 1,22,-1
 530 418 l 2,23,24
 527 400 527 400 518 391 c 0,25,26
 510 384 510 384 500 392 c 0,27,28
 489 403 489 403 483 417 c 0,29,30
 479 427 479 427 481 446 c 2,31,-1
 481 491 l 1,32,-1
 478 533 l 1,33,-1
 394 470 l 1,34,35
 346 440 346 440 301 424 c 0,36,37
 259 408 259 408 227 405 c 2,38,-1
 192 402 l 1,39,40
 183 408 183 408 192 410 c 0,41,42
 260 434 260 434 313 469 c 0,43,44
 368 504 368 504 404 537 c 0,45,46
 442 572 442 572 458 597 c 2,47,-1
 478 630 l 1,48,-1
 298 613 l 2,49,50
 276 610 276 610 260 619 c 2,51,-1
 232 644 l 2,52,53
 217 660 217 660 247 660 c 2,54,-1
 387 667 l 1,55,-1
 549 679 l 2,56,57
 638 688 638 688 716 700 c 0,58,59
 739 703 739 703 753 695 c 2,60,-1
 782 678 l 2,61,62
 795 669 795 669 794 659 c 0,63,64
 791 649 791 649 773 649 c 2,65,-1
 570 636 l 1,0,-1
330 200 m 1,66,67
 317 216 317 216 324 219 c 0,68,69
 333 224 333 224 353 219 c 2,70,-1
 379 211 l 1,71,-1
 435 222 l 1,72,-1
 492 240 l 1,73,74
 512 251 512 251 532 237 c 2,75,-1
 573 210 l 2,76,77
 592 198 592 198 571 174 c 1,78,-1
 537 86 l 1,79,80
 550 76 550 76 550 69 c 0,81,82
 548 60 548 60 539 60 c 2,83,-1
 420 55 l 1,84,-1
 401 55 l 1,85,-1
 398 33 l 1,86,87
 385 29 385 29 374 38 c 0,88,89
 361 54 361 54 355 102 c 0,90,91
 347 156 347 156 330 200 c 1,66,67
399 110 m 1,92,-1
 400 87 l 1,93,-1
 480 100 l 1,94,-1
 489 102 l 1,95,-1
 497 150 l 2,96,97
 503 184 503 184 496 189 c 0,98,99
 489 196 489 196 462 191 c 2,100,-1
 397 183 l 1,101,-1
 391 183 l 1,102,-1
 399 110 l 1,92,-1
518 348 m 1,103,-1
 782 376 l 2,104,105
 809 380 809 380 826 371 c 0,106,107
 850 359 850 359 864 345 c 0,108,109
 883 329 883 329 878 319 c 0,110,111
 870 310 870 310 853 310 c 2,112,-1
 709 314 l 1,113,-1
 689 314 l 1,114,-1
 699 303 l 2,115,116
 704 294 704 294 701 265 c 2,117,-1
 696 106 l 1,118,-1
 700 -17 l 2,119,120
 704 -58 704 -58 691 -94 c 0,121,122
 680 -127 680 -127 667 -144 c 0,123,124
 656 -158 656 -158 643 -150 c 0,125,126
 594 -106 594 -106 525 -64 c 0,127,128
 513 -54 513 -54 513 -49 c 0,129,130
 512 -45 512 -45 515.5 -43.5 c 128,-1,131
 519 -42 519 -42 524 -44 c 2,132,-1
 587 -58 l 2,133,134
 618 -65 618 -65 629 -56 c 0,135,136
 642 -46 642 -46 642 -10 c 2,137,-1
 642 245 l 2,138,139
 640 287 640 287 631 305 c 2,140,-1
 628 313 l 1,141,-1
 469 304 l 1,142,143
 338 289 338 289 242 273 c 0,144,145
 225 270 225 270 202 277 c 0,146,147
 182 286 182 286 166 303 c 0,148,149
 152 321 152 321 175 321 c 2,150,-1
 518 348 l 1,103,-1
EndSplineSet
EndChar
StartChar: u2A708
Encoding: 173832 173832 6
Width: 1024
Flags: W
LayerCount: 2
Back
Fore
SplineSet
242 604 m 0,0,1
 310 613 310 613 365 628 c 0,2,3
 398 639 398 639 423 629 c 0,4,5
 452 622 452 622 457 610 c 0,6,7
 462 599 462 599 453 593 c 0,8,9
 445 587 445 587 368 576 c 1,10,11
 318 573 318 573 269 563 c 1,12,13
 278 557 278 557 282 550 c 0,14,15
 291 538 291 538 284 525 c 0,16,17
 282 519 282 519 276 488 c 0,18,19
 274 478 274 478 269 435 c 1,20,21
 285 437 285 437 293 437 c 0,22,23
 329 442 329 442 336 444 c 0,24,25
 350 451 350 451 364 451 c 128,-1,26
 378 451 378 451 406 434 c 0,27,28
 433 418 433 418 433 407 c 0,29,30
 435 395 435 395 431 389 c 0,31,32
 426 382 426 382 422 365 c 0,33,34
 407 324 407 324 400 219 c 0,35,36
 391 108 391 108 369 31 c 0,37,38
 358 -6 358 -6 330 -35 c 0,39,40
 300 -62 300 -62 289 -59 c 0,41,42
 275 -54 275 -54 268 -40 c 0,43,44
 260 -22 260 -22 239 -4 c 0,45,46
 219 17 219 17 201 27 c 0,47,48
 183 38 183 38 185 44 c 0,49,50
 190 52 190 52 228 42 c 0,51,52
 256 34 256 34 267 33 c 0,53,54
 280 33 280 33 288 38 c 0,55,56
 306 48 306 48 318 73 c 0,57,58
 332 97 332 97 346 186 c 0,59,60
 360 280 360 280 359 352 c 0,61,62
 357 388 357 388 348 395 c 0,63,64
 340 403 340 403 315 402 c 0,65,66
 280 397 280 397 265 397 c 1,67,68
 256 335 256 335 242 282 c 0,69,70
 222 208 222 208 191 144 c 0,71,72
 159 80 159 80 132 50 c 2,73,-1
 90 7 l 2,74,75
 76 -7 76 -7 67 -8 c 0,76,77
 64 -8 64 -8 62 -7 c 128,-1,78
 60 -6 60 -6 61 -3 c 0,79,80
 65 7 65 7 68 11 c 0,81,82
 91 42 91 42 117 94 c 0,83,84
 142 140 142 140 163 204 c 0,85,86
 183 258 183 258 198 326 c 0,87,88
 212 391 212 391 215 438 c 0,89,90
 220 496 220 496 220 509 c 0,91,92
 220 533 220 533 219 541 c 0,93,94
 218 550 218 550 216 555 c 1,95,96
 196 553 196 553 185 550 c 0,97,98
 152 545 152 545 131 551 c 0,99,100
 107 559 107 559 92 574 c 0,101,102
 78 591 78 591 104 591 c 0,103,104
 183 596 183 596 242 604 c 0,0,1
518 450 m 0,105,106
 553 510 553 510 570 551 c 0,107,108
 585 585 585 585 593 626 c 0,109,110
 601 665 601 665 597 672 c 2,111,-1
 591 685 l 1,112,113
 593 700 593 700 604 703 c 0,114,115
 619 706 619 706 632 697 c 0,116,117
 649 688 649 688 665 669 c 0,118,119
 682 652 682 652 671 636 c 2,120,-1
 659 616 l 1,121,122
 685 587 685 587 731 543 c 0,123,124
 798 481 798 481 831 455 c 0,125,126
 854 436 854 436 887 418 c 2,127,-1
 943 391 l 2,128,129
 968 381 968 381 968 373 c 0,130,131
 968 368 968 368 937 364 c 2,132,-1
 855 351 l 2,133,134
 834 351 834 351 799 387 c 0,135,136
 773 416 773 416 692 521 c 1,137,-1
 645 586 l 1,138,139
 644 580 644 580 639 572 c 0,140,141
 618 523 618 523 582 469 c 0,142,143
 544 411 544 411 518 379 c 0,144,145
 489 344 489 344 442 308 c 0,146,147
 434 301 434 301 427 300 c 0,148,149
 419 298 419 298 419 304 c 0,150,151
 419 312 419 312 424 317 c 0,152,153
 480 387 480 387 518 450 c 0,105,106
556 402 m 0,154,155
 578 403 578 403 613 407 c 0,156,157
 646 412 646 412 664 417 c 0,158,159
 693 425 693 425 713 419 c 0,160,161
 736 415 736 415 741 404 c 0,162,163
 746 396 746 396 738 389 c 0,164,165
 735 386 735 386 702 382 c 2,166,-1
 625 369 l 2,167,168
 595 365 595 365 580 369 c 0,169,170
 560 374 560 374 547 387 c 0,171,172
 535 401 535 401 556 402 c 0,154,155
531 142 m 2,173,174
 532 142 532 142 534 140 c 0,175,176
 546 132 546 132 558 119 c 0,177,178
 569 104 569 104 562 94 c 0,179,180
 554 86 554 86 544 65 c 1,181,182
 573 54 573 54 585 45 c 0,183,184
 604 34 604 34 609 25 c 0,185,186
 615 18 615 18 618 -6 c 0,187,188
 620 -30 620 -30 608 -34 c 0,189,190
 595 -39 595 -39 586 -31 c 0,191,192
 569 -14 569 -14 530 39 c 1,193,194
 523 30 523 30 509 8 c 0,195,196
 489 -19 489 -19 472 -36 c 0,197,198
 460 -48 460 -48 430 -71 c 0,199,200
 424 -77 424 -77 418 -76 c 0,201,202
 412 -76 412 -76 412 -73 c 0,203,204
 414 -67 414 -67 417 -64 c 0,205,206
 446 -28 446 -28 465 7 c 0,207,208
 486 42 486 42 492 61 c 0,209,210
 501 84 501 84 504 101 c 0,211,212
 509 122 509 122 505 127 c 1,213,214
 492 125 492 125 485 134 c 0,215,216
 478 147 478 147 473 187 c 1,217,218
 472 228 472 228 458 268 c 1,219,220
 448 282 448 282 454 285 c 0,221,222
 463 287 463 287 479 283 c 0,223,224
 480 283 480 283 480 282 c 2,225,-1
 482 282 l 1,226,-1
 485 282 l 1,227,228
 506 286 506 286 527 293 c 0,229,230
 549 300 549 300 562 305 c 0,231,232
 580 313 580 313 603 300 c 0,233,234
 630 285 630 285 639 277 c 0,235,236
 650 266 650 266 637 251 c 0,237,238
 629 242 629 242 619 208 c 0,239,240
 608 180 608 180 606 172 c 1,241,242
 607 172 607 172 611 170 c 0,243,244
 627 160 627 160 627 153 c 0,245,246
 625 146 625 146 618 146 c 2,247,-1
 531 142 l 2,173,174
510 166 m 1,248,-1
 567 177 l 1,249,250
 572 200 572 200 574 223 c 0,251,252
 575 259 575 259 571 263 c 0,253,254
 571 264 571 264 561 264 c 0,255,256
 559 264 559 264 551 263.5 c 128,-1,257
 543 263 543 263 537 263 c 0,258,259
 534 263 534 263 523 261.5 c 128,-1,260
 512 260 512 260 507 260 c 1,261,262
 508 259 508 259 508 257 c 0,263,264
 508 226 508 226 510 191 c 2,265,-1
 510 166 l 1,248,-1
658 293 m 1,266,267
 650 307 650 307 655 310 c 0,268,269
 663 314 663 314 679 307 c 0,270,271
 685 307 685 307 689 303 c 1,272,273
 705 309 705 309 721 312 c 2,274,-1
 761 327 l 2,275,276
 780 335 780 335 803 322 c 0,277,278
 829 310 829 310 840 300 c 0,279,280
 852 288 852 288 839 273 c 0,281,282
 835 266 835 266 820 231 c 0,283,284
 807 197 807 197 804 185 c 1,285,286
 819 176 819 176 819 169 c 0,287,288
 817 162 817 162 810 162 c 0,289,290
 801 162 801 162 779.5 160.5 c 128,-1,291
 758 159 758 159 748 159 c 1,292,293
 757 154 757 154 767 142 c 0,294,295
 780 129 780 129 773 116 c 0,296,297
 768 108 768 108 754 79 c 1,298,-1
 752 76 l 1,299,300
 775 66 775 66 803 48 c 0,301,302
 842 26 842 26 858 9 c 0,303,304
 872 -6 872 -6 876 -37 c 0,305,306
 881 -67 881 -67 871 -77 c 0,307,308
 861 -86 861 -86 852 -83 c 0,309,310
 844 -79 844 -79 829 -60 c 0,311,312
 785 2 785 2 740 52 c 1,313,-1
 720 19 l 2,314,315
 702 -10 702 -10 682 -33 c 0,316,317
 666 -52 666 -52 638 -74 c 0,318,319
 632 -80 632 -80 626 -81 c 0,320,321
 620 -81 620 -81 620 -77 c 0,322,323
 620 -71 620 -71 624 -68 c 0,324,325
 653 -28 653 -28 674 14 c 0,326,327
 695 53 695 53 701 75 c 0,328,329
 709 100 709 100 712 119 c 0,330,331
 714 144 714 144 713 146 c 0,332,333
 712 149 712 149 710 152 c 2,334,-1
 709 154 l 1,335,-1
 709 157 l 1,336,-1
 705 157 l 2,337,338
 704 154 704 154 701 143 c 1,339,340
 689 142 689 142 682 150 c 0,341,342
 671 166 671 166 671 207 c 0,343,344
 670 244 670 244 658 293 c 1,266,267
708 210 m 0,345,346
 708 206 708 206 707.5 197 c 128,-1,347
 707 188 707 188 707 184 c 1,348,349
 735 187 735 187 763 194 c 1,350,-1
 765 194 l 1,351,352
 771 223 771 223 774 246 c 0,353,354
 776 281 776 281 772 286 c 1,355,-1
 758 286 l 1,356,-1
 724 281 l 2,357,358
 710 279 710 279 707 279 c 1,359,360
 707 247 707 247 708 210 c 0,345,346
EndSplineSet
EndChar
StartChar: u2A70C
Encoding: 173836 173836 7
Width: 1024
Flags: W
LayerCount: 2
Back
Fore
SplineSet
464 474 m 1,0,-1
 372 463 l 2,1,2
 348 460 348 460 336 468 c 0,3,4
 321 476 321 476 308 491 c 0,5,6
 296 506 296 506 322 507 c 2,7,-1
 406 513 l 1,8,-1
 461 518 l 1,9,-1
 459 564 l 1,10,-1
 455 589 l 1,11,-1
 453 593 l 1,12,-1
 331 582 l 2,13,14
 307 579 307 579 295 587 c 2,15,-1
 268 611 l 2,16,17
 256 627 256 627 283 627 c 2,18,-1
 393 632 l 1,19,-1
 467 638 l 1,20,21
 448 662 448 662 412 725 c 0,22,23
 404 743 404 743 407 748 c 0,24,25
 412 755 412 755 424 748 c 2,26,-1
 478 719 l 1,27,-1
 502 697 l 2,28,29
 509 690 509 690 509 661 c 1,30,-1
 506 642 l 1,31,-1
 520 642 l 1,32,-1
 652 659 l 2,33,34
 675 661 675 661 687 654 c 2,35,-1
 715 639 l 2,36,37
 730 631 730 631 726 621 c 0,38,39
 724 610 724 610 707 610 c 2,40,-1
 546 600 l 1,41,-1
 508 597 l 1,42,-1
 512 594 l 2,43,44
 530 580 530 580 525 560 c 2,45,-1
 520 525 l 1,46,-1
 604 537 l 2,47,48
 627 539 627 539 639 533 c 2,49,-1
 667 518 l 2,50,51
 680 510 680 510 679 500 c 0,52,53
 677 490 677 490 659 490 c 2,54,-1
 536 479 l 1,55,-1
 518 479 l 1,56,-1
 514 395 l 1,57,-1
 729 419 l 2,58,59
 757 424 757 424 772 415 c 2,60,-1
 809 390 l 1,61,62
 826 373 826 373 822 364 c 0,63,64
 817 356 817 356 798 356 c 2,65,-1
 672 358 l 2,66,67
 568 360 568 360 462 349 c 0,68,69
 353 338 353 338 263 322 c 0,70,71
 243 320 243 320 225 326 c 0,72,73
 207 333 207 333 190 350 c 1,74,75
 177 369 177 369 198 369 c 2,76,-1
 469 391 l 1,77,-1
 464 474 l 1,0,-1
447 240 m 1,78,79
 430 262 430 262 408 276 c 0,80,81
 383 293 383 293 387 305 c 0,82,83
 393 318 393 318 436 321 c 0,84,85
 481 323 481 323 490 287 c 1,86,-1
 506 251 l 1,87,-1
 617 276 l 2,88,89
 650 287 650 287 675 277 c 0,90,91
 704 270 704 270 709 258 c 128,-1,92
 714 246 714 246 705 240 c 0,93,94
 697 234 697 234 587 217 c 2,95,-1
 529 209 l 1,96,97
 552 170 552 170 594 118 c 1,98,-1
 614 136 l 2,99,100
 650 171 650 171 665 215 c 0,101,102
 673 230 673 230 682 226 c 0,103,104
 693 225 693 225 710 199 c 0,105,106
 727 176 727 176 727 163 c 128,-1,107
 727 150 727 150 717 146 c 2,108,-1
 650 94 l 1,109,-1
 629 77 l 1,110,111
 665 39 665 39 688 21 c 0,112,113
 729 -12 729 -12 764 -26 c 0,114,115
 800 -39 800 -39 805 -36 c 0,116,117
 814 -35 814 -35 818 -14 c 2,118,-1
 831 31 l 1,119,120
 832 52 832 52 839 54 c 0,121,122
 843 55 843 55 846 50 c 128,-1,123
 849 45 849 45 852 34 c 2,124,-1
 894 -87 l 1,125,126
 908 -108 908 -108 889 -118 c 0,127,128
 867 -126 867 -126 803 -105 c 0,129,130
 755 -92 755 -92 705 -60 c 0,131,132
 659 -30 659 -30 596 38 c 2,133,-1
 587 48 l 1,134,-1
 555 28 l 2,135,136
 507 1 507 1 443 -13 c 1,137,138
 378 -23 378 -23 319 -20 c 0,139,140
 306 -19 306 -19 299 -13 c 0,141,142
 294 -7 294 -7 307 -4 c 0,143,144
 409 18 409 18 454 35 c 0,145,146
 501 55 501 55 539 78 c 2,147,-1
 554 88 l 1,148,-1
 473 201 l 1,149,-1
 333 178 l 2,150,151
 300 173 300 173 279 179 c 0,152,153
 255 187 255 187 240 202 c 0,154,155
 226 219 226 219 252 219 c 0,156,157
 351 226 351 226 445 240 c 1,158,-1
 447 240 l 1,78,79
EndSplineSet
EndChar
StartChar: u2A70E
Encoding: 173838 173838 8
Width: 1024
Flags: W
LayerCount: 2
Back
Fore
SplineSet
259 240 m 0,0,1
 251 250 251 250 251 259 c 0,2,3
 252 264 252 264 254.5 267 c 128,-1,4
 257 270 257 270 261 269 c 0,5,6
 279 269 279 269 308 259 c 0,7,8
 341 250 341 250 352 234 c 0,9,10
 364 212 364 212 363 196 c 0,11,12
 361 179 361 179 345 179 c 0,13,14
 326 179 326 179 307 194 c 0,15,16
 279 219 279 219 259 240 c 0,0,1
406 166 m 1,17,18
 408 214 408 214 404 255 c 0,19,20
 400 284 400 284 389 304 c 0,21,22
 380 326 380 326 386 335 c 0,23,24
 395 344 395 344 422 334 c 0,25,26
 452 323 452 323 464 311 c 0,27,28
 477 301 477 301 473 288 c 0,29,30
 463 256 463 256 463 237 c 0,31,32
 461 209 461 209 461 173 c 0,33,34
 459 124 459 124 444 64 c 0,35,36
 434 20 434 20 411 -9 c 256,37,38
 388 -38 388 -38 348 -57 c 0,39,40
 306 -77 306 -77 268 -87 c 0,41,42
 224 -96 224 -96 217 -95 c 0,43,44
 210 -93 210 -93 207.5 -91 c 128,-1,45
 205 -89 205 -89 206 -88 c 0,46,47
 210 -84 210 -84 223 -79 c 0,48,49
 297 -42 297 -42 328 -18 c 0,50,51
 361 10 361 10 381 43 c 0,52,53
 402 78 402 78 405 133 c 2,54,-1
 405 137 l 1,55,-1
 391 123 l 2,56,57
 364 96 364 96 338 75 c 2,58,-1
 284 26 l 2,59,60
 276 18 276 18 257 21 c 0,61,62
 241 25 241 25 221 32 c 0,63,64
 205 40 205 40 205 49 c 0,65,66
 205 61 205 61 215 62 c 0,67,68
 234 70 234 70 287 98 c 2,69,-1
 406 166 l 1,17,18
625 -93 m 0,70,71
 589 -81 589 -81 575 -60 c 0,72,73
 557 -35 557 -35 553 11 c 0,74,75
 550 91 550 91 551 113 c 2,76,-1
 555 223 l 2,77,78
 555 282 555 282 547 309 c 0,79,80
 539 335 539 335 551 341 c 0,81,82
 564 346 564 346 591 324 c 0,83,84
 621 300 621 300 614 282 c 0,85,86
 608 257 608 257 603 189 c 1,87,-1
 640 218 l 2,88,89
 664 237 664 237 683 260 c 0,90,91
 697 277 697 277 697 289 c 0,92,93
 697 302 697 302 708 302 c 0,94,95
 721 302 721 302 738 286 c 0,96,97
 758 270 758 270 765 253 c 0,98,99
 772 237 772 237 752 230 c 0,100,101
 732 226 732 226 712 215 c 2,102,-1
 666 193 l 1,103,-1
 612 171 l 1,104,105
 635 164 635 164 673 150 c 0,106,107
 729 130 729 130 748 115 c 0,108,109
 766 104 766 104 778 74 c 0,110,111
 789 43 789 43 783 32 c 0,112,113
 775 20 775 20 764 22 c 0,114,115
 756 23 756 23 735 39 c 0,116,117
 662 102 662 102 600 144 c 1,118,119
 595 50 595 50 596 31 c 0,120,121
 599 5 599 5 605 -9 c 0,122,123
 616 -27 616 -27 631 -34 c 0,124,125
 648 -43 648 -43 686 -44 c 0,126,127
 731 -46 731 -46 768 -43 c 0,128,129
 811 -39 811 -39 817 -31 c 0,130,131
 832 -12 832 -12 847 61 c 0,132,133
 850 79 850 79 859 79 c 0,134,135
 869 79 869 79 869 57 c 0,136,137
 879 -7 879 -7 883 -24 c 0,138,139
 895 -56 895 -56 891 -72 c 1,140,141
 883 -86 883 -86 850 -93 c 0,142,143
 818 -98 818 -98 739 -102 c 1,144,145
 657 -102 657 -102 625 -93 c 0,70,71
471 586 m 2,146,147
 469 604 469 604 466 612 c 1,148,-1
 435 605 l 2,149,150
 368 593 368 593 344 593 c 0,151,152
 327 595 327 595 323 597 c 0,153,154
 322 599 322 599 324 600.5 c 128,-1,155
 326 602 326 602 330 603 c 0,156,157
 410 628 410 628 461 650 c 0,158,159
 508 671 508 671 529 686 c 0,160,161
 540 696 540 696 547 706 c 0,162,163
 555 717 555 717 560 717 c 0,164,165
 568 717 568 717 594 704 c 128,-1,166
 620 691 620 691 631 677 c 0,167,168
 641 665 641 665 637 658 c 0,169,170
 633 653 633 653 610 648 c 2,171,-1
 540 631 l 1,172,-1
 517 624 l 1,173,174
 535 615 535 615 538 607 c 0,175,176
 541 595 541 595 535 581 c 0,177,178
 533 567 533 567 533 538 c 1,179,180
 648 547 648 547 722 556 c 0,181,182
 747 561 747 561 764 551 c 0,183,184
 784 542 784 542 801 526 c 0,185,186
 819 509 819 509 813 500 c 0,187,188
 808 492 808 492 789 492 c 2,189,-1
 672 496 l 2,190,191
 580 498 580 498 533 495 c 1,192,-1
 533 482 l 1,193,-1
 535 380 l 2,194,195
 537 353 537 353 533 339 c 0,196,197
 528 322 528 322 521 315 c 0,198,199
 514 310 514 310 508 312 c 0,200,201
 505 314 505 314 494 330 c 0,202,203
 491 336 491 336 486 348.5 c 128,-1,204
 481 361 481 361 480 364 c 0,205,206
 476 385 476 385 479 406 c 0,207,208
 480 425 480 425 479 461 c 0,209,210
 477 483 477 483 477 491 c 1,211,-1
 476 491 l 1,212,213
 388 484 388 484 291 469 c 0,214,215
 271 467 271 467 253 473 c 0,216,217
 234 480 234 480 218 498 c 0,218,219
 204 516 204 516 227 516 c 2,220,-1
 475 533 l 1,221,-1
 471 586 l 2,146,147
EndSplineSet
EndChar
StartChar: u2A719
Encoding: 173849 173849 9
Width: 1024
Flags: W
LayerCount: 2
Back
Fore
SplineSet
718 83 m 2,0,-1
 717 169 l 1,1,-1
 649 164 l 2,2,3
 627 162 627 162 619 162 c 1,4,5
 618 147 618 147 618 122 c 0,6,7
 614 79 614 79 601 49 c 0,8,9
 590 20 590 20 572 0 c 0,10,11
 555 -21 555 -21 530 -40 c 0,12,13
 514 -55 514 -55 501 -55 c 0,14,15
 491 -56 491 -56 491 -51 c 0,16,17
 497 -42 497 -42 504 -33 c 2,18,-1
 530 1 l 2,19,20
 550 26 550 26 560 67 c 0,21,22
 570 106 570 106 570 155 c 1,23,24
 529 149 529 149 507 145 c 0,25,26
 494 143 494 143 473 148 c 0,27,28
 458 154 458 154 442 170 c 0,29,30
 430 186 430 186 449 186 c 2,31,-1
 568 196 l 1,32,-1
 564 239 l 2,33,34
 559 268 559 268 554 278 c 1,35,36
 512 263 512 263 506 263 c 0,37,38
 495 262 495 262 486 266 c 0,39,40
 480 273 480 273 489 275 c 0,41,42
 507 284 507 284 524 294 c 0,43,44
 554 312 554 312 586 338 c 0,45,46
 595 345 595 345 598 357 c 0,47,48
 604 370 604 370 609 370 c 0,49,50
 618 371 618 371 637 365 c 0,51,52
 659 358 659 358 673 345 c 0,53,54
 689 332 689 332 664 322 c 0,55,56
 646 315 646 315 623 302 c 2,57,-1
 599 292 l 1,58,59
 626 281 626 281 626 267 c 0,60,61
 623 258 623 258 621 235 c 0,62,63
 620 223 620 223 620 201 c 1,64,-1
 663 205 l 1,65,-1
 717 211 l 1,66,-1
 717 266 l 1,67,68
 712 326 712 326 710 333 c 2,69,-1
 702 351 l 2,70,71
 696 362 696 362 706 367 c 0,72,73
 718 375 718 375 730 372 c 0,74,75
 744 367 744 367 762 354 c 0,76,77
 783 341 783 341 780 325 c 0,78,79
 775 308 775 308 774 294 c 0,80,81
 772 281 772 281 770 217 c 1,82,-1
 828 224 l 2,83,84
 851 229 851 229 865 221 c 0,85,86
 885 212 885 212 898 199 c 0,87,88
 913 185 913 185 910 177 c 0,89,90
 904 169 904 169 888 169 c 2,91,-1
 799 171 l 1,92,-1
 767 171 l 1,93,-1
 767 77 l 2,94,95
 765 -22 765 -22 763 -70 c 0,96,97
 762 -93 762 -93 755 -113 c 0,98,99
 748 -132 748 -132 742 -132 c 0,100,101
 735 -132 735 -132 729 -111 c 0,102,103
 720 -88 720 -88 720 -81 c 0,104,105
 718 -29 718 -29 718 83 c 2,0,-1
407 640 m 1,106,-1
 408 643 l 2,107,108
 415 675 415 675 415 695 c 0,109,110
 415 717 415 717 412 735 c 0,111,112
 407 750 407 750 423 752 c 0,113,114
 439 755 439 755 453 744 c 0,115,116
 470 734 470 734 483 721 c 0,117,118
 496 710 496 710 486 694 c 0,119,120
 474 666 474 666 468 651 c 1,121,-1
 561 667 l 1,122,123
 578 677 578 677 596 664 c 2,124,-1
 639 636 l 2,125,126
 661 620 661 620 634 601 c 0,127,128
 616 587 616 587 604 555 c 0,129,130
 593 523 593 523 593 496 c 1,131,132
 598 468 598 468 609 454 c 0,133,134
 625 439 625 439 661 436 c 0,135,136
 694 435 694 435 736 440 c 1,137,138
 776 449 776 449 780 458 c 1,139,140
 800 476 800 476 806 511 c 1,141,142
 815 535 815 535 816 552 c 0,143,144
 818 559 818 559 820.5 562 c 128,-1,145
 823 565 823 565 825 563 c 0,146,147
 834 558 834 558 837 542 c 0,148,149
 854 474 854 474 874 433 c 0,150,151
 885 413 885 413 856 404 c 0,152,153
 816 387 816 387 745 384 c 0,154,155
 677 381 677 381 633 393 c 0,156,157
 595 406 595 406 572 430 c 0,158,159
 549 451 549 451 546 483 c 0,160,161
 542 513 542 513 546 543 c 2,162,-1
 554 588 l 2,163,164
 557 609 557 609 549 611 c 1,165,166
 541 619 541 619 477 610 c 2,167,-1
 453 607 l 1,168,-1
 446 587 l 2,169,170
 431 548 431 548 416 521 c 0,171,172
 400 497 400 497 381 471 c 0,173,174
 360 446 360 446 323 422 c 0,175,176
 287 398 287 398 240 385 c 0,177,178
 214 379 214 379 196 381 c 0,179,180
 183 385 183 385 198 392 c 0,181,182
 217 402 217 402 228 406 c 2,183,-1
 269 430 l 2,184,185
 299 448 299 448 326 478 c 0,186,187
 359 514 359 514 379 560 c 2,188,-1
 393 596 l 1,189,190
 365 590 365 590 351 588 c 0,191,192
 311 573 311 573 283 586 c 0,193,194
 257 602 257 602 257 612 c 0,195,196
 261 623 261 623 276 623 c 0,197,198
 313 626 313 626 407 640 c 1,106,-1
351 322 m 0,199,200
 326 321 326 321 292 317 c 1,201,202
 312 309 312 309 321 297 c 0,203,204
 332 283 332 283 316 274 c 0,205,206
 301 265 301 265 286 251 c 2,207,-1
 261 231 l 2,208,209
 256 229 256 229 250 225 c 2,210,-1
 268 228 l 2,211,212
 299 235 299 235 343 247 c 0,213,214
 367 256 367 256 390 242 c 0,215,216
 416 228 416 228 426 214 c 0,217,218
 437 199 437 199 428 185 c 0,219,220
 417 169 417 169 417 148 c 0,221,222
 416 139 416 139 416 77 c 2,223,-1
 416 -19 l 2,224,225
 416 -60 416 -60 409 -73 c 0,226,227
 392 -111 392 -111 383 -111 c 0,228,229
 375 -111 375 -111 366 -99 c 0,230,231
 354 -77 354 -77 337 -56 c 1,232,233
 272 -61 272 -61 248 -61 c 2,234,-1
 230 -61 l 1,235,236
 226 -73 226 -73 219 -86 c 0,237,238
 209 -99 209 -99 196 -79 c 0,239,240
 182 -57 182 -57 180 -41 c 0,241,242
 179 -30 179 -30 183 0 c 0,243,244
 187 31 187 31 187 79 c 0,245,246
 187 137 187 137 186 157 c 2,247,-1
 181 198 l 2,248,249
 179 209 179 209 176 214 c 0,250,251
 172 227 172 227 179 229 c 0,252,253
 187 233 187 233 198 229 c 0,254,255
 209 224 209 224 217 219 c 1,256,257
 227 237 227 237 234 247 c 0,258,259
 247 271 247 271 250 281 c 0,260,261
 258 299 258 299 255 309 c 2,262,-1
 254 313 l 1,263,-1
 173 304 l 2,264,265
 152 301 152 301 139 308 c 0,266,267
 130 314 130 314 112 330 c 0,268,269
 99 346 99 346 126 346 c 2,270,-1
 217 352 l 1,271,-1
 323 361 l 2,272,273
 325 361 325 361 432 377 c 0,274,275
 451 380 451 380 465 373 c 2,276,-1
 492 359 l 2,277,278
 505 352 505 352 503 342 c 0,279,280
 500 332 500 332 484 332 c 0,281,282
 416 328 416 328 351 322 c 0,199,200
234 -28 m 1,283,-1
 296 -17 l 2,284,285
 314 -11 314 -11 332 -18 c 1,286,-1
 338 -18 l 2,287,288
 346 -21 346 -21 351 -21 c 0,289,290
 359 -16 359 -16 359 -9 c 0,291,292
 364 4 364 4 364 26 c 0,293,294
 366 43 366 43 366 75 c 0,295,296
 365 80 365 80 365 86 c 1,297,298
 355 84 355 84 351 84 c 0,299,300
 322 80 322 80 285 75 c 0,301,302
 263 71 263 71 240 77 c 1,303,-1
 236 77 l 1,304,-1
 236 63 l 2,305,306
 236 48 236 48 235.5 15.5 c 128,-1,307
 235 -17 235 -17 234 -28 c 1,283,-1
236 110 m 1,308,309
 246 112 246 112 265 112 c 0,310,311
 274 114 274 114 288.5 116 c 128,-1,312
 303 118 303 118 308 119 c 0,313,314
 333 126 333 126 357 120 c 2,315,-1
 365 118 l 1,316,317
 365 126 365 126 364 128 c 2,318,-1
 364 175 l 2,319,320
 362 196 362 196 357 200 c 0,321,322
 350 206 350 206 296 198 c 0,323,324
 263 193 263 193 238 191 c 1,325,-1
 238 175 l 2,326,327
 236 165 236 165 236 110 c 1,308,309
EndSplineSet
EndChar
StartChar: u2A71E
Encoding: 173854 173854 10
Width: 1024
Flags: W
LayerCount: 2
Back
Fore
SplineSet
158 586 m 2,0,-1
 205 592 l 2,1,2
 229 596 229 596 248 601 c 0,3,4
 277 614 277 614 309 607 c 0,5,6
 341 599 341 599 346 590 c 0,7,8
 353 579 353 579 343 571 c 0,9,10
 333 568 333 568 312 563 c 2,11,-1
 247 550 l 2,12,13
 221 544 221 544 190 546 c 1,14,15
 165 553 165 553 147 567 c 0,16,17
 127 584 127 584 158 586 c 2,0,-1
384 164 m 0,18,19
 404 129 404 129 405 111 c 0,20,21
 408 102 408 102 401 79 c 0,22,23
 393 56 393 56 381 56 c 128,-1,24
 369 56 369 56 362 68 c 0,25,26
 348 94 348 94 336 127 c 1,27,28
 326 121 326 121 320 118 c 0,29,30
 247 87 247 87 208 67 c 0,31,32
 180 53 180 53 156 38 c 0,33,34
 144 30 144 30 125 39 c 0,35,36
 106 52 106 52 99 64 c 0,37,38
 93 78 93 78 117 102 c 0,39,40
 143 128 143 128 161 168 c 0,41,42
 188 235 188 235 204 305 c 1,43,44
 211 354 211 354 203 369 c 2,45,-1
 200 375 l 1,46,47
 194 374 194 374 180.5 371.5 c 128,-1,48
 167 369 167 369 160 367 c 0,49,50
 138 363 138 363 122 369 c 0,51,52
 100 383 100 383 90 391 c 0,53,54
 74 406 74 406 104 409 c 2,55,-1
 170 419 l 2,56,57
 220 429 220 429 245 432 c 2,58,-1
 323 450 l 2,59,60
 344 457 344 457 360 450 c 2,61,-1
 391 437 l 2,62,63
 405 429 405 429 405 419 c 0,64,65
 404 408 404 408 385 406 c 2,66,-1
 289 391 l 2,67,68
 273 389 273 389 265 387 c 1,69,70
 282 381 282 381 285 375 c 0,71,72
 292 366 292 366 285 351 c 0,73,74
 266 318 266 318 234 234 c 0,75,76
 203 150 203 150 187 118 c 1,77,-1
 225 128 l 1,78,79
 266 143 266 143 321 154 c 0,80,81
 324 157 324 157 327 157 c 1,82,83
 316 191 316 191 303 237 c 0,84,85
 300 255 300 255 304 257 c 0,86,87
 311 263 311 263 318 253 c 0,88,89
 367 198 367 198 384 164 c 0,18,19
658 172 m 2,90,91
 644 170 644 170 638 170 c 1,92,-1
 638 134 l 1,93,-1
 640 -53 l 2,94,95
 640 -81 640 -81 636 -97 c 0,96,97
 629 -114 629 -114 620 -111 c 0,98,99
 608 -104 608 -104 601 -89 c 0,100,101
 593 -76 593 -76 587 -57 c 0,102,103
 583 -42 583 -42 583 -28 c 2,104,-1
 587 15 l 1,105,-1
 587 119 l 2,106,107
 586 135 586 135 586 163 c 1,108,109
 539 158 539 158 509 153 c 0,110,111
 488 150 488 150 475 157 c 2,112,-1
 448 178 l 2,113,114
 434 192 434 192 461 194 c 0,115,116
 511 200 511 200 537 201 c 0,117,118
 564 206 564 206 584 206 c 1,119,-1
 584 227 l 1,120,-1
 580 270 l 1,121,122
 568 268 568 268 565 268 c 0,123,124
 527 266 527 266 521 266 c 0,125,126
 510 265 510 265 504 268 c 0,127,128
 502 273 502 273 509 273 c 0,129,130
 540 286 540 286 573 301 c 1,131,-1
 606 321 l 1,132,133
 617 334 617 334 620 338 c 0,134,135
 626 347 626 347 630 347 c 0,136,137
 638 347 638 347 657 337 c 0,138,139
 681 326 681 326 688 316 c 0,140,141
 698 306 698 306 693 301 c 0,142,143
 688 295 688 295 672 292 c 0,144,145
 654 290 654 290 624 280 c 1,146,147
 628 279 628 279 630 275 c 0,148,149
 645 264 645 264 642 251 c 128,-1,150
 639 238 639 238 639 214 c 1,151,-1
 716 226 l 2,152,153
 736 230 736 230 749 224 c 2,154,-1
 776 210 l 2,155,156
 788 203 788 203 788 194 c 0,157,158
 785 183 785 183 769 183 c 2,159,-1
 658 172 l 2,90,91
467 107 m 0,160,161
 465 118 465 118 472 118 c 0,162,163
 482 119 482 119 494 115 c 0,164,165
 512 108 512 108 519 100 c 0,166,167
 530 90 530 90 530 84 c 0,168,169
 530 75 530 75 526 72 c 0,170,171
 522 71 522 71 509 53 c 2,172,-1
 478 21 l 2,173,174
 464 7 464 7 446 -2 c 0,175,176
 430 -11 430 -11 420 -14 c 128,-1,177
 410 -17 410 -17 406 -17 c 0,178,179
 400 -14 400 -14 405 -11 c 0,180,181
 428 12 428 12 436 26 c 0,182,183
 452 48 452 48 456 61 c 0,184,185
 465 78 465 78 465 89 c 0,186,187
 467 98 467 98 467 107 c 0,160,161
696 104 m 0,188,189
 690 114 690 114 690 124 c 1,190,191
 694 133 694 133 700 130 c 0,192,193
 727 117 727 117 754 102 c 0,194,195
 790 80 790 80 801 69 c 0,196,197
 816 54 816 54 817 25 c 0,198,199
 821 -3 821 -3 811 -13 c 0,200,201
 802 -20 802 -20 792 -18 c 0,202,203
 784 -14 784 -14 771 4 c 0,204,205
 732 64 732 64 696 104 c 0,188,189
675 392 m 2,206,-1
 670 398 l 1,207,208
 650 397 650 397 612 393 c 0,209,210
 591 392 591 392 558 388 c 1,211,212
 539 346 539 346 522 318 c 0,213,214
 499 286 499 286 472 263 c 0,215,216
 444 240 444 240 419 227 c 0,217,218
 394 215 394 215 388 215 c 0,219,220
 382 216 382 216 379 217.5 c 128,-1,221
 376 219 376 219 377 220 c 0,222,223
 381 225 381 225 391 232 c 0,224,225
 438 274 438 274 456 298 c 0,226,227
 480 326 480 326 499 366 c 0,228,229
 503 376 503 376 504 379 c 1,230,231
 493 378 493 378 480 374 c 0,232,233
 467 372 467 372 448 377 c 0,234,235
 430 384 430 384 418 398 c 0,236,237
 407 413 407 413 425 413 c 2,238,-1
 523 423 l 1,239,240
 533 448 533 448 537 467 c 2,241,-1
 541 484 l 1,242,243
 514 483 514 483 494 486 c 0,244,245
 474 493 474 493 460 507 c 0,246,247
 447 523 447 523 471 523 c 2,248,-1
 553 528 l 1,249,-1
 565 585 l 1,250,-1
 542 582 l 2,251,252
 517 581 517 581 494 586 c 0,253,254
 474 593 474 593 460 607 c 0,255,256
 448 622 448 622 471 622 c 2,257,-1
 570 627 l 1,258,-1
 574 653 l 1,259,260
 574 682 574 682 568 701 c 0,261,262
 562 721 562 721 571 730 c 0,263,264
 581 738 581 738 604 723 c 0,265,266
 629 707 629 707 638 695 c 0,267,268
 649 682 649 682 643 673 c 0,269,270
 632 654 632 654 627 634 c 1,271,-1
 684 643 l 1,272,273
 711 652 711 652 735 642 c 0,274,275
 763 631 763 631 764 623 c 0,276,277
 770 614 770 614 760 608 c 0,278,279
 755 603 755 603 691 598 c 2,280,-1
 616 590 l 1,281,-1
 605 532 l 1,282,-1
 684 546 l 1,283,284
 711 555 711 555 735 545 c 0,285,286
 763 536 763 536 764 527 c 1,287,288
 770 518 770 518 760 512 c 0,289,290
 753 507 753 507 691 501 c 2,291,-1
 595 490 l 1,292,293
 588 465 588 465 575 428 c 1,294,295
 598 432 598 432 623 432 c 0,296,297
 683 439 683 439 775 451 c 0,298,299
 798 456 798 456 811 448 c 0,300,301
 830 438 830 438 843 427 c 0,302,303
 857 414 857 414 854 406 c 0,304,305
 849 398 849 398 834 398 c 0,306,307
 823 400 823 400 751 400 c 2,308,-1
 705 400 l 1,309,-1
 789 336 l 1,310,311
 827 313 827 313 839 307 c 0,312,313
 880 288 880 288 882 287 c 0,314,315
 899 280 899 280 933 268 c 0,316,317
 960 259 960 259 960 253 c 0,318,319
 960 248 960 248 944 244 c 0,320,321
 921 238 921 238 877 230 c 0,322,323
 827 223 827 223 810 235 c 1,324,325
 731 320 731 320 675 392 c 2,206,-1
EndSplineSet
EndChar
StartChar: u2A71F
Encoding: 173855 173855 11
Width: 1024
Flags: W
LayerCount: 2
Back
Fore
SplineSet
319 726 m 0,0,1
 311 744 311 744 317 750 c 0,2,3
 322 755 322 755 334 748 c 0,4,5
 358 740 358 740 365 734 c 0,6,7
 376 728 376 728 379 723 c 0,8,9
 382 713 382 713 381 691 c 1,10,-1
 448 702 l 2,11,12
 468 705 468 705 478 699 c 2,13,-1
 502 687 l 2,14,15
 512 680 512 680 512 672 c 0,16,17
 510 663 510 663 495 663 c 2,18,-1
 382 652 l 1,19,-1
 231 634 l 2,20,21
 211 632 211 632 201 638 c 0,22,23
 188 648 188 648 177 657 c 0,24,25
 167 670 167 670 189 671 c 0,26,27
 214 674 214 674 266 678 c 0,28,29
 289 681 289 681 330 685 c 1,30,31
 322 711 322 711 319 726 c 0,0,1
408 630 m 0,32,33
 432 634 432 634 447 618 c 0,34,35
 462 601 462 601 465 589 c 0,36,37
 470 576 470 576 460 569 c 0,38,39
 450 561 450 561 435 543 c 1,40,41
 447 536 447 536 447 529 c 0,42,43
 445 522 445 522 438 522 c 2,44,-1
 294 512 l 1,45,-1
 283 512 l 1,46,47
 283 506 283 506 281 500 c 1,48,49
 267 497 267 497 260 505 c 0,50,51
 251 514 251 514 247 540 c 0,52,53
 243 567 243 567 229 593 c 0,54,55
 218 607 218 607 224 611 c 0,56,57
 234 615 234 615 250 611 c 0,58,59
 266 608 266 608 272 604 c 1,60,61
 362 622 362 622 408 630 c 0,32,33
283 579 m 1,62,63
 284 571 284 571 284 542 c 2,64,-1
 284 539 l 1,65,-1
 391 554 l 2,66,67
 393 555 393 555 395 555 c 0,68,69
 400 572 400 572 402 578 c 0,70,71
 405 592 405 592 402 593 c 0,72,73
 396 595 396 595 364 591 c 0,74,75
 334 587 334 587 287 579 c 1,76,-1
 283 579 l 1,62,63
392 500 m 0,77,78
 404 502 404 502 418 489 c 0,79,80
 437 470 437 470 447 461 c 0,81,82
 463 447 463 447 459 437 c 0,83,84
 459 431 459 431 440 430 c 0,85,86
 420 430 420 430 360 402 c 1,87,88
 367 395 367 395 372 386 c 1,89,-1
 459 399 l 2,90,91
 471 399 471 399 472 393 c 0,92,93
 474 385 474 385 463 380 c 0,94,95
 455 375 455 375 439 370 c 2,96,-1
 380 354 l 1,97,98
 381 346 381 346 383 328 c 0,99,100
 384 288 384 288 377 256 c 0,101,102
 365 219 365 219 351 208 c 0,103,104
 337 202 337 202 325 213 c 0,105,106
 306 241 306 241 272 272 c 0,107,108
 261 282 261 282 263 285 c 0,109,110
 268 290 268 290 276 286 c 2,111,-1
 311 277 l 2,112,113
 325 275 325 275 330 278 c 0,114,115
 335 285 335 285 338 302 c 0,116,117
 340 324 340 324 340 343 c 1,118,-1
 240 315 l 2,119,120
 223 312 223 312 205 320 c 0,121,122
 186 329 186 329 176 339 c 0,123,124
 167 351 167 351 168 354 c 0,125,126
 170 360 170 360 180 360 c 0,127,128
 210 362 210 362 290 373 c 2,129,-1
 336 380 l 1,130,-1
 327 407 l 2,131,132
 322 418 322 418 325 421 c 128,-1,133
 328 424 328 424 343 417 c 0,134,135
 348 415 348 415 351 411 c 1,136,-1
 378 435 l 2,137,138
 392 449 392 449 392 451 c 0,139,140
 391 461 391 461 374 461 c 0,141,142
 364 463 364 463 341 456 c 2,143,-1
 280 442 l 2,144,145
 257 437 257 437 242 454 c 0,146,147
 230 473 230 473 251 473 c 0,148,149
 340 488 340 488 392 500 c 0,77,78
697 553 m 0,150,151
 702 570 702 570 696 573 c 0,152,153
 689 577 689 577 658 570 c 0,154,155
 637 564 637 564 634 563 c 2,156,-1
 616 488 l 1,157,-1
 603 450 l 1,158,159
 612 448 612 448 616 445 c 0,160,161
 631 436 631 436 642 408 c 0,162,163
 653 382 653 382 646 372 c 128,-1,164
 639 362 639 362 630 362 c 0,165,166
 621 364 621 364 605 378 c 2,167,-1
 581 398 l 1,168,-1
 574 385 l 2,169,170
 549 337 549 337 528 316 c 2,171,-1
 496 285 l 2,172,173
 481 272 481 272 475 272 c 0,174,175
 472 272 472 272 470 273 c 128,-1,176
 468 274 468 274 469 277 c 0,177,178
 473 285 473 285 476 289 c 0,179,180
 492 310 492 310 514 352 c 0,181,182
 534 395 534 395 546 426 c 1,183,184
 531 438 531 438 513 448 c 0,185,186
 503 456 503 456 503 465 c 0,187,188
 503 470 503 470 505 472 c 128,-1,189
 507 474 507 474 511 473 c 2,190,-1
 558 464 l 1,191,192
 564 482 564 482 575 526 c 2,193,-1
 579 549 l 1,194,-1
 557 543 l 2,195,196
 534 540 534 540 516 548 c 0,197,198
 496 559 496 559 492 570 c 0,199,200
 488 582 488 582 502 582 c 0,201,202
 542 582 542 582 586 590 c 1,203,204
 589 600 589 600 589 610 c 0,205,206
 593 645 593 645 593 664 c 2,207,-1
 593 689 l 2,208,209
 593 700 593 700 589 705 c 0,210,211
 584 718 584 718 593 720 c 0,212,213
 606 725 606 725 623 715 c 0,214,215
 643 704 643 704 651 692 c 0,216,217
 659 677 659 677 653 668 c 0,218,219
 648 658 648 658 647 641 c 0,220,221
 645 634 645 634 640 601 c 1,222,223
 691 614 691 614 708 618 c 0,224,225
 723 625 723 625 751 609 c 0,226,227
 781 592 781 592 784 582 c 0,228,229
 786 571 786 571 776 561 c 0,230,231
 760 550 760 550 743 525 c 0,232,233
 728 501 728 501 720 469 c 0,234,235
 713 434 713 434 716 409 c 0,236,237
 717 383 717 383 733 360 c 0,238,239
 747 340 747 340 766 326 c 0,240,241
 786 315 786 315 797 321 c 1,242,243
 811 338 811 338 825 415 c 0,244,245
 827 424 827 424 829.5 426 c 128,-1,246
 832 428 832 428 835 425 c 0,247,248
 841 419 841 419 847 390 c 0,249,250
 860 338 860 338 877 296 c 0,251,252
 888 264 888 264 863 254 c 0,253,254
 844 249 844 249 800 259 c 0,255,256
 756 271 756 271 728 293 c 0,257,258
 703 315 703 315 686 349 c 0,259,260
 670 386 670 386 673 429 c 0,261,262
 676 475 676 475 697 553 c 0,150,151
481 239 m 2,263,264
 517 243 517 243 557 250 c 0,265,266
 591 260 591 260 616 250 c 0,267,268
 644 241 644 241 649 230 c 0,269,270
 653 220 653 220 644 213 c 0,271,272
 639 208 639 208 591 204 c 2,273,-1
 477 191 l 2,274,275
 441 189 441 189 423 194 c 0,276,277
 400 202 400 202 385 217 c 0,278,279
 371 234 371 234 397 234 c 2,280,-1
 481 239 l 2,263,264
663 31 m 0,281,282
 701 11 701 11 714 -4 c 0,283,284
 728 -21 728 -21 731 -54 c 0,285,286
 734 -86 734 -86 724 -96 c 0,287,288
 712 -105 712 -105 702 -102 c 0,289,290
 693 -98 693 -98 679 -76 c 0,291,292
 667 -55 667 -55 654 -39 c 1,293,294
 652 -41 652 -41 648 -41 c 0,295,296
 507 -56 507 -56 422 -72 c 0,297,298
 346 -86 346 -86 316 -96 c 0,299,300
 301 -98 301 -98 289 -83 c 0,301,302
 275 -64 275 -64 275 -52 c 0,303,304
 275 -37 275 -37 304 -25 c 0,305,306
 336 -13 336 -13 367 17 c 2,307,-1
 399 49 l 1,308,309
 414 70 414 70 420 85 c 1,310,311
 331 76 331 76 274 65 c 0,312,313
 252 63 252 63 234 69 c 0,314,315
 215 76 215 76 198 95 c 0,316,317
 184 113 184 113 207 113 c 0,318,319
 335 122 335 122 503 136 c 0,320,321
 645 150 645 150 730 160 c 0,322,323
 757 165 757 165 774 155 c 0,324,325
 793 146 793 146 812 129 c 0,326,327
 830 112 830 112 826 103 c 0,328,329
 819 94 819 94 801 94 c 0,330,331
 780 96 780 96 677 97 c 0,332,333
 574 99 574 99 487 92 c 1,334,335
 496 82 496 82 498 75 c 0,336,337
 501 64 501 64 488 54 c 0,338,339
 477 47 477 47 427 8 c 2,340,-1
 368 -38 l 1,341,342
 373 -40 373 -40 450 -28 c 0,343,344
 515 -17 515 -17 632 -9 c 1,345,346
 612 19 612 19 600 33 c 0,347,348
 593 47 593 47 594 55 c 0,349,350
 597 66 597 66 606 62 c 0,351,352
 630 52 630 52 663 31 c 0,281,282
EndSplineSet
EndChar
StartChar: u2A720
Encoding: 173856 173856 12
Width: 1024
Flags: W
LayerCount: 2
Back
Fore
SplineSet
435 702 m 0,0,1
 429 721 429 721 432 726 c 0,2,3
 439 731 439 731 450 724 c 0,4,5
 491 699 491 699 508 679 c 0,6,7
 526 662 526 662 531 648 c 0,8,9
 535 638 535 638 534 610 c 0,10,11
 531 590 531 590 523 585 c 1,12,-1
 539 585 l 1,13,-1
 720 610 l 2,14,15
 743 613 743 613 757 606 c 2,16,-1
 786 590 l 2,17,18
 803 582 803 582 798 571 c 0,19,20
 796 560 796 560 778 560 c 2,21,-1
 557 543 l 1,22,-1
 262 513 l 2,23,24
 238 511 238 511 224 519 c 2,25,-1
 196 543 l 2,26,27
 182 560 182 560 211 560 c 2,28,-1
 363 570 l 1,29,-1
 498 581 l 1,30,-1
 490 588 l 1,31,32
 470 617 470 617 435 702 c 0,0,1
560 331 m 2,33,34
 566 394 566 394 560 398 c 0,35,36
 548 406 548 406 475 393 c 2,37,-1
 405 382 l 1,38,-1
 405 376 l 1,39,-1
 400 320 l 1,40,-1
 395 268 l 1,41,-1
 451 249 l 1,42,-1
 479 231 l 2,43,44
 487 224 487 224 492 197 c 128,-1,45
 497 170 497 170 485 163 c 0,46,47
 472 156 472 156 459 164 c 0,48,49
 437 182 437 182 392 233 c 1,50,-1
 379 160 l 2,51,52
 372 127 372 127 355 92 c 0,53,54
 343 63 343 63 306 20 c 0,55,56
 268 -21 268 -21 224 -48 c 0,57,58
 192 -63 192 -63 182 -63 c 0,59,60
 170 -62 170 -62 181 -52 c 2,61,-1
 206 -31 l 1,62,-1
 247 8 l 2,63,64
 273 33 273 33 298 79 c 0,65,66
 323 124 323 124 335 188 c 0,67,68
 346 257 346 257 345 291 c 2,69,-1
 338 353 l 1,70,-1
 324 396 l 2,71,72
 318 410 318 410 330 416 c 0,73,74
 345 422 345 422 361 415 c 1,75,-1
 364 415 l 2,76,77
 436 418 436 418 471 425 c 0,78,79
 516 437 516 437 563 456 c 0,80,81
 582 467 582 467 612 454 c 0,82,83
 645 442 645 442 657 426 c 0,84,85
 671 410 671 410 664 394 c 1,86,87
 638 368 638 368 625 325 c 0,88,89
 614 284 614 284 603 184 c 0,90,91
 595 81 595 81 598 61 c 0,92,93
 602 35 602 35 615 17 c 0,94,95
 627 2 627 2 660 -9 c 0,96,97
 696 -19 696 -19 742 -16 c 0,98,99
 793 -13 793 -13 811 -1 c 1,100,101
 834 22 834 22 842 63 c 2,102,-1
 856 122 l 2,103,104
 857 126 857 126 859 128.5 c 128,-1,105
 861 131 861 131 864 130 c 0,106,107
 869 128 869 128 875 85 c 0,108,109
 883 42 883 42 896 5 c 0,110,111
 908 -33 908 -33 890 -46 c 0,112,113
 854 -70 854 -70 786 -75 c 0,114,115
 715 -78 715 -78 669 -73 c 0,116,117
 621 -67 621 -67 595 -49 c 0,118,119
 571 -32 571 -32 560 -9 c 0,120,121
 551 12 551 12 546 48 c 0,122,123
 541 101 541 101 547 182 c 2,124,-1
 560 331 l 2,33,34
EndSplineSet
EndChar
StartChar: u2A723
Encoding: 173859 173859 13
Width: 1024
Flags: W
LayerCount: 2
Back
Fore
SplineSet
429 725 m 0,0,1
 420 742 420 742 422 747 c 0,2,3
 427 754 427 754 439 749 c 2,4,-1
 498 720 l 1,5,-1
 524 698 l 2,6,7
 530 692 530 692 532 662 c 2,8,-1
 532 648 l 1,9,-1
 548 648 l 1,10,11
 644 656 644 656 733 669 c 0,12,13
 756 671 756 671 769 664 c 2,14,-1
 798 647 l 2,15,16
 812 638 812 638 810 627 c 0,17,18
 808 617 808 617 789 617 c 2,19,-1
 565 606 l 1,20,-1
 266 584 l 2,21,22
 239 582 239 582 228 590 c 2,23,-1
 200 616 l 2,24,25
 187 632 187 632 216 632 c 2,26,-1
 370 637 l 1,27,-1
 485 645 l 1,28,29
 467 665 467 665 429 725 c 0,0,1
379 561 m 1,30,31
 379 571 379 571 388 571 c 2,32,-1
 411 561 l 2,33,34
 425 551 425 551 433 537 c 2,35,-1
 440 515 l 2,36,37
 439 509 439 509 431 504 c 2,38,-1
 396 478 l 1,39,-1
 332 434 l 1,40,41
 301 418 301 418 269 406 c 1,42,-1
 219 394 l 1,43,-1
 195 394 l 1,44,45
 188 398 188 398 196 401 c 0,46,47
 237 418 237 418 273 443 c 2,48,-1
 330 490 l 1,49,-1
 364 531 l 1,50,-1
 379 561 l 1,30,31
487 567 m 0,51,52
 489 575 489 575 509 581 c 0,53,54
 532 586 532 586 562 581 c 1,55,-1
 607 551 l 1,56,57
 644 520 644 520 672 505 c 2,58,-1
 721 483 l 1,59,-1
 778 462 l 1,60,-1
 813 449 l 2,61,62
 821 444 821 444 809 440 c 0,63,64
 804 436 804 436 779 428 c 2,65,-1
 729 415 l 2,66,67
 706 410 706 410 684 419 c 1,68,-1
 634 466 l 1,69,-1
 577 521 l 2,70,71
 542 553 542 553 530 553 c 2,72,-1
 502 555 l 2,73,74
 487 555 487 555 487 567 c 0,51,52
357 294 m 2,75,76
 343 292 343 292 331 306 c 0,77,78
 318 324 318 324 318 336 c 0,79,80
 319 351 319 351 347 361 c 0,81,82
 377 373 377 373 407 400 c 2,83,-1
 437 429 l 1,84,85
 464 466 464 466 464 481 c 0,86,87
 464 498 464 498 472 501 c 0,88,89
 483 506 483 506 506 484 c 0,90,91
 530 462 530 462 533 451 c 0,92,93
 535 439 535 439 522 432 c 2,94,-1
 464 390 l 1,95,-1
 407 348 l 1,96,-1
 462 357 l 1,97,-1
 579 374 l 1,98,-1
 558 394 l 2,99,100
 550 405 550 405 550 413 c 0,101,102
 552 423 552 423 559 419 c 2,103,-1
 605 406 l 1,104,-1
 647 388 l 1,105,106
 661 376 661 376 668 348 c 0,107,108
 674 322 674 322 667 312 c 0,109,110
 658 303 658 303 649 304 c 1,111,-1
 626 323 l 1,112,-1
 606 346 l 1,113,-1
 594 343 l 1,114,-1
 433 314 l 1,115,-1
 357 294 l 2,75,76
263 145 m 0,116,117
 308 186 308 186 330 220 c 0,118,119
 351 251 351 251 356 271 c 0,120,121
 356 281 356 281 359.5 285.5 c 128,-1,122
 363 290 363 290 370 288 c 0,123,124
 387 285 387 285 403 260 c 1,125,126
 422 238 422 238 422 225 c 0,127,128
 422 213 422 213 412 206 c 2,129,-1
 353 159 l 1,130,-1
 320 133 l 1,131,-1
 329 127 l 1,132,-1
 352 101 l 2,133,134
 361 87 361 87 357 65 c 1,135,-1
 357 -45 l 2,136,137
 359 -83 359 -83 346 -107 c 0,138,139
 334 -131 334 -131 321 -120 c 0,140,141
 306 -107 306 -107 302 -84 c 0,142,143
 297 -55 297 -55 299 -44 c 2,144,-1
 303 27 l 1,145,-1
 301 79 l 1,146,-1
 297 103 l 1,147,-1
 293 114 l 1,148,-1
 265 94 l 2,149,150
 215 62 215 62 185 50 c 2,151,-1
 148 40 l 1,152,153
 138 42 138 42 142 47 c 2,154,-1
 157 59 l 1,155,156
 214 99 214 99 263 145 c 0,116,117
560 156 m 1,157,-1
 539 200 l 2,158,159
 526 227 526 227 503 245 c 0,160,161
 481 264 481 264 487 275 c 0,162,163
 494 285 494 285 536 284 c 0,164,165
 579 283 579 283 582 245 c 1,166,-1
 600 189 l 1,167,-1
 609 166 l 1,168,-1
 678 184 l 2,169,170
 708 195 708 195 733 188 c 0,171,172
 761 181 761 181 765 171 c 128,-1,173
 769 161 769 161 762 154 c 0,174,175
 756 148 756 148 680 135 c 2,176,-1
 629 127 l 1,177,-1
 643 103 l 2,178,179
 671 56 671 56 702 20 c 0,180,181
 730 -11 730 -11 755 -25 c 0,182,183
 781 -38 781 -38 785 -37 c 0,184,185
 793 -36 793 -36 801 -13 c 2,186,-1
 818 38 l 2,187,188
 821 58 821 58 827 58 c 0,189,190
 831 59 831 59 833.5 54 c 128,-1,191
 836 49 836 49 837 38 c 2,192,-1
 864 -94 l 1,193,194
 875 -116 875 -116 856 -123 c 0,195,196
 835 -128 835 -128 776 -102 c 0,197,198
 739 -86 739 -86 705 -56 c 0,199,200
 673 -28 673 -28 631 31 c 0,201,202
 608 66 608 66 580 118 c 1,203,-1
 504 102 l 2,204,205
 473 97 473 97 453 101 c 0,206,207
 432 105 432 105 415 121 c 0,208,209
 401 137 401 137 426 138 c 0,210,211
 496 144 496 144 559 156 c 1,212,-1
 560 156 l 1,157,-1
681 279 m 1,213,-1
 710 268 l 2,214,215
 720 264 720 264 729 241 c 0,216,217
 739 219 739 219 729 209 c 0,218,219
 718 200 718 200 706 205 c 0,220,221
 678 220 678 220 622 260 c 0,222,223
 608 271 608 271 609 277 c 0,224,225
 610 284 610 284 623 284 c 2,226,-1
 681 279 l 1,213,-1
EndSplineSet
EndChar
StartChar: u2A724
Encoding: 173860 173860 14
Width: 1024
Flags: W
LayerCount: 2
Back
Fore
SplineSet
439 710 m 0,0,1
 430 728 430 728 436 734 c 128,-1,2
 442 740 442 740 453 732 c 0,3,4
 492 712 492 712 505 697 c 0,5,6
 523 680 523 680 527 673 c 0,7,8
 532 661 532 661 530 634 c 0,9,10
 528 618 528 618 522 611 c 1,11,12
 533 612 533 612 553 612 c 0,13,14
 652 622 652 622 745 636 c 0,15,16
 767 639 767 639 781 631 c 2,17,-1
 810 615 l 2,18,19
 823 605 823 605 822 595 c 0,20,21
 819 585 819 585 801 585 c 0,22,23
 635 576 635 576 568 571 c 0,24,25
 418 559 418 559 258 544 c 0,26,27
 236 541 236 541 220 550 c 0,28,29
 210 558 210 558 192 576 c 0,30,31
 177 592 177 592 207 592 c 2,32,-1
 368 599 l 1,33,34
 428 606 428 606 490 608 c 1,35,-1
 486 612 l 1,36,37
 469 635 469 635 439 710 c 0,0,1
488 120 m 0,38,39
 492 194 492 194 488 265 c 0,40,41
 483 331 483 331 481 343 c 2,42,-1
 481 344 l 1,43,44
 458 318 458 318 442 302 c 0,45,46
 416 277 416 277 378 254 c 0,47,48
 369 248 369 248 363 248 c 0,49,50
 356 248 356 248 356 252 c 0,51,52
 356 259 356 259 362 263 c 0,53,54
 409 312 409 312 441 361 c 0,55,56
 473 406 473 406 487 437 c 0,57,58
 503 465 503 465 509 494 c 0,59,60
 518 523 518 523 514 529 c 0,61,62
 511 536 511 536 511 539 c 0,63,64
 515 555 515 555 524 555 c 0,65,66
 537 556 537 556 550 547 c 0,67,68
 565 537 565 537 578 518 c 0,69,70
 592 498 592 498 581 486 c 0,71,72
 569 471 569 471 551 440 c 0,73,74
 534 414 534 414 514 388 c 1,75,76
 547 391 547 391 625 395 c 0,77,78
 642 399 642 399 662 399 c 1,79,80
 641 434 641 434 611 507 c 0,81,82
 605 525 605 525 609 529 c 0,83,84
 617 535 617 535 625 527 c 0,85,86
 670 493 670 493 684 478 c 0,87,88
 703 458 703 458 706 445 c 0,89,90
 712 435 712 435 707 410 c 1,91,-1
 707 406 l 1,92,-1
 752 415 l 2,93,94
 779 424 779 424 803 414 c 0,95,96
 831 403 831 403 832 395 c 0,97,98
 838 386 838 386 828 380 c 0,99,100
 820 373 820 373 741 367 c 0,101,102
 713 365 713 365 698 363 c 0,103,104
 698 362 698 362 700 361 c 2,105,-1
 702 360 l 1,106,107
 721 344 721 344 715 323 c 0,108,109
 712 314 712 314 710 274 c 1,110,111
 722 278 722 278 734 278 c 0,112,113
 763 288 763 288 789 278 c 0,114,115
 819 267 819 267 820 259 c 0,116,117
 826 249 826 249 816 242 c 0,118,119
 809 238 809 238 748 232 c 0,120,121
 720 230 720 230 707 228 c 1,122,123
 704 198 704 198 704 152 c 1,124,-1
 743 159 l 2,125,126
 772 168 772 168 797 158 c 0,127,128
 827 147 827 147 828 139 c 0,129,130
 834 129 834 129 824 122 c 0,131,132
 817 117 817 117 755 111 c 2,133,-1
 702 106 l 1,134,135
 700 52 700 52 700 15 c 1,136,137
 768 25 768 25 804 26 c 0,138,139
 826 30 826 30 844 22 c 0,140,141
 863 13 863 13 878 -2 c 0,142,143
 894 -15 894 -15 889 -25 c 0,144,145
 884 -33 884 -33 867 -33 c 0,146,147
 854 -30 854 -30 796 -30 c 0,148,149
 739 -27 739 -27 675 -32 c 0,150,151
 608 -37 608 -37 562 -45 c 0,152,153
 556 -46 556 -46 533 -43 c 1,154,155
 530 -74 530 -74 530 -87 c 0,156,157
 526 -106 526 -106 515 -121 c 128,-1,158
 504 -136 504 -136 490 -113 c 128,-1,159
 476 -90 476 -90 474 -72 c 0,160,161
 473 -60 473 -60 477 -28 c 0,162,163
 487 37 487 37 488 120 c 0,38,39
534 2 m 1,164,165
 594 9 594 9 650 11 c 1,166,-1
 650 100 l 1,167,168
 636 99 636 99 608 95 c 0,169,170
 582 92 582 92 556 98 c 1,171,-1
 536 107 l 1,172,173
 534 25 534 25 534 2 c 1,164,165
643 143 m 2,174,175
 646 144 646 144 650 144 c 1,176,-1
 650 221 l 1,177,-1
 604 215 l 2,178,179
 578 212 578 212 552 218 c 1,180,-1
 537 225 l 1,181,-1
 537 137 l 1,182,-1
 643 143 l 2,174,175
637 263 m 2,183,184
 642 265 642 265 649 265 c 1,185,-1
 649 299 l 2,186,187
 646 334 646 334 643 344 c 0,188,189
 642 346 642 346 638 357 c 1,190,191
 609 353 609 353 554 347 c 1,192,-1
 539 347 l 1,193,-1
 539 329 l 2,194,195
 537 315 537 315 537 257 c 1,196,-1
 637 263 l 2,183,184
259 335 m 0,197,198
 311 406 311 406 326 447 c 0,199,200
 347 500 347 500 348 519 c 1,201,202
 341 540 341 540 358 540 c 0,203,204
 378 538 378 538 399 519 c 0,205,206
 425 496 425 496 426 485 c 0,207,208
 430 474 430 474 420 464 c 0,209,210
 403 446 403 446 359 386 c 1,211,-1
 297 311 l 2,212,213
 299 309 299 309 301.5 307 c 128,-1,214
 304 305 304 305 305 304 c 0,215,216
 322 288 322 288 331 276 c 0,217,218
 343 260 343 260 335 235 c 1,219,-1
 335 -25 l 2,220,221
 335 -70 335 -70 322 -96 c 0,222,223
 309 -121 309 -121 294 -110 c 0,224,225
 279 -97 279 -97 273 -70 c 0,226,227
 268 -45 268 -45 270 -25 c 0,228,229
 281 34 281 34 281 113 c 0,230,231
 281 199 281 199 280 216 c 0,232,233
 277 249 277 249 273 263 c 0,234,235
 271 267 271 267 270 273 c 2,236,-1
 268 279 l 2,237,238
 265 278 265 278 265 276 c 0,239,240
 215 223 215 223 176 196 c 0,241,242
 151 177 151 177 139 177 c 0,243,244
 134 176 134 176 132 178 c 128,-1,245
 130 180 130 180 131 183 c 0,246,247
 136 190 136 190 144 199 c 0,248,249
 218 280 218 280 259 335 c 0,197,198
EndSplineSet
EndChar
StartChar: u2A726
Encoding: 173862 173862 15
Width: 1024
Flags: W
LayerCount: 2
Back
Fore
SplineSet
274 704 m 0,0,1
 268 723 268 723 274 727 c 0,2,3
 283 733 283 733 291 723 c 2,4,-1
 325 697 l 1,5,-1
 339 680 l 2,6,7
 343 670 343 670 335 643 c 1,8,-1
 335 640 l 1,9,-1
 365 643 l 2,10,11
 399 650 399 650 414 644 c 0,12,13
 433 634 433 634 440 625 c 0,14,15
 448 612 448 612 432 611 c 2,16,-1
 352 601 l 1,17,-1
 213 586 l 2,18,19
 195 585 195 585 179 592 c 1,20,-1
 156 611 l 1,21,22
 149 623 149 623 166 623 c 2,23,-1
 272 631 l 1,24,-1
 289 634 l 1,25,26
 280 659 280 659 274 704 c 0,0,1
294 539 m 1,27,-1
 348 553 l 1,28,29
 364 562 364 562 382 549 c 2,30,-1
 417 525 l 2,31,32
 433 513 433 513 414 494 c 1,33,-1
 389 442 l 1,34,-1
 393 439 l 2,35,36
 410 426 410 426 410 420 c 0,37,38
 408 412 408 412 400 412 c 2,39,-1
 253 406 l 1,40,-1
 235 408 l 1,41,-1
 230 387 l 1,42,43
 216 386 216 386 209 395 c 0,44,45
 201 408 201 408 199 443 c 0,46,47
 198 480 198 480 188 517 c 1,48,49
 179 532 179 532 185 534 c 0,50,51
 191 538 191 538 210 531 c 2,52,-1
 215 529 l 1,53,-1
 294 539 l 1,27,-1
238 443 m 1,54,-1
 237 435 l 1,55,-1
 346 448 l 1,56,-1
 351 479 l 1,57,-1
 349 504 l 1,58,59
 342 511 342 511 318 508 c 2,60,-1
 259 504 l 1,61,-1
 240 504 l 1,62,-1
 240 502 l 1,63,-1
 238 443 l 1,54,-1
150 222 m 2,64,65
 141 201 141 201 128 211 c 0,66,67
 115 226 115 226 109 244 c 0,68,69
 103 264 103 264 107 271 c 2,70,-1
 122 304 l 1,71,-1
 129 329 l 1,72,-1
 129 330 l 1,73,74
 125 346 125 346 131 352 c 0,75,76
 138 359 138 359 154 339 c 2,77,-1
 156 336 l 1,78,-1
 231 342 l 1,79,-1
 336 354 l 1,80,-1
 427 362 l 1,81,82
 455 371 455 371 484 330 c 128,-1,83
 513 289 513 289 513 279 c 0,84,85
 511 276 511 276 482 276 c 0,86,87
 456 279 456 279 409 269 c 0,88,89
 394 265 394 265 389 268 c 0,90,91
 385 274 385 274 393 282 c 2,92,-1
 410 308 l 1,93,-1
 418 321 l 2,94,95
 417 327 417 327 402 327 c 2,96,-1
 344 321 l 1,97,-1
 261 311 l 1,98,-1
 189 298 l 1,99,-1
 165 298 l 1,100,-1
 161 265 l 1,101,-1
 150 222 l 2,64,65
289 158 m 2,102,103
 289 188 289 188 283 204 c 1,104,-1
 227 198 l 2,105,106
 209 195 209 195 197 202 c 2,107,-1
 173 221 l 2,108,109
 161 235 161 235 185 235 c 2,110,-1
 241 239 l 1,111,-1
 305 245 l 1,112,-1
 372 255 l 2,113,114
 390 259 390 259 402 252 c 2,115,-1
 426 239 l 2,116,117
 436 233 436 233 436 224 c 0,118,119
 434 215 434 215 419 215 c 2,120,-1
 340 210 l 1,121,-1
 340 209 l 1,122,123
 345 200 345 200 342 175 c 2,124,-1
 340 81 l 1,125,-1
 340 9 l 2,126,127
 343 -30 343 -30 332 -59 c 0,128,129
 320 -90 320 -90 310 -103 c 0,130,131
 299 -116 299 -116 289 -108 c 2,132,-1
 211 -42 l 2,133,134
 201 -35 201 -35 201 -29 c 0,135,136
 201 -22 201 -22 211 -24 c 2,137,-1
 240 -26 l 1,138,139
 267 -33 267 -33 277 -25 c 0,140,141
 289 -14 289 -14 289 16 c 2,142,-1
 289 158 l 2,102,103
558 389 m 1,143,-1
 560 383 l 1,144,-1
 566 385 l 1,145,-1
 642 426 l 1,146,-1
 620 480 l 2,147,148
 616 496 616 496 619 500 c 0,149,150
 625 504 625 504 633 498 c 2,151,-1
 685 448 l 1,152,-1
 705 416 l 2,153,154
 708 408 708 408 705 385 c 0,155,156
 701 363 701 363 689 362 c 128,-1,157
 677 361 677 361 669 370 c 2,158,-1
 651 406 l 1,159,-1
 583 334 l 1,160,-1
 564 312 l 2,161,162
 554 297 554 297 544 297 c 0,163,164
 538 297 538 297 521 312 c 0,165,166
 507 329 507 329 512 342 c 0,167,168
 516 353 516 353 514 404 c 2,169,-1
 507 495 l 1,170,-1
 501 547 l 1,171,172
 489 558 489 558 489 568 c 0,173,174
 488 574 488 574 492 577.5 c 128,-1,175
 496 581 496 581 503 581 c 0,176,177
 521 579 521 579 539 567 c 1,178,-1
 539 566 l 1,179,-1
 567 588 l 1,180,-1
 598 621 l 2,181,182
 611 637 611 637 611 648 c 0,183,184
 612 661 612 661 622 661 c 0,185,186
 634 661 634 661 651 646 c 0,187,188
 671 629 671 629 677 614 c 0,189,190
 684 598 684 598 664 592 c 2,191,-1
 625 578 l 1,192,-1
 590 563 l 1,193,-1
 555 551 l 1,194,-1
 555 485 l 1,195,-1
 558 389 l 1,143,-1
871 538 m 0,196,197
 874 559 874 559 867 568 c 0,198,199
 860 576 860 576 845 575 c 2,200,-1
 782 562 l 1,201,-1
 791 556 l 2,202,203
 811 542 811 542 815 531 c 0,204,205
 822 518 822 518 814 508 c 2,206,-1
 808 493 l 1,207,-1
 798 462 l 1,208,-1
 777 411 l 2,209,210
 764 383 764 383 745 357 c 0,211,212
 725 331 725 331 713 323 c 2,213,-1
 692 309 l 1,214,-1
 671 299 l 2,215,216
 668 298 668 298 666.5 299.5 c 128,-1,217
 665 301 665 301 666 304 c 2,218,-1
 674 315 l 1,219,-1
 698 350 l 1,220,-1
 723 396 l 1,221,-1
 742 448 l 1,222,-1
 754 496 l 1,223,-1
 759 527 l 1,224,-1
 759 542 l 1,225,-1
 756 551 l 1,226,-1
 756 556 l 1,227,-1
 742 552 l 2,228,229
 735 549 735 549 716 562 c 0,230,231
 696 579 696 579 696 583 c 0,232,233
 696 589 696 589 732 589 c 1,234,-1
 799 600 l 1,235,-1
 853 613 l 1,236,237
 881 631 881 631 907 612 c 0,238,239
 937 595 937 595 937 585 c 2,240,-1
 931 562 l 1,241,242
 919 547 919 547 911 467 c 0,243,244
 902 386 902 386 887 356 c 0,245,246
 870 324 870 324 853 307 c 1,247,248
 828 292 828 292 818 292 c 0,249,250
 809 295 809 295 804 303 c 2,251,-1
 782 359 l 2,252,253
 776 369 776 369 779 372 c 0,254,255
 784 377 784 377 789 372 c 2,256,-1
 820 362 l 1,257,-1
 832 370 l 1,258,259
 844 386 844 386 853 420 c 0,260,261
 866 457 866 457 871 538 c 0,196,197
847 -81 m 0,262,263
 838 -99 838 -99 824 -94 c 0,264,265
 809 -86 809 -86 794 -67 c 2,266,-1
 785 -52 l 1,267,-1
 607 -59 l 1,268,-1
 592 -59 l 1,269,-1
 586 -84 l 1,270,271
 572 -87 572 -87 562 -77 c 0,272,273
 543 -45 543 -45 540 45 c 0,274,275
 537 138 537 138 513 229 c 1,276,277
 501 247 501 247 508 249 c 0,278,279
 516 254 516 254 537 248 c 0,280,281
 562 240 562 240 567 234 c 1,282,-1
 657 242 l 1,283,-1
 758 255 l 1,284,-1
 826 262 l 1,285,286
 842 274 842 274 869 255 c 0,287,288
 902 234 902 234 910 223 c 0,289,290
 922 211 922 211 907 192 c 0,291,292
 890 172 890 172 883 146 c 1,293,294
 863 -45 863 -45 847 -81 c 0,262,263
828 83 m 1,295,-1
 821 82 l 1,296,-1
 739 77 l 1,297,-1
 736 77 l 1,298,-1
 732 -11 l 1,299,-1
 760 -9 l 2,300,301
 790 -5 790 -5 810 -20 c 1,302,-1
 810 -21 l 1,303,304
 822 10 822 10 828 83 c 1,295,-1
688 74 m 1,305,-1
 630 68 l 2,306,307
 610 67 610 67 597 73 c 2,308,-1
 585 83 l 1,309,-1
 588 63 l 1,310,-1
 593 -27 l 1,311,-1
 688 -17 l 1,312,-1
 688 74 l 1,305,-1
739 120 m 1,313,-1
 772 124 l 2,314,315
 790 128 790 128 804 121 c 2,316,-1
 829 106 l 1,317,-1
 831 106 l 1,318,319
 840 194 840 194 821 211 c 0,320,321
 816 220 816 220 740 214 c 1,322,-1
 727 214 l 1,323,-1
 734 208 l 2,324,325
 750 195 750 195 745 177 c 2,326,-1
 739 120 l 1,313,-1
686 171 m 1,327,-1
 682 200 l 1,328,-1
 678 209 l 1,329,-1
 591 202 l 1,330,-1
 574 202 l 1,331,-1
 583 108 l 1,332,-1
 586 108 l 1,333,-1
 641 111 l 1,334,-1
 686 115 l 1,335,-1
 686 171 l 1,327,-1
EndSplineSet
EndChar
StartChar: u2A728
Encoding: 173864 173864 16
Width: 1024
Flags: W
LayerCount: 2
Back
Fore
SplineSet
218 459 m 0,0,1
 273 547 273 547 289 605 c 0,2,3
 308 665 308 665 308 696 c 1,4,5
 300 720 300 720 317 720 c 0,6,7
 338 720 338 720 363 702 c 0,8,9
 392 682 392 682 395 670 c 0,10,11
 401 657 401 657 391 646 c 2,12,-1
 325 540 l 1,13,-1
 252 428 l 1,14,-1
 261 420 l 1,15,-1
 287 392 l 2,16,17
 299 376 299 376 291 351 c 1,18,-1
 291 -9 l 2,19,20
 291 -54 291 -54 278 -80 c 0,21,22
 265 -105 265 -105 250 -94 c 0,23,24
 235 -81 235 -81 229 -54 c 0,25,26
 224 -29 224 -29 226 -9 c 0,27,28
 243 74 243 74 241 172 c 2,29,-1
 241 307 l 1,30,-1
 232 368 l 1,31,-1
 224 390 l 1,32,33
 171 319 171 319 123 278 c 0,34,35
 100 256 100 256 87 253 c 0,36,37
 81 252 81 252 79 254 c 128,-1,38
 77 256 77 256 78 259 c 2,39,-1
 90 278 l 1,40,41
 170 380 170 380 218 459 c 0,0,1
653 53 m 2,42,-1
 641 60 l 1,43,44
 612 25 612 25 562 -9 c 0,45,46
 509 -45 509 -45 444 -65 c 0,47,48
 414 -73 414 -73 396 -71 c 1,49,50
 384 -65 384 -65 398 -59 c 2,51,-1
 430 -43 l 1,52,-1
 491 -10 l 2,53,54
 534 16 534 16 575 59 c 2,55,-1
 597 85 l 1,56,-1
 527 118 l 1,57,-1
 484 130 l 2,58,59
 468 133 468 133 462 142 c 1,60,-1
 457 168 l 1,61,62
 460 183 460 183 468 191 c 0,63,64
 482 207 482 207 503 262 c 2,65,-1
 511 283 l 1,66,-1
 425 268 l 2,67,68
 410 266 410 266 388 271 c 0,69,70
 370 278 370 278 354 294 c 1,71,72
 342 312 342 312 362 312 c 2,73,-1
 527 327 l 1,74,-1
 557 418 l 1,75,76
 572 493 572 493 570 508 c 2,77,-1
 564 533 l 2,78,79
 561 542 561 542 563 553 c 1,80,81
 569 562 569 562 581 560 c 0,82,83
 598 557 598 557 626 532 c 0,84,85
 655 507 655 507 643 479 c 2,86,-1
 609 393 l 1,87,-1
 584 333 l 1,88,-1
 642 338 l 1,89,-1
 707 346 l 1,90,-1
 711 372 l 1,91,-1
 708 429 l 1,92,93
 703 446 703 446 719 448 c 0,94,95
 738 451 738 451 752 440 c 2,96,-1
 784 416 l 2,97,98
 799 403 799 403 788 386 c 2,99,-1
 774 354 l 1,100,-1
 857 365 l 2,101,102
 879 371 879 371 897 361 c 0,103,104
 917 354 917 354 933 338 c 0,105,106
 951 323 951 323 946 314 c 0,107,108
 942 306 942 306 923 306 c 2,109,-1
 759 306 l 1,110,-1
 734 232 l 2,111,112
 713 175 713 175 692 136 c 2,113,-1
 674 107 l 1,114,115
 739 77 739 77 777 52 c 2,116,-1
 814 32 l 2,117,118
 832 25 832 25 851 -8 c 0,119,120
 872 -40 872 -40 872 -67 c 0,121,122
 872 -93 872 -93 860 -93 c 128,-1,123
 848 -93 848 -93 832 -77 c 0,124,125
 746 3 746 3 653 53 c 2,42,-1
620 130 m 1,126,-1
 626 127 l 1,127,-1
 654 177 l 2,128,129
 691 249 691 249 700 297 c 1,130,-1
 700 303 l 1,131,-1
 610 295 l 1,132,-1
 566 290 l 1,133,-1
 552 259 l 1,134,-1
 520 180 l 1,135,136
 522 172 522 172 620 130 c 1,126,-1
435 608 m 2,137,-1
 537 616 l 1,138,-1
 654 627 l 1,139,-1
 776 645 l 2,140,141
 797 649 797 649 813 642 c 2,142,-1
 843 626 l 2,143,144
 856 617 856 617 855 607 c 0,145,146
 852 596 852 596 834 596 c 2,147,-1
 685 584 l 1,148,-1
 486 562 l 2,149,150
 465 558 465 558 449 567 c 2,151,-1
 419 591 l 1,152,153
 405 608 405 608 435 608 c 2,137,-1
EndSplineSet
EndChar
StartChar: u2A72B
Encoding: 173867 173867 17
Width: 1024
Flags: W
LayerCount: 2
Back
Fore
SplineSet
224 450 m 0,0,1
 281 538 281 538 299 600 c 0,2,3
 320 660 320 660 320 693 c 1,4,5
 311 716 311 716 329 716 c 0,6,7
 350 716 350 716 375 698 c 0,8,9
 404 677 404 677 407 665 c 0,10,11
 412 652 412 652 402 642 c 2,12,-1
 334 533 l 1,13,-1
 268 436 l 1,14,-1
 273 432 l 1,15,-1
 300 402 l 2,16,17
 312 385 312 385 304 359 c 1,18,-1
 304 3 l 2,19,20
 302 -44 302 -44 291 -71 c 0,21,22
 276 -97 276 -97 261 -85 c 0,23,24
 245 -71 245 -71 239 -43 c 0,25,26
 234 -19 234 -19 236 3 c 0,27,28
 252 83 252 83 252 184 c 2,29,-1
 252 318 l 1,30,-1
 242 379 l 1,31,-1
 238 394 l 1,32,-1
 228 380 l 2,33,34
 172 308 172 308 124 265 c 0,35,36
 98 244 98 244 87 241 c 0,37,38
 81 240 81 240 79 242 c 128,-1,39
 77 244 77 244 78 247 c 2,40,-1
 90 266 l 1,41,42
 171 363 171 363 224 450 c 0,0,1
772 30 m 1,43,-1
 850 37 l 2,44,45
 875 41 875 41 892 32 c 2,46,-1
 928 6 l 2,47,48
 946 -10 946 -10 941 -20 c 0,49,50
 935 -28 935 -28 917 -28 c 2,51,-1
 808 -23 l 2,52,53
 723 -19 723 -19 627 -25 c 0,54,55
 527 -33 527 -33 455 -44 c 0,56,57
 436 -45 436 -45 417 -39 c 0,58,59
 397 -30 397 -30 382 -13 c 0,60,61
 369 4 369 4 391 4 c 2,62,-1
 511 11 l 1,63,-1
 547 252 l 1,64,-1
 489 242 l 2,65,66
 470 238 470 238 450 243 c 0,67,68
 432 250 432 250 418 261 c 0,69,70
 406 274 406 274 408 282 c 0,71,72
 412 290 412 290 424 290 c 2,73,-1
 504 294 l 1,74,-1
 553 300 l 1,75,-1
 572 435 l 2,76,77
 576 480 576 480 573 497 c 2,78,-1
 569 515 l 1,79,-1
 545 512 l 2,80,81
 509 506 509 506 488 521 c 0,82,83
 467 538 467 538 467 545 c 0,84,85
 468 555 468 555 483 553 c 0,86,87
 565 556 565 556 637 565 c 2,88,-1
 761 585 l 1,89,90
 789 595 789 595 822 569 c 0,91,92
 857 543 857 543 863 528 c 0,93,94
 871 513 871 513 862 494 c 1,95,96
 839 465 839 465 823 366 c 0,97,98
 805 272 805 272 772 30 c 1,43,-1
748 276 m 1,99,-1
 632 263 l 1,100,-1
 601 260 l 1,101,-1
 563 14 l 1,102,-1
 651 20 l 1,103,-1
 715 25 l 1,104,-1
 748 276 l 1,99,-1
771 527 m 0,105,106
 767 536 767 536 724 530 c 2,107,-1
 629 520 l 1,108,-1
 634 515 l 2,109,110
 651 496 651 496 642 475 c 1,111,-1
 616 347 l 1,112,-1
 609 306 l 1,113,-1
 738 318 l 1,114,-1
 754 321 l 1,115,-1
 759 360 l 2,116,117
 778 511 778 511 771 527 c 0,105,106
EndSplineSet
EndChar
StartChar: u2A72C
Encoding: 173868 173868 18
Width: 1024
Flags: W
LayerCount: 2
Back
Fore
SplineSet
278 473 m 0,0,1
 350 536 350 536 383 577 c 0,2,3
 417 618 417 618 440 660 c 0,4,5
 464 701 464 701 464 715 c 0,6,7
 464 720 464 720 463 726 c 128,-1,8
 462 732 462 732 462 733 c 0,9,10
 469 748 469 748 481 748 c 0,11,12
 498 748 498 748 508 733 c 0,13,14
 524 715 524 715 534 693 c 128,-1,15
 544 671 544 671 532 660 c 1,16,17
 630 562 630 562 685 518 c 0,18,19
 742 473 742 473 766 460 c 0,20,21
 793 446 793 446 831 432 c 0,22,23
 868 418 868 418 907 406 c 0,24,25
 948 394 948 394 948 385 c 0,26,27
 948 378 948 378 924 374 c 256,28,29
 900 370 900 370 825 365 c 0,30,31
 753 362 753 362 730 383 c 0,32,33
 609 510 609 510 511 639 c 1,34,35
 501 629 501 629 467 589 c 0,36,37
 426 538 426 538 359 480 c 128,-1,38
 292 422 292 422 247 392 c 0,39,40
 200 361 200 361 126 331 c 0,41,42
 117 327 117 327 108 327 c 0,43,44
 101 328 101 328 101 334 c 0,45,46
 106 344 106 344 111 345 c 0,47,48
 208 411 208 411 278 473 c 0,0,1
530 -59 m 0,49,50
 532 -86 532 -86 527 -104 c 0,51,52
 521 -123 521 -123 514 -129 c 0,53,54
 508 -135 508 -135 500 -133 c 0,55,56
 492 -127 492 -127 485 -112 c 0,57,58
 475 -91 475 -91 470 -75 c 0,59,60
 465 -56 465 -56 470 -29 c 0,61,62
 476 8 476 8 476 104 c 2,63,-1
 476 174 l 1,64,-1
 436 132 l 2,65,66
 397 92 397 92 361 65 c 0,67,68
 323 38 323 38 284 16 c 0,69,70
 243 -9 243 -9 205 -21 c 0,71,72
 191 -24 191 -24 183 -18 c 0,73,74
 177 -9 177 -9 189 -6 c 0,75,76
 252 26 252 26 304 70 c 0,77,78
 355 114 355 114 391 151 c 0,79,80
 416 177 416 177 439 212 c 1,81,82
 371 205 371 205 312 194 c 0,83,84
 297 193 297 193 276 198 c 1,85,86
 257 207 257 207 242 222 c 1,87,88
 230 240 230 240 250 240 c 2,89,-1
 476 258 l 1,90,91
 476 273 476 273 475 277 c 2,92,-1
 475 344 l 1,93,94
 443 342 443 342 427 340 c 0,95,96
 401 339 401 339 376 344 c 1,97,98
 355 354 355 354 341 368 c 0,99,100
 328 384 328 384 353 384 c 0,101,102
 361 384 361 384 472 387 c 2,103,-1
 473 387 l 1,104,105
 472 397 472 397 472 410 c 0,106,107
 467 463 467 463 459 497 c 0,108,109
 455 512 455 512 463 517 c 0,110,111
 474 524 474 524 505 507 c 0,112,113
 539 489 539 489 540 479 c 0,114,115
 542 470 542 470 536 451 c 0,116,117
 531 431 531 431 530 393 c 1,118,119
 558 400 558 400 579 401 c 0,120,121
 609 408 609 408 634 399 c 0,122,123
 662 389 662 389 664 379 c 0,124,125
 669 368 669 368 659 362 c 0,126,127
 652 358 652 358 585 353 c 0,128,129
 547 351 547 351 528 349 c 1,130,-1
 528 262 l 1,131,-1
 689 279 l 2,132,133
 713 283 713 283 730 274 c 0,134,135
 750 265 750 265 765 250 c 0,136,137
 784 236 784 236 777 226 c 0,138,139
 772 218 772 218 754 218 c 2,140,-1
 651 221 l 2,141,142
 604 224 604 224 541 220 c 1,143,144
 622 142 622 142 668 107 c 0,145,146
 717 70 717 70 735 61 c 0,147,148
 759 48 759 48 789 36 c 2,149,-1
 853 12 l 2,150,151
 888 -1 888 -1 888 -7 c 0,152,153
 887 -13 887 -13 868 -17 c 0,154,155
 845 -22 845 -22 783 -26 c 0,156,157
 719 -30 719 -30 700 -13 c 0,158,159
 606 92 606 92 528 194 c 1,160,161
 528 146 528 146 528.5 85.5 c 128,-1,162
 529 25 529 25 529.5 -8 c 128,-1,163
 530 -41 530 -41 530 -59 c 0,49,50
EndSplineSet
EndChar
StartChar: u2A72D
Encoding: 173869 173869 19
Width: 1024
Flags: W
LayerCount: 2
Back
Fore
SplineSet
228 462 m 0,0,1
 284 546 284 546 302 600 c 0,2,3
 324 659 324 659 324 687 c 1,4,5
 317 710 317 710 334 710 c 0,6,7
 355 708 355 708 379 690 c 0,8,9
 407 669 407 669 410 657 c 0,10,11
 414 644 414 644 404 634 c 2,12,-1
 337 535 l 1,13,-1
 265 435 l 1,14,-1
 269 432 l 1,15,-1
 295 404 l 2,16,17
 307 388 307 388 299 363 c 1,18,-1
 299 -1 l 2,19,20
 299 -46 299 -46 286 -72 c 0,21,22
 273 -97 273 -97 258 -86 c 0,23,24
 243 -73 243 -73 237 -46 c 0,25,26
 232 -21 232 -21 234 -1 c 0,27,28
 250 80 250 80 250 182 c 2,29,-1
 250 318 l 1,30,-1
 240 380 l 1,31,-1
 234 396 l 1,32,33
 176 327 176 327 132 292 c 0,34,35
 105 272 105 272 95 269 c 0,36,37
 90 268 90 268 88 270 c 128,-1,38
 86 272 86 272 87 275 c 2,39,-1
 99 294 l 1,40,41
 177 384 177 384 228 462 c 0,0,1
893 104 m 0,42,43
 896 -11 896 -11 885 -44 c 2,44,-1
 872 -75 l 2,45,46
 866 -90 866 -90 857 -90 c 0,47,48
 848 -89 848 -89 835 -77 c 2,49,-1
 814 -50 l 1,50,-1
 804 -34 l 1,51,-1
 508 -43 l 1,52,-1
 490 -43 l 1,53,-1
 476 -73 l 1,54,55
 463 -87 463 -87 448 -64 c 0,56,57
 433 -39 433 -39 431 -20 c 0,58,59
 430 -2 430 -2 435 28 c 0,60,61
 450 123 450 123 454 237 c 0,62,63
 459 350 459 350 456 443 c 2,64,-1
 448 553 l 1,65,-1
 437 595 l 2,66,67
 431 608 431 608 440 612 c 0,68,69
 451 617 451 617 462 612 c 2,70,-1
 489 598 l 1,71,-1
 498 592 l 1,72,-1
 578 598 l 1,73,-1
 736 612 l 1,74,75
 788 621 788 621 800 626 c 0,76,77
 813 633 813 633 823 633 c 0,78,79
 836 632 836 632 873 607 c 128,-1,80
 910 582 910 582 910 569 c 0,81,82
 911 557 911 557 905 544 c 2,83,-1
 896 515 l 1,84,-1
 893 356 l 2,85,86
 891 262 891 262 893 104 c 0,42,43
526 167 m 1,87,-1
 501 169 l 1,88,-1
 496 -2 l 1,89,-1
 777 20 l 2,90,91
 808 24 808 24 828 12 c 1,92,-1
 832 55 l 1,93,-1
 838 240 l 2,94,95
 842 381 842 381 839 469 c 0,96,97
 834 556 834 556 828 564 c 0,98,99
 823 572 823 572 780 569 c 2,100,-1
 649 556 l 1,101,-1
 551 547 l 2,102,103
 531 543 531 543 513 543 c 2,104,-1
 507 543 l 1,105,106
 503 518 503 518 503 376 c 1,107,-1
 585 388 l 1,108,-1
 676 410 l 1,109,110
 700 420 700 420 731 401 c 0,111,112
 766 382 766 382 778 370 c 0,113,114
 794 355 794 355 776 336 c 1,115,-1
 752 278 l 1,116,-1
 733 219 l 1,117,-1
 739 216 l 1,118,119
 762 200 762 200 762 190 c 0,120,121
 761 180 761 180 748 180 c 2,122,-1
 526 167 l 1,87,-1
682 227 m 1,123,-1
 685 228 l 1,124,-1
 691 298 l 1,125,126
 691 346 691 346 685 350 c 0,127,128
 681 354 681 354 645 351 c 2,129,-1
 548 340 l 1,130,-1
 502 340 l 1,131,-1
 502 205 l 1,132,-1
 682 227 l 1,123,-1
EndSplineSet
EndChar
StartChar: u2A72E
Encoding: 173870 173870 20
Width: 1024
Flags: W
LayerCount: 2
Back
Fore
SplineSet
254 462 m 0,0,1
 313 545 313 545 332 601 c 0,2,3
 356 661 356 661 356 688 c 1,4,5
 349 711 349 711 366 711 c 0,6,7
 387 711 387 711 411 690 c 0,8,9
 440 667 440 667 441 656 c 0,10,11
 445 643 445 643 435 633 c 2,12,-1
 365 534 l 1,13,-1
 292 437 l 1,14,-1
 297 432 l 1,15,-1
 323 404 l 2,16,17
 335 388 335 388 327 363 c 1,18,-1
 327 -1 l 2,19,20
 327 -46 327 -46 314 -72 c 0,21,22
 301 -97 301 -97 286 -86 c 0,23,24
 271 -73 271 -73 265 -46 c 0,25,26
 260 -21 260 -21 262 -1 c 0,27,28
 278 80 278 80 278 182 c 2,29,-1
 278 318 l 1,30,-1
 268 380 l 1,31,-1
 262 400 l 1,32,-1
 258 395 l 1,33,34
 196 326 196 326 153 291 c 0,35,36
 128 271 128 271 115 269 c 0,37,38
 110 268 110 268 108 270 c 128,-1,39
 106 272 106 272 107 275 c 2,40,-1
 119 293 l 1,41,42
 202 386 202 386 254 462 c 0,0,1
855 90 m 2,43,44
 859 -3 859 -3 841 -38 c 0,45,46
 818 -80 818 -80 809 -80 c 128,-1,47
 800 -80 800 -80 790 -65 c 2,48,-1
 755 -9 l 1,49,-1
 692 -14 l 1,50,-1
 583 -25 l 2,51,52
 565 -29 565 -29 550 -23 c 1,53,-1
 535 -57 l 2,54,55
 524 -73 524 -73 508 -49 c 0,56,57
 492 -22 492 -22 490 -4 c 0,58,59
 488 13 488 13 493 43 c 0,60,61
 505 126 505 126 505 238 c 0,62,63
 508 348 508 348 503 429 c 2,64,-1
 493 531 l 1,65,-1
 481 570 l 2,66,67
 475 583 475 583 484 587 c 0,68,69
 495 592 495 592 506 587 c 2,70,-1
 534 574 l 1,71,-1
 541 569 l 1,72,-1
 622 579 l 2,73,74
 700 592 700 592 758 605 c 1,75,76
 787 616 787 616 816 600 c 0,77,78
 850 582 850 582 862 566 c 0,79,80
 876 548 876 548 864 531 c 0,81,82
 853 512 853 512 851 485 c 2,83,-1
 851 317 l 1,84,-1
 855 90 l 2,43,44
554 22 m 1,85,-1
 586 24 l 1,86,-1
 650 31 l 1,87,-1
 716 40 l 2,88,89
 737 44 737 44 753 37 c 2,90,-1
 777 25 l 1,91,92
 784 28 784 28 784 34 c 0,93,94
 794 64 794 64 795 119 c 2,95,-1
 798 193 l 1,96,-1
 796 193 l 1,97,-1
 712 186 l 1,98,-1
 600 173 l 2,99,100
 580 169 580 169 564 176 c 2,101,-1
 554 183 l 1,102,-1
 554 22 l 1,85,-1
797 371 m 1,103,-1
 797 373 l 1,104,-1
 793 373 l 1,105,-1
 705 364 l 1,106,-1
 588 349 l 2,107,108
 568 346 568 346 553 352 c 1,109,-1
 555 259 l 1,110,-1
 555 216 l 1,111,-1
 606 220 l 1,112,-1
 672 228 l 1,113,-1
 740 239 l 2,114,115
 759 243 759 243 775 236 c 2,116,-1
 799 225 l 1,117,-1
 799 239 l 1,118,-1
 797 371 l 1,103,-1
553 393 m 1,119,-1
 597 397 l 1,120,-1
 665 406 l 1,121,-1
 736 418 l 2,122,123
 757 422 757 422 771 416 c 2,124,-1
 796 404 l 1,125,-1
 794 486 l 2,126,127
 794 533 794 533 776 548 c 0,128,129
 763 558 763 558 664 545 c 2,130,-1
 553 531 l 1,131,-1
 553 393 l 1,119,-1
EndSplineSet
EndChar
StartChar: u2A733
Encoding: 173875 173875 21
Width: 1024
Flags: W
LayerCount: 2
Back
Fore
SplineSet
212 466 m 0,0,1
 268 550 268 550 286 604 c 0,2,3
 308 663 308 663 308 691 c 1,4,5
 301 714 301 714 318 714 c 0,6,7
 339 712 339 712 363 694 c 0,8,9
 391 673 391 673 394 661 c 0,10,11
 398 648 398 648 388 638 c 2,12,-1
 321 539 l 1,13,-1
 249 439 l 1,14,-1
 253 436 l 1,15,-1
 279 408 l 2,16,17
 291 392 291 392 283 367 c 1,18,-1
 283 3 l 2,19,20
 283 -42 283 -42 270 -68 c 0,21,22
 257 -93 257 -93 242 -82 c 0,23,24
 227 -69 227 -69 221 -42 c 0,25,26
 216 -17 216 -17 218 3 c 0,27,28
 234 84 234 84 234 186 c 2,29,-1
 234 322 l 1,30,-1
 224 384 l 1,31,-1
 218 400 l 1,32,33
 160 331 160 331 116 296 c 0,34,35
 89 276 89 276 79 273 c 0,36,37
 74 272 74 272 72 274 c 128,-1,38
 70 276 70 276 71 279 c 2,39,-1
 83 298 l 1,40,41
 161 388 161 388 212 466 c 0,0,1
438 426 m 2,42,43
 436 548 436 548 432 576 c 1,44,45
 418 590 418 590 418 604 c 0,46,47
 418 619 418 619 436 619 c 0,48,49
 458 618 458 618 481 598 c 2,50,-1
 493 586 l 1,51,-1
 604 606 l 1,52,-1
 728 638 l 2,53,54
 752 645 752 645 781 630 c 2,55,-1
 826 600 l 2,56,57
 841 587 841 587 824 567 c 0,58,59
 813 552 813 552 797 514 c 2,60,-1
 773 459 l 1,61,62
 787 449 787 449 787 442 c 0,63,64
 786 432 786 432 774 432 c 2,65,-1
 672 420 l 1,66,67
 695 399 695 399 691 383 c 0,68,69
 682 359 682 359 682 310 c 2,70,-1
 682 301 l 1,71,-1
 755 318 l 2,72,73
 776 325 776 325 792 318 c 2,74,-1
 823 305 l 2,75,76
 837 298 837 298 837 287 c 0,77,78
 836 276 836 276 817 274 c 2,79,-1
 693 254 l 1,80,-1
 690 254 l 1,81,-1
 704 211 l 1,82,83
 726 158 726 158 752 108 c 0,84,85
 780 61 780 61 814 26 c 0,86,87
 848 -8 848 -8 866 -10 c 1,88,89
 882 -4 882 -4 887 37 c 2,90,-1
 898 118 l 2,91,92
 903 133 903 133 907 133 c 0,93,94
 914 132 914 132 914 119 c 0,95,96
 933 -43 933 -43 946 -78 c 0,97,98
 956 -112 956 -112 922 -112 c 0,99,100
 889 -112 889 -112 827 -73 c 1,101,102
 776 -31 776 -31 734 35 c 0,103,104
 691 103 691 103 665 181 c 2,105,-1
 645 246 l 1,106,-1
 528 223 l 2,107,108
 506 219 506 219 490 225 c 2,109,-1
 485 228 l 1,110,-1
 480 41 l 1,111,-1
 480 39 l 1,112,-1
 482 39 l 1,113,-1
 607 124 l 2,114,115
 620 134 620 134 625 125 c 0,116,117
 631 116 631 116 623 104 c 2,118,-1
 513 -18 l 1,119,-1
 484 -53 l 2,120,121
 469 -72 469 -72 459 -72 c 0,122,123
 447 -73 447 -73 429 -52 c 0,124,125
 412 -32 412 -32 417 -14 c 0,126,127
 435 24 435 24 436 163 c 2,128,-1
 438 426 l 2,42,43
495 398 m 1,129,-1
 489 398 l 1,130,-1
 489 374 l 1,131,-1
 486 267 l 1,132,-1
 557 278 l 1,133,-1
 636 292 l 1,134,-1
 628 352 l 2,135,136
 622 392 622 392 613 412 c 1,137,-1
 495 398 l 1,129,-1
705 475 m 1,138,-1
 734 477 l 1,139,-1
 742 530 l 2,140,141
 746 569 746 569 739 575 c 0,142,143
 734 582 734 582 678 574 c 2,144,-1
 530 551 l 1,145,-1
 495 548 l 1,146,147
 490 511 490 511 490 437 c 1,148,-1
 705 475 l 1,138,-1
EndSplineSet
EndChar
StartChar: u2A735
Encoding: 173877 173877 22
Width: 1024
Flags: W
LayerCount: 2
Back
Fore
SplineSet
252 474 m 0,0,1
 308 558 308 558 326 612 c 0,2,3
 348 671 348 671 348 699 c 1,4,5
 341 722 341 722 358 722 c 0,6,7
 379 720 379 720 403 702 c 0,8,9
 431 681 431 681 434 669 c 0,10,11
 438 656 438 656 428 646 c 2,12,-1
 361 547 l 1,13,-1
 289 447 l 1,14,-1
 293 444 l 1,15,-1
 319 416 l 2,16,17
 331 400 331 400 323 375 c 1,18,-1
 323 7 l 2,19,20
 323 -38 323 -38 310 -64 c 0,21,22
 297 -89 297 -89 282 -78 c 0,23,24
 267 -65 267 -65 261 -38 c 0,25,26
 256 -13 256 -13 258 7 c 0,27,28
 274 88 274 88 274 192 c 2,29,-1
 274 329 l 1,30,-1
 264 391 l 1,31,-1
 258 408 l 1,32,33
 200 339 200 339 156 304 c 0,34,35
 129 284 129 284 119 281 c 0,36,37
 114 280 114 280 112 282 c 128,-1,38
 110 284 110 284 111 287 c 2,39,-1
 123 306 l 1,40,41
 201 396 201 396 252 474 c 0,0,1
584 388 m 1,42,43
 546 402 546 402 534 424 c 0,44,45
 519 450 519 450 519 472 c 2,46,-1
 523 582 l 2,47,48
 525 644 525 644 517 661 c 0,49,50
 510 680 510 680 515 689 c 0,51,52
 524 698 524 698 539 690 c 0,53,54
 558 682 558 682 571 666 c 0,55,56
 586 650 586 650 581 629 c 2,57,-1
 576 588 l 1,58,-1
 655 594 l 1,59,-1
 753 610 l 1,60,61
 784 620 784 620 812 610 c 0,62,63
 842 599 842 599 845 590 c 0,64,65
 850 579 850 579 840 573 c 0,66,67
 832 567 832 567 772 561 c 2,68,-1
 625 543 l 2,69,70
 600 540 600 540 574 546 c 1,71,-1
 572 491 l 2,72,73
 572 473 572 473 581 459 c 0,74,75
 592 448 592 448 608 442 c 1,76,77
 636 439 636 439 701 442 c 1,78,-1
 787 453 l 1,79,-1
 832 460 l 1,80,81
 866 456 866 456 879 443 c 0,82,83
 892 431 892 431 892 425 c 2,84,-1
 889 412 l 2,85,86
 885 406 885 406 858 402 c 0,87,88
 808 394 808 394 723 388 c 0,89,90
 641 383 641 383 584 388 c 1,42,43
768 319 m 1,91,92
 796 331 796 331 824 315 c 0,93,94
 856 300 856 300 868 282 c 0,95,96
 883 265 883 265 871 248 c 0,97,98
 860 231 860 231 860 205 c 2,99,-1
 855 118 l 1,100,-1
 855 1 l 2,101,102
 855 -47 855 -47 846 -65 c 0,103,104
 829 -103 829 -103 820 -103 c 0,105,106
 812 -103 812 -103 803 -91 c 2,107,-1
 768 -44 l 1,108,-1
 707 -48 l 1,109,-1
 605 -57 l 2,110,111
 587 -58 587 -58 573 -53 c 1,112,-1
 563 -73 l 2,113,114
 553 -89 553 -89 537 -65 c 0,115,116
 522 -41 522 -41 520 -22 c 2,117,-1
 523 24 l 1,118,-1
 528 120 l 1,119,-1
 526 214 l 1,120,-1
 521 264 l 1,121,-1
 515 283 l 2,122,123
 509 296 509 296 518 300 c 0,124,125
 528 304 528 304 539 300 c 2,126,-1
 559 290 l 1,127,-1
 649 299 l 1,128,-1
 768 319 l 1,91,92
580 -13 m 1,129,-1
 610 -12 l 1,130,-1
 670 -7 l 1,131,-1
 732 1 l 2,132,133
 751 4 751 4 765 -3 c 2,134,-1
 786 -14 l 1,135,136
 794 -9 794 -9 795 -1 c 2,137,-1
 800 43 l 1,138,-1
 800 118 l 1,139,-1
 796 118 l 1,140,-1
 722 113 l 1,141,-1
 624 104 l 2,142,143
 603 100 603 100 588 108 c 2,144,-1
 583 111 l 1,145,-1
 583 104 l 1,146,-1
 580 -13 l 1,129,-1
585 255 m 1,147,-1
 585 239 l 1,148,-1
 583 148 l 1,149,-1
 624 150 l 1,150,-1
 681 156 l 1,151,-1
 740 164 l 2,152,153
 759 168 759 168 775 161 c 2,154,-1
 799 147 l 1,155,-1
 799 173 l 1,156,-1
 796 233 l 2,157,158
 796 258 796 258 787 264 c 0,159,160
 775 274 775 274 688 264 c 2,161,-1
 585 255 l 1,147,-1
EndSplineSet
EndChar
StartChar: u2A736
Encoding: 173878 173878 23
Width: 1024
Flags: W
LayerCount: 2
Back
Fore
SplineSet
236 462 m 0,0,1
 292 546 292 546 310 600 c 0,2,3
 332 659 332 659 332 687 c 1,4,5
 325 710 325 710 342 710 c 0,6,7
 363 708 363 708 387 690 c 0,8,9
 415 669 415 669 418 657 c 0,10,11
 422 644 422 644 412 634 c 2,12,-1
 345 535 l 1,13,-1
 273 435 l 1,14,-1
 277 432 l 1,15,-1
 303 404 l 2,16,17
 315 388 315 388 307 363 c 1,18,-1
 307 -1 l 2,19,20
 307 -46 307 -46 294 -72 c 0,21,22
 281 -97 281 -97 266 -86 c 0,23,24
 251 -73 251 -73 245 -46 c 0,25,26
 240 -21 240 -21 242 -1 c 0,27,28
 258 80 258 80 258 182 c 2,29,-1
 258 318 l 1,30,-1
 248 380 l 1,31,-1
 242 396 l 1,32,33
 184 327 184 327 140 292 c 0,34,35
 113 272 113 272 103 269 c 0,36,37
 98 268 98 268 96 270 c 128,-1,38
 94 272 94 272 95 275 c 2,39,-1
 107 294 l 1,40,41
 185 384 185 384 236 462 c 0,0,1
633 324 m 1,42,-1
 634 332 l 1,43,-1
 622 329 l 2,44,45
 599 325 599 325 574 331 c 0,46,47
 554 338 554 338 540 352 c 0,48,49
 528 367 528 367 550 367 c 2,50,-1
 633 372 l 1,51,-1
 641 374 l 1,52,-1
 644 405 l 1,53,-1
 644 480 l 1,54,-1
 639 496 l 2,55,56
 633 508 633 508 643 511 c 0,57,58
 655 517 655 517 675 506 c 0,59,60
 697 496 697 496 705 483 c 0,61,62
 715 472 715 472 708 459 c 2,63,-1
 702 433 l 1,64,-1
 695 383 l 1,65,-1
 707 385 l 2,66,67
 736 393 736 393 759 385 c 0,68,69
 786 376 786 376 789 367 c 0,70,71
 793 359 793 359 785 352 c 0,72,73
 779 347 779 347 733 343 c 2,74,-1
 688 338 l 1,75,-1
 677 286 l 1,76,-1
 670 265 l 1,77,-1
 727 226 l 2,78,79
 768 194 768 194 781 177 c 0,80,81
 795 160 795 160 795 133 c 0,82,83
 796 103 796 103 787 95 c 0,84,85
 779 89 779 89 768 91 c 0,86,87
 760 96 760 96 748 114 c 0,88,89
 703 188 703 188 662 240 c 1,90,-1
 640 188 l 2,91,92
 618 143 618 143 598 121 c 2,93,-1
 568 90 l 1,94,-1
 547 76 l 2,95,96
 541 75 541 75 541 81 c 2,97,-1
 547 94 l 1,98,99
 564 117 564 117 581 155 c 0,100,101
 599 190 599 190 612 236 c 2,102,-1
 633 324 l 1,42,-1
887 75 m 2,103,104
 891 -19 891 -19 871 -57 c 0,105,106
 852 -97 852 -97 843 -97 c 128,-1,107
 834 -97 834 -97 824 -84 c 2,108,-1
 781 -23 l 1,109,-1
 505 -31 l 1,110,-1
 500 -31 l 1,111,-1
 500 -32 l 1,112,113
 494 -55 494 -55 484 -69 c 0,114,115
 471 -83 471 -83 456 -60 c 0,116,117
 441 -35 441 -35 439 -16 c 0,118,119
 438 2 438 2 443 32 c 0,120,121
 456 111 456 111 459 231 c 0,122,123
 463 343 463 343 460 427 c 2,124,-1
 452 531 l 1,125,-1
 441 571 l 2,126,127
 435 584 435 584 444 588 c 0,128,129
 455 593 455 593 466 588 c 2,130,-1
 490 576 l 1,131,-1
 614 586 l 2,132,133
 723 598 723 598 789 610 c 1,134,135
 818 620 818 620 849 605 c 0,136,137
 883 589 883 589 897 570 c 0,138,139
 912 552 912 552 900 533 c 128,-1,140
 888 514 888 514 888 486 c 2,141,-1
 885 311 l 1,142,-1
 887 75 l 2,103,104
509 253 m 1,143,-1
 504 9 l 1,144,-1
 755 27 l 2,145,146
 789 31 789 31 811 13 c 2,147,-1
 817 9 l 1,148,-1
 817 11 l 1,149,150
 827 43 827 43 828 100 c 2,151,-1
 833 226 l 1,152,-1
 831 365 l 1,153,-1
 828 486 l 2,154,155
 826 535 826 535 809 551 c 0,156,157
 794 566 794 566 664 551 c 0,158,159
 563 538 563 538 513 538 c 1,160,-1
 513 524 l 1,161,162
 509 499 509 499 509 253 c 1,143,-1
EndSplineSet
EndChar
StartChar: u2A737
Encoding: 173879 173879 24
Width: 1024
Flags: W
LayerCount: 2
Back
Fore
SplineSet
208 466 m 0,0,1
 264 550 264 550 282 604 c 0,2,3
 304 663 304 663 304 691 c 1,4,5
 297 714 297 714 314 714 c 0,6,7
 335 712 335 712 359 694 c 0,8,9
 387 673 387 673 390 661 c 0,10,11
 394 648 394 648 384 638 c 2,12,-1
 317 539 l 1,13,-1
 245 439 l 1,14,-1
 249 436 l 1,15,-1
 275 408 l 2,16,17
 287 392 287 392 279 367 c 1,18,-1
 279 -13 l 2,19,20
 279 -58 279 -58 266 -84 c 0,21,22
 253 -109 253 -109 238 -98 c 0,23,24
 223 -85 223 -85 217 -58 c 0,25,26
 212 -33 212 -33 214 -13 c 0,27,28
 230 73 230 73 230 177 c 2,29,-1
 230 318 l 2,30,31
 227 359 227 359 220 382 c 2,32,-1
 214 400 l 1,33,34
 156 331 156 331 112 296 c 0,35,36
 85 276 85 276 75 273 c 0,37,38
 70 272 70 272 68 274 c 128,-1,39
 66 276 66 276 67 279 c 2,40,-1
 79 298 l 1,41,42
 157 388 157 388 208 466 c 0,0,1
666 -58 m 1,43,-1
 662 -101 l 1,44,-1
 650 -125 l 2,45,46
 644 -130 644 -130 636 -128 c 1,47,-1
 622 -109 l 1,48,-1
 608 -73 l 2,49,50
 604 -53 604 -53 607 -29 c 2,51,-1
 611 60 l 1,52,-1
 609 177 l 1,53,-1
 609 191 l 1,54,-1
 474 177 l 2,55,56
 453 174 453 174 436 183 c 1,57,-1
 408 207 l 2,58,59
 394 224 394 224 423 224 c 2,60,-1
 539 230 l 1,61,-1
 607 236 l 1,62,-1
 607 267 l 1,63,-1
 597 326 l 2,64,65
 592 340 592 340 601 345 c 0,66,67
 611 352 611 352 641 335 c 0,68,69
 674 318 674 318 675 309 c 0,70,71
 678 300 678 300 671 282 c 1,72,-1
 667 241 l 1,73,-1
 673 241 l 1,74,-1
 812 259 l 2,75,76
 834 262 834 262 849 255 c 2,77,-1
 878 238 l 2,78,79
 891 229 891 229 890 219 c 0,80,81
 887 208 887 208 869 208 c 2,82,-1
 700 198 l 1,83,-1
 666 196 l 1,84,-1
 666 -58 l 1,43,-1
724 684 m 1,85,-1
 758 692 l 1,86,87
 774 690 774 690 794 673 c 0,88,89
 820 653 820 653 823 639 c 0,90,91
 829 623 829 623 810 612 c 2,92,-1
 784 599 l 1,93,-1
 749 574 l 1,94,-1
 743 562 l 1,95,96
 746 557 746 557 754 557 c 0,97,98
 811 564 811 564 831 557 c 0,99,100
 860 548 860 548 872 527 c 0,101,102
 885 505 885 505 875 490 c 2,103,-1
 856 453 l 1,104,-1
 822 379 l 2,105,106
 812 359 812 359 793 345 c 1,107,108
 763 308 763 308 742 305 c 0,109,110
 719 302 719 302 709 323 c 0,111,112
 687 359 687 359 644 401 c 0,113,114
 628 421 628 421 628 425 c 0,115,116
 629 430 629 430 650 424 c 2,117,-1
 717 403 l 2,118,119
 753 390 753 390 772 418 c 2,120,-1
 793 449 l 2,121,122
 805 470 805 470 806 489 c 0,123,124
 806 516 806 516 799 522 c 0,125,126
 789 529 789 529 776 529 c 2,127,-1
 712 518 l 2,128,129
 695 512 695 512 682 528 c 1,130,131
 672 547 672 547 689 562 c 0,132,133
 706 572 706 572 713 589 c 2,134,-1
 730 619 l 2,135,136
 735 631 735 631 728 636 c 0,137,138
 723 642 723 642 709 642 c 2,139,-1
 616 628 l 1,140,141
 631 614 631 614 634 601 c 0,142,143
 640 585 640 585 629 576 c 1,144,-1
 617 555 l 1,145,-1
 597 510 l 1,146,-1
 557 437 l 2,147,148
 533 397 533 397 501 362 c 0,149,150
 469 329 469 329 447 316 c 2,151,-1
 414 298 l 1,152,-1
 388 290 l 2,153,154
 381 291 381 291 383 297 c 2,155,-1
 438 352 l 2,156,157
 466 384 466 384 484 415 c 2,158,-1
 525 486 l 2,159,160
 546 526 546 526 553 553 c 2,161,-1
 567 597 l 1,162,-1
 572 618 l 1,163,-1
 572 621 l 1,164,-1
 519 614 l 1,165,-1
 483 624 l 2,166,167
 472 630 472 630 466.5 635 c 128,-1,168
 461 640 461 640 462 644 c 0,169,170
 466 652 466 652 481 652 c 2,171,-1
 516 652 l 1,172,-1
 620 665 l 1,173,-1
 724 684 l 1,85,-1
751 104 m 0,174,175
 743 115 743 115 743 127 c 0,176,177
 746 140 746 140 754 135 c 2,178,-1
 817 106 l 2,179,180
 861 83 861 83 872 72 c 0,181,182
 888 54 888 54 893 21 c 0,183,184
 899 -13 899 -13 888 -24 c 0,185,186
 878 -33 878 -33 866 -31 c 0,187,188
 855 -27 855 -27 840 -6 c 0,189,190
 784 68 784 68 751 104 c 0,174,175
483 130 m 2,191,192
 482 141 482 141 491 141 c 0,193,194
 503 141 503 141 516 134 c 0,195,196
 535 127 535 127 543 114 c 0,197,198
 553 101 553 101 553 93 c 0,199,200
 553 83 553 83 547 80 c 2,201,-1
 518 53 l 1,202,-1
 467 6 l 2,203,204
 440 -15 440 -15 414 -26 c 2,205,-1
 372 -42 l 1,206,-1
 351 -45 l 1,207,208
 344 -41 344 -41 350 -38 c 0,209,210
 384 -15 384 -15 411 11 c 2,211,-1
 453 61 l 2,212,213
 471 85 471 85 475 101 c 2,214,-1
 483 130 l 2,191,192
EndSplineSet
EndChar
StartChar: u2A738
Encoding: 173880 173880 25
Width: 1024
Flags: W
LayerCount: 2
Back
Fore
SplineSet
236 458 m 0,0,1
 292 542 292 542 310 596 c 0,2,3
 332 655 332 655 332 683 c 1,4,5
 325 706 325 706 342 706 c 0,6,7
 363 704 363 704 387 686 c 0,8,9
 415 665 415 665 418 653 c 0,10,11
 422 640 422 640 412 630 c 2,12,-1
 345 531 l 1,13,-1
 273 431 l 1,14,-1
 277 428 l 1,15,-1
 303 400 l 2,16,17
 315 384 315 384 307 359 c 1,18,-1
 307 -5 l 2,19,20
 307 -50 307 -50 294 -76 c 0,21,22
 281 -101 281 -101 266 -90 c 0,23,24
 251 -77 251 -77 245 -50 c 0,25,26
 240 -25 240 -25 242 -5 c 0,27,28
 258 76 258 76 258 178 c 2,29,-1
 258 314 l 1,30,-1
 248 376 l 1,31,-1
 242 392 l 1,32,33
 184 323 184 323 140 288 c 0,34,35
 113 268 113 268 103 265 c 0,36,37
 98 264 98 264 96 266 c 128,-1,38
 94 268 94 268 95 271 c 2,39,-1
 107 290 l 1,40,41
 185 380 185 380 236 458 c 0,0,1
472 450 m 2,42,43
 462 422 462 422 446 438 c 0,44,45
 431 458 431 458 425 478 c 0,46,47
 419 501 419 501 425 510 c 2,48,-1
 447 554 l 1,49,-1
 456 587 l 1,50,51
 455 607 455 607 461 613 c 0,52,53
 470 621 470 621 487 596 c 2,54,-1
 493 586 l 1,55,-1
 583 594 l 1,56,-1
 643 603 l 1,57,58
 626 627 626 627 595 697 c 0,59,60
 586 716 586 716 592 722 c 128,-1,61
 598 728 598 728 609 721 c 0,62,63
 646 702 646 702 660 688 c 2,64,-1
 682 665 l 1,65,-1
 686 627 l 1,66,-1
 680 605 l 1,67,-1
 708 607 l 1,68,-1
 816 618 l 1,69,70
 845 630 845 630 882 587 c 128,-1,71
 919 544 919 544 919 535 c 0,72,73
 917 527 917 527 881 524 c 0,74,75
 843 519 843 519 792 496 c 0,76,77
 776 489 776 489 769 492 c 0,78,79
 764 497 764 497 772 509 c 2,80,-1
 794 547 l 1,81,-1
 803 566 l 2,82,83
 803 574 803 574 790 580 c 1,84,-1
 718 573 l 1,85,-1
 617 560 l 1,86,-1
 529 547 l 1,87,-1
 498 547 l 1,88,-1
 489 505 l 1,89,-1
 472 450 l 2,42,43
637 267 m 1,90,-1
 634 281 l 2,91,92
 624 324 624 324 613 338 c 0,93,94
 601 355 601 355 607 359 c 0,95,96
 614 365 614 365 632 358 c 2,97,-1
 656 348 l 1,98,-1
 690 415 l 2,99,100
 700 429 700 429 687 441 c 0,101,102
 674 451 674 451 658 448 c 2,103,-1
 587 416 l 1,104,105
 552 408 552 408 529 419 c 0,106,107
 508 432 508 432 505 447 c 0,108,109
 504 462 504 462 518 462 c 0,110,111
 538 461 538 461 594 470 c 2,112,-1
 686 490 l 2,113,114
 710 498 710 498 748 475 c 0,115,116
 791 451 791 451 792 436 c 0,117,118
 795 418 795 418 778 415 c 1,119,120
 754 403 754 403 724 379 c 2,121,-1
 672 338 l 1,122,-1
 673 338 l 1,123,124
 696 324 696 324 696 302 c 2,125,-1
 696 273 l 1,126,-1
 857 294 l 2,127,128
 882 300 882 300 900 290 c 2,129,-1
 937 265 l 2,130,131
 954 249 954 249 950 240 c 0,132,133
 945 232 945 232 926 232 c 2,134,-1
 820 232 l 1,135,-1
 700 228 l 1,136,-1
 702 137 l 2,137,138
 702 39 702 39 698 7 c 0,139,140
 692 -32 692 -32 683 -53 c 0,141,142
 673 -76 673 -76 659 -93 c 0,143,144
 642 -110 642 -110 634 -110 c 0,145,146
 628 -111 628 -111 604 -90 c 0,147,148
 580 -66 580 -66 522 -27 c 0,149,150
 510 -18 510 -18 510 -13 c 0,151,152
 511 -7 511 -7 523 -7 c 2,153,-1
 584 -12 l 2,154,155
 614 -12 614 -12 624 -8 c 0,156,157
 633 -2 633 -2 637 5 c 0,158,159
 646 16 646 16 648 51 c 2,160,-1
 648 163 l 1,161,-1
 642 223 l 1,162,163
 551 214 551 214 476 199 c 0,164,165
 460 197 460 197 437 202 c 1,166,167
 417 211 417 211 402 226 c 0,168,169
 389 245 389 245 410 245 c 2,170,-1
 637 267 l 1,90,-1
EndSplineSet
EndChar
StartChar: u2A739
Encoding: 173881 173881 26
Width: 1024
Flags: W
LayerCount: 2
Back
Fore
SplineSet
235 462 m 0,0,1
 287 554 287 554 302 609 c 0,2,3
 318 669 318 669 318 699 c 1,4,5
 307 722 307 722 326 722 c 0,6,7
 345 723 345 723 371 705 c 0,8,9
 400 687 400 687 403 675 c 0,10,11
 410 663 410 663 400 653 c 2,12,-1
 338 546 l 1,13,-1
 273 441 l 1,14,-1
 285 432 l 1,15,-1
 311 404 l 2,16,17
 323 388 323 388 315 363 c 1,18,-1
 315 3 l 2,19,20
 315 -42 315 -42 302 -68 c 0,21,22
 289 -93 289 -93 274 -82 c 0,23,24
 259 -69 259 -69 253 -42 c 0,25,26
 248 -17 248 -17 250 3 c 0,27,28
 267 86 267 86 265 184 c 2,29,-1
 265 319 l 1,30,-1
 256 380 l 1,31,-1
 248 406 l 1,32,-1
 242 396 l 1,33,34
 187 321 187 321 145 282 c 0,35,36
 122 260 122 260 111 257 c 0,37,38
 105 256 105 256 103 257.5 c 128,-1,39
 101 259 101 259 102 262 c 2,40,-1
 113 281 l 1,41,42
 186 378 186 378 235 462 c 0,0,1
643 24 m 0,43,44
 644 -7 644 -7 631 -34 c 2,45,-1
 608 -73 l 2,46,47
 598 -83 598 -83 589 -81 c 0,48,49
 581 -78 581 -78 561 -59 c 0,50,51
 531 -24 531 -24 477 19 c 1,52,53
 477 26 477 26 495 23 c 2,54,-1
 544 14 l 2,55,56
 565 10 565 10 570 18 c 0,57,58
 577 27 577 27 579 53 c 0,59,60
 587 149 587 149 587 257 c 1,61,-1
 566 228 l 2,62,63
 546 198 546 198 514 163 c 2,64,-1
 458 108 l 1,65,66
 427 85 427 85 396 67 c 1,67,-1
 383 63 l 2,68,69
 377 64 377 64 377 68 c 0,70,71
 377 75 377 75 383 77 c 0,72,73
 434 126 434 126 462 161 c 2,74,-1
 510 227 l 1,75,-1
 534 277 l 1,76,-1
 541 309 l 1,77,-1
 539 319 l 1,78,79
 543 332 543 332 551 332 c 0,80,81
 562 332 562 332 573 323 c 2,82,-1
 588 306 l 1,83,-1
 588 392 l 1,84,-1
 584 480 l 1,85,-1
 559 446 l 1,86,-1
 514 389 l 1,87,-1
 465 342 l 1,88,-1
 412 308 l 1,89,-1
 398 303 l 2,90,91
 393 303 393 303 393 307 c 0,92,93
 393 315 393 315 399 317 c 0,94,95
 440 358 440 358 465 392 c 2,96,-1
 504 450 l 1,97,-1
 523 494 l 1,98,-1
 529 522 l 1,99,-1
 527 531 l 1,100,101
 531 544 531 544 539 544 c 0,102,103
 550 544 550 544 561 535 c 2,104,-1
 582 512 l 1,105,-1
 575 574 l 2,106,107
 571 585 571 585 550 585 c 2,108,-1
 471 574 l 2,109,110
 449 573 449 573 430 577 c 0,111,112
 416 584 416 584 409 593 c 0,113,114
 402 603 402 603 416 603 c 2,115,-1
 506 617 l 1,116,-1
 565 629 l 2,117,118
 582 635 582 635 604 622 c 0,119,120
 630 608 630 608 643 594 c 0,121,122
 658 578 658 578 648 559 c 0,123,124
 636 540 636 540 636 482 c 0,125,126
 636 227 636 227 643 24 c 0,43,44
906 19 m 0,127,128
 906 -15 906 -15 893 -42 c 2,129,-1
 869 -83 l 2,130,131
 859 -94 859 -94 849 -91 c 2,132,-1
 820 -68 l 1,133,134
 787 -30 787 -30 736 11 c 1,135,136
 737 20 737 20 755 15 c 2,137,-1
 802 8 l 2,138,139
 823 4 823 4 828 12 c 0,140,141
 837 24 837 24 838 50 c 0,142,143
 846 155 846 155 846 274 c 1,144,-1
 832 249 l 2,145,146
 816 219 816 219 789 184 c 0,147,148
 764 150 764 150 741 128 c 2,149,-1
 687 85 l 1,150,-1
 674 79 l 2,151,152
 668 79 668 79 668 83 c 2,153,-1
 673 93 l 1,154,155
 712 138 712 138 739 179 c 2,156,-1
 777 245 l 1,157,-1
 794 295 l 1,158,-1
 798 325 l 1,159,-1
 795 334 l 1,160,161
 798 348 798 348 806 348 c 0,162,163
 817 351 817 351 829 341 c 2,164,-1
 846 325 l 1,165,-1
 846 403 l 1,166,-1
 841 502 l 1,167,-1
 818 465 l 1,168,-1
 777 406 l 1,169,-1
 733 355 l 2,170,171
 714 336 714 336 683 317 c 1,172,-1
 670 311 l 2,173,174
 664 311 664 311 664 315 c 2,175,-1
 669 325 l 1,176,177
 708 370 708 370 729 404 c 0,178,179
 757 449 757 449 763 465 c 2,180,-1
 778 510 l 1,181,-1
 782 538 l 1,182,-1
 779 546 l 1,183,184
 782 560 782 560 790 560 c 0,185,186
 801 563 801 563 813 553 c 2,187,-1
 838 529 l 1,188,-1
 840 527 l 1,189,-1
 833 593 l 2,190,191
 830 605 830 605 806 605 c 1,192,-1
 746 594 l 2,193,194
 722 591 722 591 703 597 c 0,195,196
 690 603 690 603 680 613 c 0,197,198
 673 624 673 624 688 624 c 2,199,-1
 769 638 l 1,200,-1
 822 651 l 2,201,202
 839 658 839 658 863 644 c 0,203,204
 891 628 891 628 904 614 c 0,205,206
 920 597 920 597 909 577 c 0,207,208
 897 556 897 556 897 496 c 0,209,210
 897 237 897 237 906 19 c 0,127,128
EndSplineSet
EndChar
StartChar: u2A73B
Encoding: 173883 173883 27
Width: 1024
Flags: W
LayerCount: 2
Back
Fore
SplineSet
688 274 m 2,0,1
 686 313 686 313 678 330 c 2,2,-1
 675 340 l 1,3,-1
 630 335 l 1,4,-1
 600 332 l 1,5,-1
 613 320 l 2,6,7
 622 308 622 308 616 295 c 2,8,-1
 611 269 l 1,9,-1
 604 215 l 1,10,-1
 587 125 l 1,11,12
 572 71 572 71 551 27 c 0,13,14
 529 -17 529 -17 510 -39 c 2,15,-1
 480 -69 l 2,16,17
 466 -82 466 -82 459 -84 c 0,18,19
 453 -85 453 -85 453 -79 c 2,20,-1
 459 -66 l 1,21,-1
 492 -5 l 2,22,23
 511 31 511 31 522 75 c 2,24,-1
 543 162 l 2,25,26
 552 201 552 201 552 242 c 2,27,-1
 554 293 l 1,28,-1
 552 316 l 1,29,-1
 550 325 l 1,30,-1
 478 313 l 2,31,32
 465 311 465 311 443 316 c 0,33,34
 425 323 425 323 410 338 c 0,35,36
 397 355 397 355 418 355 c 2,37,-1
 622 375 l 1,38,-1
 622 483 l 1,39,-1
 584 478 l 2,40,41
 557 477 557 477 532 482 c 0,42,43
 512 488 512 488 497 504 c 0,44,45
 484 520 484 520 508 520 c 2,46,-1
 622 527 l 1,47,-1
 622 623 l 1,48,-1
 617 660 l 1,49,-1
 609 682 l 1,50,51
 610 692 610 692 619 697 c 0,52,53
 630 703 630 703 644 695 c 2,54,-1
 678 671 l 2,55,56
 696 656 696 656 690 634 c 2,57,-1
 683 560 l 1,58,-1
 681 534 l 1,59,-1
 731 543 l 2,60,61
 759 552 759 552 786 542 c 0,62,63
 815 531 815 531 816 523 c 0,64,65
 822 513 822 513 812 506 c 0,66,67
 803 501 803 501 739 495 c 2,68,-1
 678 489 l 1,69,-1
 672 381 l 1,70,-1
 824 400 l 2,71,72
 848 404 848 404 863 397 c 0,73,74
 882 390 882 390 898 374 c 0,75,76
 915 360 915 360 910 351 c 0,77,78
 905 343 905 343 888 343 c 2,79,-1
 727 343 l 1,80,-1
 742 328 l 2,81,82
 747 319 747 319 744 292 c 2,83,-1
 738 128 l 1,84,-1
 741 2 l 2,85,86
 742 -39 742 -39 730 -70 c 0,87,88
 718 -102 718 -102 706 -117 c 0,89,90
 693 -130 693 -130 684 -121 c 0,91,92
 645 -79 645 -79 594 -36 c 0,93,94
 585 -26 585 -26 585 -21 c 0,95,96
 586 -14 586 -14 596 -17 c 2,97,-1
 640 -29 l 2,98,99
 666 -36 666 -36 675 -29 c 0,100,101
 686 -21 686 -21 686 9 c 2,102,-1
 688 274 l 2,0,1
442 203 m 2,103,104
 439 213 439 213 446 216 c 2,105,-1
 469 216 l 1,106,-1
 497 205 l 1,107,-1
 511 190 l 2,108,109
 514 183 514 183 509 178 c 2,110,-1
 494 152 l 1,111,-1
 465 106 l 1,112,-1
 433 71 l 1,113,-1
 405 51 l 1,114,-1
 390 44 l 2,115,116
 386 43 386 43 385 45 c 128,-1,117
 384 47 384 47 387 49 c 0,118,119
 409 75 409 75 419 99 c 2,120,-1
 437 146 l 2,121,122
 444 166 444 166 442 180 c 2,123,-1
 442 203 l 2,103,104
795 202 m 0,124,125
 791 214 791 214 793 223 c 0,126,127
 799 234 799 234 805 228 c 2,128,-1
 857 184 l 2,129,130
 894 151 894 151 901 137 c 0,131,132
 911 119 911 119 909 88 c 0,133,134
 906 57 906 57 896 51 c 0,135,136
 885 44 885 44 875 49 c 0,137,138
 866 56 866 56 858 76 c 0,139,140
 825 151 825 151 795 202 c 0,124,125
256 470 m 0,141,142
 312 554 312 554 330 608 c 0,143,144
 352 667 352 667 352 695 c 1,145,146
 345 718 345 718 362 718 c 0,147,148
 383 716 383 716 407 698 c 0,149,150
 435 677 435 677 438 665 c 0,151,152
 442 652 442 652 432 642 c 2,153,-1
 365 543 l 1,154,-1
 293 443 l 1,155,-1
 297 440 l 1,156,-1
 323 412 l 2,157,158
 335 396 335 396 327 371 c 1,159,-1
 327 -21 l 2,160,161
 327 -66 327 -66 314 -92 c 0,162,163
 301 -117 301 -117 286 -106 c 0,164,165
 271 -93 271 -93 265 -66 c 0,166,167
 260 -41 260 -41 262 -21 c 0,168,169
 279 64 279 64 279 174 c 2,170,-1
 279 319 l 1,171,-1
 269 385 l 1,172,-1
 262 404 l 1,173,174
 204 335 204 335 160 300 c 0,175,176
 133 280 133 280 123 277 c 0,177,178
 118 276 118 276 116 278 c 128,-1,179
 114 280 114 280 115 283 c 2,180,-1
 127 302 l 1,181,182
 205 392 205 392 256 470 c 0,141,142
EndSplineSet
EndChar
StartChar: u2A73C
Encoding: 173884 173884 28
Width: 1024
Flags: W
LayerCount: 2
Back
Fore
SplineSet
705 442 m 1,0,-1
 693 442 l 1,1,-1
 693 391 l 1,2,-1
 689 350 l 1,3,-1
 677 327 l 2,4,5
 671 322 671 322 664 324 c 1,6,-1
 651 343 l 1,7,-1
 637 377 l 2,8,9
 633 394 633 394 638 419 c 1,10,-1
 638 438 l 1,11,12
 547 429 547 429 501 421 c 2,13,-1
 463 411 l 2,14,15
 447 405 447 405 434 426 c 0,16,17
 422 448 422 448 434 458 c 1,18,-1
 455 503 l 1,19,-1
 475 562 l 1,20,-1
 475 574 l 1,21,-1
 469 580 l 2,22,23
 456 596 456 596 481 596 c 2,24,-1
 619 601 l 1,25,-1
 637 603 l 1,26,-1
 635 646 l 1,27,-1
 627 691 l 2,28,29
 623 704 623 704 631 709 c 0,30,31
 640 716 640 716 670 700 c 0,32,33
 700 683 700 683 702 674 c 0,34,35
 705 665 705 665 698 648 c 1,36,-1
 694 610 l 1,37,-1
 743 617 l 2,38,39
 773 624 773 624 798 615 c 0,40,41
 826 605 826 605 828 595 c 0,42,43
 833 584 833 584 823 578 c 0,44,45
 813 573 813 573 738 567 c 2,46,-1
 692 565 l 1,47,-1
 692 491 l 1,48,-1
 829 501 l 2,49,50
 848 502 848 502 877 484 c 0,51,52
 908 465 908 465 908 455 c 128,-1,53
 908 445 908 445 902 439 c 0,54,55
 897 435 897 435 869 438 c 0,56,57
 825 447 825 447 705 442 c 1,0,-1
638 485 m 1,58,-1
 638 560 l 1,59,-1
 555 552 l 1,60,-1
 535 552 l 1,61,62
 538 542 538 542 530 533 c 0,63,64
 516 516 516 516 496 467 c 1,65,-1
 499 464 l 1,66,-1
 638 485 l 1,58,-1
647 84 m 1,67,-1
 647 166 l 1,68,-1
 612 160 l 2,69,70
 586 156 586 156 560 162 c 1,71,-1
 531 179 l 1,72,-1
 503 153 l 2,73,74
 480 133 480 133 462 124 c 0,75,76
 440 108 440 108 431 108 c 0,77,78
 422 107 422 107 424 113 c 2,79,-1
 435 127 l 2,80,81
 466 163 466 163 482 190 c 0,82,83
 504 222 504 222 509 241 c 2,84,-1
 517 273 l 1,85,86
 511 290 511 290 526 290 c 0,87,88
 544 288 544 288 560 271 c 0,89,90
 582 252 582 252 582 243 c 0,91,92
 585 231 585 231 577 225 c 2,93,-1
 553 202 l 1,94,-1
 643 209 l 1,95,-1
 645 209 l 1,96,-1
 645 217 l 1,97,-1
 639 275 l 1,98,-1
 632 290 l 2,99,100
 625 300 625 300 637 307 c 0,101,102
 649 315 649 315 661 312 c 2,103,-1
 695 294 l 2,104,105
 716 279 716 279 713 263 c 2,106,-1
 708 236 l 1,107,-1
 706 218 l 1,108,-1
 738 225 l 2,109,110
 767 235 767 235 793 225 c 0,111,112
 822 216 822 216 825 207 c 0,113,114
 830 196 830 196 820 190 c 0,115,116
 813 185 813 185 754 179 c 2,117,-1
 704 174 l 1,118,-1
 704 170 l 1,119,-1
 701 90 l 1,120,-1
 865 110 l 2,121,122
 890 116 890 116 908 106 c 2,123,-1
 945 81 l 2,124,125
 962 65 962 65 958 56 c 0,126,127
 952 47 952 47 934 47 c 2,128,-1
 823 49 l 1,129,-1
 700 45 l 1,130,-1
 696 -71 l 1,131,-1
 688 -117 l 2,132,133
 681 -136 681 -136 674 -136 c 0,134,135
 668 -136 668 -136 660 -115 c 2,136,-1
 651 -83 l 1,137,-1
 648 42 l 1,138,-1
 636 40 l 1,139,140
 547 30 547 30 459 14 c 0,141,142
 444 13 444 13 421 18 c 1,143,144
 401 27 401 27 386 42 c 0,145,146
 373 61 373 61 394 61 c 2,147,-1
 647 84 l 1,67,-1
248 466 m 0,148,149
 304 550 304 550 322 604 c 0,150,151
 344 663 344 663 344 691 c 1,152,153
 337 714 337 714 354 714 c 0,154,155
 375 712 375 712 399 694 c 0,156,157
 427 673 427 673 430 661 c 0,158,159
 434 648 434 648 424 638 c 2,160,-1
 357 539 l 1,161,-1
 285 439 l 1,162,-1
 289 436 l 1,163,-1
 315 408 l 2,164,165
 327 392 327 392 319 367 c 1,166,-1
 319 -25 l 2,167,168
 319 -70 319 -70 306 -96 c 0,169,170
 293 -121 293 -121 278 -110 c 0,171,172
 263 -97 263 -97 257 -70 c 0,173,174
 252 -45 252 -45 254 -25 c 0,175,176
 271 60 271 60 271 170 c 2,177,-1
 271 315 l 1,178,-1
 261 381 l 1,179,-1
 254 400 l 1,180,181
 196 331 196 331 152 296 c 0,182,183
 125 276 125 276 115 273 c 0,184,185
 110 272 110 272 108 274 c 128,-1,186
 106 276 106 276 107 279 c 2,187,-1
 119 298 l 1,188,189
 197 388 197 388 248 466 c 0,148,149
EndSplineSet
EndChar
StartChar: u2A740
Encoding: 173888 173888 29
Width: 1024
Flags: W
LayerCount: 2
Back
Fore
SplineSet
872 9 m 2,0,1
 876 -48 876 -48 864 -83 c 0,2,3
 850 -118 850 -118 839 -121 c 0,4,5
 827 -124 827 -124 808 -106 c 0,6,7
 768 -70 768 -70 699 -32 c 0,8,9
 686 -25 686 -25 686 -18 c 0,10,11
 685 -14 685 -14 688.5 -13 c 128,-1,12
 692 -12 692 -12 699 -14 c 0,13,14
 777 -30 777 -30 796 -20 c 0,15,16
 809 -13 809 -13 812 98 c 2,17,-1
 814 160 l 1,18,-1
 616 145 l 2,19,20
 551 139 551 139 521 145 c 1,21,-1
 501 62 l 1,22,23
 481 0 481 0 461 -29 c 2,24,-1
 429 -74 l 1,25,-1
 410 -91 l 2,26,27
 404 -92 404 -92 404 -87 c 2,28,-1
 408 -73 l 1,29,30
 428 -37 428 -37 441 8 c 0,31,32
 460 60 460 60 467 113 c 0,33,34
 479 180 479 180 480 227 c 0,35,36
 484 282 484 282 481 329 c 2,37,-1
 475 394 l 1,38,-1
 470 423 l 1,39,-1
 461 442 l 2,40,41
 454 452 454 452 463 458 c 0,42,43
 474 465 474 465 495 457 c 2,44,-1
 519 446 l 1,45,-1
 642 463 l 1,46,-1
 652 475 l 1,47,-1
 687 531 l 2,48,49
 708 568 708 568 704 570 c 0,50,51
 700 574 700 574 652 563 c 2,52,-1
 590 554 l 1,53,-1
 575 558 l 1,54,-1
 546 530 l 2,55,56
 512 500 512 500 486 485 c 0,57,58
 460 468 460 468 451 468 c 128,-1,59
 442 468 442 468 444 474 c 2,60,-1
 457 489 l 2,61,62
 506 543 506 543 530 576 c 0,63,64
 564 622 564 622 573 648 c 0,65,66
 587 677 587 677 587 694 c 0,67,68
 583 713 583 713 598 713 c 0,69,70
 617 710 617 710 636 691 c 0,71,72
 658 672 658 672 660 659 c 0,73,74
 663 647 663 647 653 639 c 2,75,-1
 610 594 l 1,76,-1
 604 588 l 1,77,-1
 655 600 l 1,78,-1
 724 622 l 1,79,80
 740 632 740 632 767 616 c 0,81,82
 800 599 800 599 809 587 c 0,83,84
 822 573 822 573 802 562 c 0,85,86
 769 545 769 545 714 496 c 2,87,-1
 682 469 l 1,88,-1
 789 490 l 1,89,90
 814 506 814 506 841 484 c 0,91,92
 871 460 871 460 876 449 c 0,93,94
 883 436 883 436 874 416 c 0,95,96
 864 397 864 397 864 360 c 2,97,-1
 872 9 l 2,0,1
701 292 m 1,98,-1
 695 201 l 1,99,-1
 718 204 l 2,100,101
 770 213 770 213 797 208 c 2,102,-1
 814 203 l 1,103,-1
 814 303 l 1,104,-1
 806 301 l 1,105,-1
 701 292 l 1,98,-1
647 287 m 1,106,-1
 619 283 l 2,107,108
 563 279 563 279 534 281 c 1,109,-1
 529 193 l 1,110,-1
 526 175 l 1,111,-1
 647 193 l 1,112,-1
 647 287 l 1,106,-1
647 381 m 1,113,-1
 643 410 l 1,114,-1
 638 423 l 1,115,-1
 559 409 l 1,116,-1
 532 409 l 1,117,-1
 532 381 l 1,118,-1
 534 311 l 1,119,-1
 534 310 l 1,120,-1
 647 330 l 1,121,-1
 647 381 l 1,113,-1
705 341 m 1,122,-1
 707 341 l 1,123,124
 754 351 754 351 783 346 c 0,125,126
 802 345 802 345 813 332 c 1,127,128
 808 432 808 432 798 436 c 0,129,130
 781 447 781 447 763 445 c 2,131,-1
 683 431 l 1,132,-1
 699 418 l 2,133,134
 715 402 715 402 711 383 c 2,135,-1
 705 341 l 1,122,-1
264 466 m 0,136,137
 320 550 320 550 338 604 c 0,138,139
 360 663 360 663 360 691 c 1,140,141
 353 714 353 714 370 714 c 0,142,143
 391 712 391 712 415 694 c 0,144,145
 443 673 443 673 446 661 c 0,146,147
 450 648 450 648 440 638 c 2,148,-1
 373 539 l 1,149,-1
 301 439 l 1,150,-1
 305 436 l 1,151,-1
 331 408 l 2,152,153
 343 392 343 392 335 367 c 1,154,-1
 335 -25 l 2,155,156
 335 -70 335 -70 322 -96 c 0,157,158
 309 -121 309 -121 294 -110 c 0,159,160
 279 -97 279 -97 273 -70 c 0,161,162
 268 -45 268 -45 270 -25 c 0,163,164
 287 60 287 60 287 170 c 2,165,-1
 287 315 l 1,166,-1
 277 381 l 1,167,-1
 270 400 l 1,168,169
 212 331 212 331 168 296 c 0,170,171
 141 276 141 276 131 273 c 0,172,173
 126 272 126 272 124 274 c 128,-1,174
 122 276 122 276 123 279 c 2,175,-1
 135 298 l 1,176,177
 213 388 213 388 264 466 c 0,136,137
EndSplineSet
EndChar
StartChar: u2A742
Encoding: 173890 173890 30
Width: 1024
Flags: W
LayerCount: 2
Back
Fore
SplineSet
555 653 m 0,0,1
 548 672 548 672 551 677 c 0,2,3
 558 684 558 684 569 677 c 0,4,5
 613 652 613 652 628 637 c 2,6,-1
 653 610 l 2,7,8
 658 600 658 600 658 571 c 1,9,-1
 653 550 l 1,10,-1
 664 550 l 1,11,-1
 788 566 l 2,12,13
 809 569 809 569 823 562 c 2,14,-1
 851 547 l 2,15,16
 865 538 865 538 862 529 c 0,17,18
 859 518 859 518 843 518 c 2,19,-1
 690 508 l 1,20,-1
 487 490 l 2,21,22
 465 489 465 489 451 495 c 1,23,-1
 424 519 l 2,24,25
 411 535 411 535 439 535 c 2,26,-1
 543 540 l 1,27,-1
 615 547 l 1,28,29
 594 574 594 574 555 653 c 0,0,1
427 -32 m 2,30,-1
 643 -16 l 1,31,-1
 810 0 l 2,32,33
 835 4 835 4 852 -5 c 2,34,-1
 889 -30 l 2,35,36
 908 -46 908 -46 901 -56 c 0,37,38
 895 -64 895 -64 877 -64 c 2,39,-1
 787 -60 l 2,40,41
 722 -56 722 -56 635 -63 c 2,42,-1
 491 -79 l 2,43,44
 476 -80 476 -80 453 -75 c 0,45,46
 433 -67 433 -67 418 -49 c 0,47,48
 404 -32 404 -32 427 -32 c 2,30,-1
758 87 m 0,49,50
 747 70 747 70 738 69 c 0,51,52
 728 66 728 66 720 81 c 2,53,-1
 716 94 l 1,54,-1
 658 92 l 1,55,-1
 573 87 l 2,56,57
 556 86 556 86 544 91 c 1,58,-1
 538 64 l 1,59,60
 523 63 523 63 514 72 c 0,61,62
 495 105 495 105 493 197 c 0,63,64
 492 292 492 292 469 386 c 1,65,66
 457 402 457 402 464 406 c 0,67,68
 474 410 474 410 494 404 c 2,69,-1
 500 402 l 1,70,-1
 572 409 l 1,71,-1
 663 421 l 1,72,-1
 727 431 l 1,73,74
 743 441 743 441 770 433 c 0,75,76
 798 424 798 424 818 409 c 0,77,78
 838 393 838 393 822 372 c 0,79,80
 805 349 805 349 795 319 c 1,81,82
 778 129 778 129 758 87 c 0,49,50
734 237 m 1,83,-1
 698 232 l 1,84,-1
 608 223 l 2,85,86
 582 220 582 220 556 226 c 1,87,-1
 540 233 l 1,88,-1
 542 215 l 1,89,-1
 546 129 l 1,90,-1
 573 129 l 1,91,-1
 622 132 l 1,92,-1
 672 138 l 2,93,94
 693 139 693 139 704 133 c 2,95,-1
 719 125 l 1,96,-1
 734 237 l 1,83,-1
533 368 m 1,97,-1
 529 368 l 1,98,-1
 536 265 l 1,99,-1
 599 267 l 1,100,-1
 659 275 l 1,101,102
 688 284 688 284 713 274 c 2,103,-1
 737 263 l 1,104,-1
 737 266 l 1,105,106
 746 378 746 378 730 380 c 1,107,108
 725 385 725 385 655 379 c 2,109,-1
 533 368 l 1,97,-1
252 466 m 0,110,111
 308 550 308 550 326 604 c 0,112,113
 348 663 348 663 348 691 c 1,114,115
 341 714 341 714 358 714 c 0,116,117
 379 712 379 712 403 694 c 0,118,119
 431 673 431 673 434 661 c 0,120,121
 438 648 438 648 428 638 c 2,122,-1
 361 539 l 1,123,-1
 289 439 l 1,124,-1
 293 436 l 1,125,-1
 319 408 l 2,126,127
 331 392 331 392 323 367 c 1,128,-1
 323 -25 l 2,129,130
 323 -70 323 -70 310 -96 c 0,131,132
 297 -121 297 -121 282 -110 c 0,133,134
 267 -97 267 -97 261 -70 c 0,135,136
 256 -45 256 -45 258 -25 c 0,137,138
 275 60 275 60 275 170 c 2,139,-1
 275 315 l 1,140,-1
 265 381 l 1,141,-1
 258 400 l 1,142,143
 200 331 200 331 156 296 c 0,144,145
 129 276 129 276 119 273 c 0,146,147
 114 272 114 272 112 274 c 128,-1,148
 110 276 110 276 111 279 c 2,149,-1
 123 298 l 1,150,151
 201 388 201 388 252 466 c 0,110,111
EndSplineSet
EndChar
StartChar: u2A743
Encoding: 173891 173891 31
Width: 1024
Flags: W
LayerCount: 2
Back
Fore
SplineSet
211 497 m 0,0,1
 249 552 249 552 267 588 c 0,2,3
 285 622 285 622 294 656 c 0,4,5
 305 692 305 692 301 698 c 2,6,-1
 297 711 l 1,7,8
 298 725 298 725 311 727 c 0,9,10
 325 729 325 729 337 719 c 2,11,-1
 367 689 l 1,12,13
 380 670 380 670 370 657 c 2,14,-1
 352 631 l 1,15,16
 403 616 403 616 427 600 c 2,17,-1
 469 570 l 2,18,19
 477 562 477 562 483 537 c 128,-1,20
 489 512 489 512 477 505 c 128,-1,21
 465 498 465 498 453 505 c 0,22,23
 415 528 415 528 335 604 c 1,24,-1
 335 600 l 1,25,26
 314 561 314 561 274 508 c 1,27,-1
 207 430 l 2,28,29
 177 400 177 400 130 370 c 1,30,-1
 115 364 l 2,31,32
 108 364 108 364 108 369 c 0,33,34
 108 376 108 376 114 380 c 0,35,36
 171 439 171 439 211 497 c 0,0,1
205 237 m 2,37,38
 181 235 181 235 171 241 c 2,39,-1
 144 262 l 1,40,41
 132 277 132 277 158 278 c 2,42,-1
 241 285 l 1,43,-1
 313 293 l 1,44,-1
 313 333 l 2,45,46
 313 369 313 369 302 389 c 1,47,-1
 299 399 l 1,48,-1
 258 399 l 1,49,50
 237 405 237 405 224 420 c 0,51,52
 210 435 210 435 234 435 c 2,53,-1
 304 440 l 1,54,-1
 367 451 l 2,55,56
 397 459 397 459 419 452 c 0,57,58
 445 444 445 444 449 435 c 0,59,60
 452 427 452 427 445 420 c 1,61,-1
 401 412 l 1,62,-1
 348 405 l 1,63,-1
 366 388 l 2,64,65
 373 376 373 376 369 353 c 2,66,-1
 366 300 l 1,67,-1
 436 311 l 2,68,69
 458 314 458 314 469 308 c 2,70,-1
 496 294 l 2,71,72
 508 288 508 288 507 278 c 0,73,74
 505 267 505 267 489 267 c 2,75,-1
 367 256 l 1,76,-1
 366 256 l 1,77,-1
 366 175 l 1,78,-1
 372 39 l 2,79,80
 374 -5 374 -5 364 -34 c 2,81,-1
 341 -81 l 1,82,83
 329 -96 329 -96 319 -86 c 0,84,85
 284 -52 284 -52 232 -11 c 0,86,87
 221 -3 221 -3 221 3 c 0,88,89
 221 12 221 12 232 8 c 2,90,-1
 269 2 l 2,91,92
 297 -4 297 -4 306 4 c 0,93,94
 316 14 316 14 316 45 c 2,95,-1
 314 251 l 1,96,-1
 205 237 l 2,37,38
199 178 m 2,97,98
 199 188 199 188 204 189 c 2,99,-1
 226 186 l 2,100,101
 242 183 242 183 251 173 c 2,102,-1
 263 156 l 1,103,104
 263 148 263 148 259 144 c 2,105,-1
 241 123 l 1,106,-1
 208 85 l 1,107,-1
 174 58 l 1,108,-1
 145 43 l 1,109,-1
 130 39 l 2,110,111
 123 41 123 41 129 45 c 2,112,-1
 164 86 l 1,113,-1
 187 126 l 1,114,-1
 197 157 l 1,115,-1
 199 178 l 2,97,98
425 195 m 0,116,117
 461 174 461 174 474 158 c 2,118,-1
 494 133 l 1,119,120
 500 119 500 119 496 98 c 0,121,122
 495 74 495 74 478 69 c 0,123,124
 465 68 465 68 455 79 c 0,125,126
 441 100 441 100 411 175 c 0,127,128
 406 193 406 193 409 197 c 0,129,130
 415 202 415 202 425 195 c 0,116,117
716 151 m 1,131,-1
 745 112 l 1,132,-1
 809 41 l 1,133,-1
 861 -4 l 1,134,-1
 912 -38 l 2,135,136
 924 -45 924 -45 929.5 -50 c 128,-1,137
 935 -55 935 -55 934 -59 c 0,138,139
 934 -69 934 -69 900 -73 c 0,140,141
 851 -75 851 -75 806 -73 c 0,142,143
 775 -70 775 -70 729 6 c 1,144,-1
 682 93 l 1,145,146
 658 57 658 57 633 32 c 0,147,148
 578 -24 578 -24 480 -73 c 0,149,150
 457 -87 457 -87 449 -84 c 0,151,152
 441 -82 441 -82 456 -70 c 0,153,154
 568 18 568 18 624 100 c 1,155,-1
 655 151 l 1,156,-1
 623 221 l 2,157,158
 563 360 563 360 532 388 c 0,159,160
 524 396 524 396 531 402 c 0,161,162
 540 409 540 409 565 402 c 0,163,164
 583 397 583 397 642 280 c 2,165,-1
 682 206 l 1,166,-1
 709 277 l 1,167,168
 739 377 739 377 756 503 c 0,169,170
 760 528 760 528 741 534 c 1,171,172
 719 526 719 526 648 512 c 2,173,-1
 561 494 l 1,174,175
 547 496 547 496 529 508 c 0,176,177
 510 522 510 522 513 531 c 0,178,179
 517 541 517 541 538 541 c 0,180,181
 604 544 604 544 659 554 c 2,182,-1
 747 573 l 1,183,184
 783 589 783 589 805 582 c 0,185,186
 830 575 830 575 845 561 c 0,187,188
 861 547 861 547 844 524 c 128,-1,189
 827 501 827 501 817 456 c 0,190,191
 789 312 789 312 739 199 c 2,192,-1
 716 151 l 1,131,-1
673 437 m 1,193,-1
 693 421 l 2,194,195
 699 415 699 415 701 385 c 0,196,197
 701 357 701 357 688 353 c 0,198,199
 672 348 672 348 663 359 c 0,200,201
 645 381 645 381 617 433 c 0,202,203
 607 451 607 451 611 456 c 0,204,205
 616 461 616 461 628 457 c 2,206,-1
 673 437 l 1,193,-1
EndSplineSet
EndChar
StartChar: u2A744
Encoding: 173892 173892 32
Width: 1024
Flags: W
LayerCount: 2
Back
Fore
SplineSet
577 593 m 1,0,-1
 605 666 l 1,1,2
 605 684 605 684 599 697 c 0,3,4
 598 707 598 707 607 713 c 0,5,6
 617 719 617 719 632 712 c 2,7,-1
 661 693 l 2,8,9
 677 680 677 680 677 673 c 0,10,11
 678 664 678 664 668 649 c 2,12,-1
 641 600 l 1,13,-1
 715 614 l 2,14,15
 743 623 743 623 767 613 c 0,16,17
 795 604 795 604 796 595 c 1,18,19
 802 586 802 586 792 580 c 0,20,21
 785 573 785 573 713 567 c 2,22,-1
 664 563 l 1,23,-1
 707 519 l 1,24,-1
 743 480 l 1,25,-1
 779 519 l 1,26,-1
 791 544 l 2,27,28
 795 556 795 556 807 556 c 0,29,30
 822 554 822 554 834 538 c 0,31,32
 850 521 850 521 850 508 c 0,33,34
 853 496 853 496 839 494 c 2,35,-1
 764 461 l 1,36,-1
 786 444 l 1,37,-1
 834 412 l 2,38,39
 859 394 859 394 882 384 c 2,40,-1
 926 364 l 2,41,42
 936 359 936 359 939.5 355.5 c 128,-1,43
 943 352 943 352 942 350 c 0,44,45
 938 344 938 344 920 339 c 2,46,-1
 836 324 l 2,47,48
 817 324 817 324 780 366 c 0,49,50
 742 410 742 410 696 471 c 0,51,52
 650 534 650 534 625 547 c 1,53,-1
 618 553 l 1,54,55
 580 478 580 478 548 434 c 0,56,57
 511 384 511 384 473 352 c 0,58,59
 433 320 433 320 397 304 c 1,60,-1
 377 300 l 1,61,62
 371 303 371 303 382 314 c 0,63,64
 462 397 462 397 494 437 c 1,65,66
 473 452 473 452 428 498 c 0,67,68
 419 508 419 508 419 515 c 0,69,70
 422 521 422 521 433 519 c 2,71,-1
 484 506 l 1,72,-1
 507 493 l 1,73,-1
 518 472 l 1,74,-1
 559 550 l 1,75,-1
 542 547 l 2,76,77
 518 544 518 544 494 550 c 0,78,79
 475 557 475 557 460 572 c 0,80,81
 448 587 448 587 471 587 c 2,82,-1
 577 593 l 1,0,-1
707 -95 m 0,83,84
 683 -130 683 -130 662 -133 c 0,85,86
 640 -134 640 -134 621 -116 c 0,87,88
 592 -82 592 -82 549 -49 c 0,89,90
 536 -38 536 -38 538 -32 c 0,91,92
 542 -27 542 -27 551 -30 c 2,93,-1
 618 -45 l 1,94,-1
 650 -45 l 1,95,96
 670 -40 670 -40 682 -17 c 0,97,98
 720 67 720 67 717 105 c 1,99,-1
 710 133 l 2,100,101
 703 146 703 146 679 143 c 2,102,-1
 557 117 l 2,103,104
 529 113 529 113 521 131 c 0,105,106
 514 147 514 147 526 166 c 2,107,-1
 555 226 l 1,108,-1
 503 215 l 2,109,110
 489 212 489 212 467 217 c 0,111,112
 449 224 449 224 434 238 c 0,113,114
 421 255 421 255 441 255 c 2,115,-1
 574 273 l 1,116,117
 589 308 589 308 589 332 c 1,118,-1
 587 332 l 1,119,120
 562 328 562 328 538 332 c 0,121,122
 519 338 519 338 503 352 c 0,123,124
 491 367 491 367 513 367 c 2,125,-1
 590 375 l 1,126,-1
 659 390 l 2,127,128
 686 399 686 399 711 392 c 0,129,130
 738 385 738 385 741 375 c 0,131,132
 746 366 746 366 738 360 c 0,133,134
 731 355 731 355 690 349 c 2,135,-1
 646 343 l 1,136,-1
 650 339 l 2,137,138
 662 322 662 322 645 307 c 1,139,-1
 631 281 l 1,140,-1
 756 302 l 2,141,142
 778 306 778 306 795 299 c 2,143,-1
 830 278 l 2,144,145
 848 265 848 265 843 255 c 0,146,147
 839 246 839 246 821 245 c 2,148,-1
 746 245 l 2,149,150
 680 243 680 243 621 235 c 1,151,-1
 609 235 l 1,152,-1
 580 166 l 1,153,-1
 583 161 l 1,154,-1
 589 161 l 1,155,-1
 696 187 l 2,156,157
 719 193 719 193 746 180 c 0,158,159
 777 167 777 167 789 153 c 0,160,161
 804 140 804 140 794 133 c 0,162,163
 785 126 785 126 777 95 c 0,164,165
 753 -24 753 -24 707 -95 c 0,83,84
244 466 m 0,166,167
 300 550 300 550 318 604 c 0,168,169
 340 663 340 663 340 691 c 1,170,171
 333 714 333 714 350 714 c 0,172,173
 371 712 371 712 395 694 c 0,174,175
 423 673 423 673 426 661 c 0,176,177
 430 648 430 648 420 638 c 2,178,-1
 353 539 l 1,179,-1
 281 439 l 1,180,-1
 285 436 l 1,181,-1
 311 408 l 2,182,183
 323 392 323 392 315 367 c 1,184,-1
 315 -25 l 2,185,186
 315 -70 315 -70 302 -96 c 0,187,188
 289 -121 289 -121 274 -110 c 0,189,190
 259 -97 259 -97 253 -70 c 0,191,192
 248 -45 248 -45 250 -25 c 0,193,194
 267 60 267 60 267 170 c 2,195,-1
 267 315 l 1,196,-1
 257 381 l 1,197,-1
 250 400 l 1,198,199
 192 331 192 331 148 296 c 0,200,201
 121 276 121 276 111 273 c 0,202,203
 106 272 106 272 104 274 c 128,-1,204
 102 276 102 276 103 279 c 2,205,-1
 115 298 l 1,206,207
 193 388 193 388 244 466 c 0,166,167
EndSplineSet
EndChar
StartChar: u2A746
Encoding: 173894 173894 33
Width: 1024
Flags: W
LayerCount: 2
Back
Fore
SplineSet
232 466 m 0,0,1
 288 550 288 550 306 604 c 0,2,3
 328 663 328 663 328 691 c 1,4,5
 321 714 321 714 338 714 c 0,6,7
 359 712 359 712 383 694 c 0,8,9
 411 673 411 673 414 661 c 0,10,11
 418 648 418 648 408 638 c 2,12,-1
 341 539 l 1,13,-1
 269 439 l 1,14,-1
 273 436 l 1,15,-1
 299 408 l 2,16,17
 311 392 311 392 303 367 c 1,18,-1
 303 -5 l 2,19,20
 303 -50 303 -50 290 -76 c 0,21,22
 277 -101 277 -101 262 -90 c 0,23,24
 247 -77 247 -77 241 -50 c 0,25,26
 236 -25 236 -25 238 -5 c 0,27,28
 254 78 254 78 254 181 c 2,29,-1
 254 320 l 1,30,-1
 244 383 l 1,31,-1
 238 400 l 1,32,33
 180 331 180 331 136 296 c 0,34,35
 109 276 109 276 99 273 c 0,36,37
 94 272 94 272 92 274 c 128,-1,38
 90 276 90 276 91 279 c 2,39,-1
 103 298 l 1,40,41
 181 388 181 388 232 466 c 0,0,1
660 383 m 1,42,-1
 658 385 l 2,43,44
 642 405 642 405 616 462 c 0,45,46
 608 479 608 479 612 484 c 0,47,48
 618 490 618 490 628 484 c 2,49,-1
 672 460 l 1,50,-1
 691 443 l 2,51,52
 696 434 696 434 696 408 c 1,53,-1
 691 388 l 1,54,-1
 836 410 l 2,55,56
 858 416 858 416 875 408 c 2,57,-1
 910 386 l 2,58,59
 926 373 926 373 923 363 c 0,60,61
 919 354 919 354 901 353 c 2,62,-1
 805 353 l 2,63,64
 725 351 725 351 656 343 c 1,65,66
 669 333 669 333 669 325 c 0,67,68
 673 316 673 316 660 300 c 2,69,-1
 634 255 l 1,70,-1
 685 260 l 1,71,-1
 747 270 l 1,72,-1
 775 275 l 2,73,74
 790 274 790 274 813 255 c 0,75,76
 837 237 837 237 837 227 c 2,77,-1
 833 210 l 1,78,-1
 823 188 l 2,79,80
 808 162 808 162 787 91 c 0,81,82
 766 16 766 16 741 -33 c 0,83,84
 723 -69 723 -69 693 -93 c 0,85,86
 661 -116 661 -116 648 -111 c 0,87,88
 637 -104 637 -104 630 -89 c 0,89,90
 626 -73 626 -73 607 -53 c 2,91,-1
 576 -22 l 1,92,93
 559 -11 559 -11 561 -4 c 0,94,95
 565 3 565 3 604 -9 c 2,96,-1
 640 -18 l 2,97,98
 651 -19 651 -19 661 -15 c 0,99,100
 676 -9 676 -9 687 5 c 0,101,102
 702 24 702 24 724 77 c 0,103,104
 749 134 749 134 758 188 c 1,105,106
 758 216 758 216 752 221 c 0,107,108
 745 228 745 228 727 228 c 0,109,110
 668 217 668 217 629 217 c 1,111,-1
 618 222 l 1,112,-1
 611 206 l 2,113,114
 575 132 575 132 537 76 c 0,115,116
 501 24 501 24 460 -9 c 0,117,118
 419 -43 419 -43 381 -60 c 1,119,-1
 361 -64 l 1,120,121
 355 -61 355 -61 366 -50 c 0,122,123
 442 26 442 26 484 81 c 0,124,125
 526 133 526 133 560 218 c 0,126,127
 596 300 596 300 596 317 c 2,128,-1
 596 334 l 1,129,-1
 494 314 l 2,130,131
 479 313 479 313 459 316 c 1,132,133
 443 323 443 323 426 338 c 1,134,135
 413 355 413 355 433 355 c 2,136,-1
 660 383 l 1,42,-1
494 637 m 0,137,138
 478 655 478 655 491 660 c 0,139,140
 506 668 506 668 521 665 c 2,141,-1
 552 657 l 2,142,143
 569 652 569 652 571 634 c 2,144,-1
 581 579 l 1,145,-1
 625 584 l 2,146,147
 640 587 640 587 640 577 c 0,148,149
 643 570 643 570 630 563 c 2,150,-1
 604 552 l 1,151,-1
 586 547 l 1,152,-1
 591 508 l 2,153,154
 595 485 595 485 592 471 c 0,155,156
 589 459 589 459 574 467 c 1,157,158
 560 480 560 480 555 497 c 2,159,-1
 545 534 l 1,160,-1
 487 514 l 2,161,162
 473 510 473 510 449 519 c 0,163,164
 426 530 426 530 416 540 c 0,165,166
 407 552 407 552 407 558 c 0,167,168
 409 564 409 564 421 564 c 2,169,-1
 502 570 l 1,170,-1
 530 574 l 1,171,172
 515 608 515 608 494 637 c 0,137,138
766 694 m 0,173,174
 763 707 763 707 773 710 c 0,175,176
 786 714 786 714 805 702 c 0,177,178
 827 689 827 689 835 676 c 0,179,180
 842 663 842 663 830 651 c 1,181,-1
 808 614 l 1,182,-1
 815 614 l 1,183,184
 838 621 838 621 863 614 c 0,185,186
 889 606 889 606 902 595 c 0,187,188
 916 582 916 582 913 572 c 0,189,190
 909 564 909 564 894 564 c 2,191,-1
 851 564 l 1,192,-1
 803 561 l 1,193,-1
 778 558 l 1,194,-1
 747 501 l 2,195,196
 731 475 731 475 717 467 c 0,197,198
 704 458 704 458 704 470 c 128,-1,199
 704 482 704 482 711 501 c 2,200,-1
 726 551 l 1,201,-1
 710 551 l 1,202,-1
 673 568 l 2,203,204
 652 582 652 582 680 584 c 1,205,-1
 742 598 l 1,206,-1
 753 632 l 2,207,208
 766 672 766 672 766 694 c 0,173,174
EndSplineSet
EndChar
StartChar: u2A747
Encoding: 173895 173895 34
Width: 1024
Flags: W
LayerCount: 2
Back
Fore
SplineSet
613 679 m 1,0,-1
 607 694 l 1,1,2
 609 705 609 705 617 709 c 0,3,4
 628 714 628 714 640 707 c 2,5,-1
 673 685 l 1,6,7
 692 667 692 667 685 649 c 1,8,-1
 680 599 l 1,9,-1
 672 490 l 1,10,-1
 768 494 l 1,11,-1
 768 559 l 1,12,-1
 757 598 l 2,13,14
 751 612 751 612 756 617 c 0,15,16
 763 621 763 621 791 608 c 1,17,-1
 820 589 l 2,18,19
 834 578 834 578 827 565 c 1,20,-1
 820 530 l 1,21,-1
 816 484 l 1,22,-1
 810 448 l 1,23,-1
 797 421 l 1,24,-1
 786 414 l 1,25,-1
 778 423 l 1,26,-1
 765 455 l 1,27,-1
 627 438 l 2,28,29
 542 427 542 427 520 418 c 0,30,31
 499 413 499 413 484 425 c 0,32,33
 467 440 467 440 467 452 c 2,34,-1
 474 490 l 1,35,-1
 476 532 l 1,36,-1
 472 571 l 1,37,38
 466 586 466 586 468 593 c 0,39,40
 473 601 473 601 487 601 c 0,41,42
 503 599 503 599 520 584 c 0,43,44
 539 566 539 566 532 548 c 1,45,-1
 526 488 l 2,46,47
 526 477 526 477 535 477 c 2,48,-1
 623 485 l 1,49,-1
 617 652 l 1,50,-1
 613 679 l 1,0,-1
338 428 m 2,51,52
 332 442 332 442 340 446 c 0,53,54
 351 453 351 453 362 446 c 2,55,-1
 391 432 l 2,56,57
 407 424 407 424 403 402 c 0,58,59
 398 358 398 358 399 306 c 2,60,-1
 399 167 l 2,61,62
 396 149 396 149 386 139 c 0,63,64
 377 131 377 131 367 140 c 2,65,-1
 350 167 l 1,66,67
 343 186 343 186 346 215 c 2,68,-1
 350 294 l 1,69,-1
 347 373 l 1,70,-1
 338 428 l 2,51,52
214 468 m 0,71,72
 256 547 256 547 272 603 c 0,73,74
 286 659 286 659 284 686 c 1,75,76
 275 707 275 707 292 708 c 0,77,78
 309 710 309 710 336 693 c 0,79,80
 363 678 363 678 367 665 c 0,81,82
 373 652 373 652 364 643 c 2,83,-1
 310 545 l 2,84,85
 285 499 285 499 245 438 c 1,86,-1
 249 436 l 1,87,-1
 275 408 l 2,88,89
 286 391 286 391 279 367 c 1,90,-1
 283 -1 l 2,91,92
 283 -45 283 -45 270 -72 c 0,93,94
 258 -98 258 -98 242 -86 c 0,95,96
 228 -72 228 -72 221 -46 c 0,97,98
 216 -13 216 -13 218 -1 c 0,99,100
 233 82 233 82 233 184 c 2,101,-1
 231 321 l 1,102,-1
 221 383 l 1,103,-1
 217 396 l 1,104,105
 168 330 168 330 140 302 c 0,106,107
 118 282 118 282 107 277 c 0,108,109
 101 276 101 276 99 277 c 128,-1,110
 97 278 97 278 98 282 c 2,111,-1
 108 300 l 1,112,113
 170 387 170 387 214 468 c 0,71,72
612 -16 m 2,114,115
 587 -41 587 -41 539 -64 c 0,116,117
 496 -85 496 -85 437 -96 c 0,118,119
 402 -101 402 -101 390 -95 c 0,120,121
 377 -89 377 -89 393 -83 c 2,122,-1
 427 -72 l 1,123,-1
 479 -51 l 2,124,125
 512 -36 512 -36 552 -3 c 0,126,127
 590 30 590 30 624 81 c 1,128,-1
 594 120 l 1,129,-1
 560 157 l 1,130,-1
 544 169 l 2,131,132
 532 182 532 182 539 190 c 0,133,134
 549 201 549 201 569 194 c 0,135,136
 596 188 596 188 639 132 c 2,137,-1
 647 121 l 1,138,-1
 673 176 l 1,139,-1
 689 235 l 1,140,-1
 691 281 l 1,141,-1
 693 292 l 1,142,-1
 642 282 l 2,143,144
 608 275 608 275 587 281 c 2,145,-1
 564 290 l 1,146,-1
 544 253 l 1,147,-1
 508 199 l 1,148,-1
 464 157 l 1,149,-1
 450 148 l 2,150,151
 443 146 443 146 443 152 c 2,152,-1
 447 163 l 1,153,154
 472 203 472 203 491 249 c 2,155,-1
 514 313 l 2,156,157
 521 337 521 337 520 359 c 2,158,-1
 520 386 l 1,159,-1
 516 393 l 1,160,161
 518 408 518 408 527 411 c 0,162,163
 538 414 538 414 553 407 c 2,164,-1
 586 383 l 2,165,166
 604 365 604 365 594 353 c 2,167,-1
 578 322 l 1,168,-1
 646 330 l 1,169,-1
 725 348 l 2,170,171
 756 359 756 359 783 352 c 0,172,173
 812 345 812 345 817 334 c 0,174,175
 823 323 823 323 814 316 c 0,176,177
 810 312 810 312 759 304 c 2,178,-1
 719 297 l 1,179,-1
 737 286 l 1,180,-1
 765 258 l 2,181,182
 778 244 778 244 765 228 c 1,183,-1
 739 178 l 1,184,-1
 704 110 l 1,185,-1
 684 76 l 1,186,-1
 717 44 l 1,187,-1
 777 -2 l 2,188,189
 793 -14 793 -14 862 -43 c 0,190,191
 930 -68 930 -68 941 -79 c 0,192,193
 952 -87 952 -87 946 -93 c 0,194,195
 942 -96 942 -96 912 -101 c 2,196,-1
 840 -107 l 2,197,198
 795 -112 795 -112 770 -91 c 0,199,200
 697 -20 697 -20 657 35 c 1,201,-1
 612 -16 l 2,114,115
EndSplineSet
EndChar
StartChar: u2A748
Encoding: 173896 173896 35
Width: 1024
Flags: W
LayerCount: 2
Back
Fore
SplineSet
669 675 m 1,0,-1
 689 692 l 2,1,2
 697 701 697 701 703 701 c 2,3,-1
 733 685 l 2,4,5
 759 667 759 667 766 654 c 0,6,7
 776 640 776 640 769 635 c 0,8,9
 763 629 763 629 742 629 c 2,10,-1
 673 621 l 2,11,12
 634 613 634 613 577 611 c 2,13,-1
 496 611 l 1,14,-1
 476 617 l 2,15,16
 475 620 475 620 477 621 c 128,-1,17
 479 622 479 622 483 622 c 0,18,19
 572 641 572 641 604 650 c 2,20,-1
 669 675 l 1,0,-1
449 544 m 2,21,22
 445 553 445 553 449 563 c 0,23,24
 454 571 454 571 461 568 c 2,25,-1
 497 543 l 2,26,27
 523 523 523 523 526 506 c 0,28,29
 530 485 530 485 523 471 c 0,30,31
 516 459 516 459 502 462 c 0,32,33
 488 469 488 469 475 488 c 2,34,-1
 449 544 l 2,21,22
569 568 m 2,35,36
 566 577 566 577 572 587 c 0,37,38
 580 594 580 594 584 590 c 2,39,-1
 616 560 l 2,40,41
 637 536 637 536 638 520 c 0,42,43
 638 498 638 498 629 486 c 0,44,45
 620 476 620 476 606 481 c 1,46,47
 592 491 592 491 584 511 c 2,48,-1
 569 568 l 2,35,36
755 563 m 1,49,-1
 765 591 l 2,50,51
 768 606 768 606 782 606 c 0,52,53
 798 606 798 606 814 590 c 0,54,55
 834 570 834 570 835 559 c 0,56,57
 840 545 840 545 824 542 c 1,58,59
 787 514 787 514 701 466 c 0,60,61
 692 462 692 462 687 465 c 0,62,63
 683 470 683 470 687 476 c 2,64,-1
 755 563 l 1,49,-1
437 296 m 2,65,66
 426 272 426 272 413 286 c 0,67,68
 399 305 399 305 396 322 c 0,69,70
 392 344 392 344 397 351 c 2,71,-1
 418 388 l 1,72,-1
 427 416 l 1,73,74
 427 433 427 433 433 439 c 0,75,76
 441 447 441 447 455 423 c 2,77,-1
 463 408 l 1,78,-1
 549 417 l 1,79,-1
 681 431 l 1,80,-1
 794 443 l 1,81,82
 823 455 823 455 858 414 c 0,83,84
 895 373 895 373 895 363 c 0,85,86
 895 356 895 356 859 351 c 0,87,88
 824 345 824 345 774 321 c 0,89,90
 760 314 760 314 753 316 c 1,91,92
 749 323 749 323 755 332 c 2,93,-1
 777 370 l 1,94,-1
 786 389 l 1,95,96
 786 400 786 400 767 404 c 1,97,-1
 691 396 l 1,98,-1
 584 382 l 1,99,-1
 491 366 l 2,100,101
 478 364 478 364 459 366 c 1,102,-1
 454 342 l 1,103,-1
 437 296 l 2,65,66
624 47 m 1,104,-1
 623 45 l 1,105,106
 578 -9 578 -9 519 -46 c 0,107,108
 461 -84 461 -84 417 -89 c 0,109,110
 383 -93 383 -93 378 -91 c 0,111,112
 375 -85 375 -85 387 -80 c 0,113,114
 457 -44 457 -44 502 -8 c 0,115,116
 552 33 552 33 594 90 c 1,117,-1
 530 182 l 2,118,119
 501 223 501 223 489 229 c 2,120,-1
 469 243 l 2,121,122
 460 253 460 253 466 259 c 1,123,-1
 463 265 l 2,124,125
 464 271 464 271 482 271 c 0,126,127
 515 272 515 272 580 284 c 0,128,129
 641 296 641 296 662 304 c 2,130,-1
 694 312 l 1,131,132
 711 310 711 310 740 292 c 0,133,134
 771 270 771 270 771 258 c 0,135,136
 770 243 770 243 752 230 c 0,137,138
 734 216 734 216 726 200 c 0,139,140
 685 129 685 129 653 85 c 1,141,-1
 674 65 l 2,142,143
 720 23 720 23 749 4 c 0,144,145
 774 -11 774 -11 848 -40 c 2,146,-1
 940 -80 l 1,147,148
 954 -91 954 -91 946 -97 c 0,149,150
 936 -104 936 -104 906 -104 c 2,151,-1
 821 -107 l 2,152,153
 768 -108 768 -108 740 -84 c 0,154,155
 666 -7 666 -7 624 47 c 1,104,-1
576 180 m 2,156,-1
 617 127 l 1,157,158
 644 170 644 170 659 220 c 0,159,160
 668 247 668 247 660 252 c 0,161,162
 651 259 651 259 636 256 c 0,163,164
 552 242 552 242 522 242 c 1,165,166
 547 223 547 223 576 180 c 2,156,-1
236 470 m 0,167,168
 292 554 292 554 310 608 c 0,169,170
 332 667 332 667 332 695 c 1,171,172
 325 718 325 718 342 718 c 0,173,174
 363 716 363 716 387 698 c 0,175,176
 415 677 415 677 418 665 c 0,177,178
 422 652 422 652 412 642 c 2,179,-1
 345 543 l 1,180,-1
 273 443 l 1,181,-1
 277 440 l 1,182,-1
 303 412 l 2,183,184
 315 396 315 396 307 371 c 1,185,-1
 307 -21 l 2,186,187
 307 -66 307 -66 294 -92 c 0,188,189
 281 -117 281 -117 266 -106 c 0,190,191
 251 -93 251 -93 245 -66 c 0,192,193
 240 -41 240 -41 242 -21 c 0,194,195
 259 64 259 64 259 174 c 2,196,-1
 259 319 l 1,197,-1
 249 385 l 1,198,-1
 242 404 l 1,199,200
 184 335 184 335 140 300 c 0,201,202
 113 280 113 280 103 277 c 0,203,204
 98 276 98 276 96 278 c 128,-1,205
 94 280 94 280 95 283 c 2,206,-1
 107 302 l 1,207,208
 185 392 185 392 236 470 c 0,167,168
EndSplineSet
EndChar
StartChar: u2A749
Encoding: 173897 173897 36
Width: 1024
Flags: W
LayerCount: 2
Back
Fore
SplineSet
730 642 m 1,0,1
 759 652 759 652 785 642 c 0,2,3
 814 631 814 631 817 623 c 0,4,5
 822 612 822 612 812 606 c 0,6,7
 805 602 805 602 748 596 c 2,8,-1
 692 590 l 1,9,10
 699 584 699 584 701 582 c 0,11,12
 724 562 724 562 725 552 c 0,13,14
 728 541 728 541 718 534 c 0,15,16
 702 521 702 521 668 475 c 0,17,18
 660 465 660 465 656 461 c 1,19,-1
 702 432 l 2,20,21
 748 406 748 406 794 394 c 0,22,23
 823 388 823 388 853 379 c 0,24,25
 878 372 878 372 915 363 c 0,26,27
 944 356 944 356 944 352 c 0,28,29
 946 348 946 348 936 343 c 128,-1,30
 926 338 926 338 903 333 c 0,31,32
 856 321 856 321 809 318 c 0,33,34
 760 314 760 314 743 329 c 0,35,36
 691 369 691 369 641 417 c 0,37,38
 634 426 634 426 627 430 c 1,39,-1
 594 398 l 2,40,41
 552 362 552 362 501 341 c 0,42,43
 445 318 445 318 390 312 c 0,44,45
 382 311 382 311 370 314 c 1,46,47
 365 321 365 321 376 324 c 0,48,49
 468 366 468 366 500 387 c 0,50,51
 536 410 536 410 569 442 c 2,52,-1
 591 466 l 1,53,-1
 569 485 l 2,54,55
 541 510 541 510 520 519 c 0,56,57
 506 528 506 528 506 533 c 0,58,59
 509 541 509 541 532 541 c 0,60,61
 558 543 558 543 593 511 c 2,62,-1
 614 493 l 1,63,64
 617 499 617 499 625 509 c 0,65,66
 652 548 652 548 656 586 c 1,67,-1
 612 580 l 2,68,69
 586 576 586 576 560 582 c 0,70,71
 557 583 557 583 551 586 c 128,-1,72
 545 589 545 589 542 590 c 0,73,74
 533 582 533 582 527 575 c 0,75,76
 494 547 494 547 478 537 c 0,77,78
 454 522 454 522 426 511 c 0,79,80
 418 507 418 507 411 507 c 0,81,82
 405 507 405 507 405 513 c 0,83,84
 408 520 408 520 413 522 c 0,85,86
 456 563 456 563 477 588 c 0,87,88
 506 621 506 621 516 639 c 0,89,90
 531 664 531 664 536 679 c 0,91,92
 543 700 543 700 543 704 c 2,93,-1
 541 712 l 1,94,95
 547 725 547 725 556 725 c 0,96,97
 570 725 570 725 580 713 c 0,98,99
 595 700 595 700 603 682 c 0,100,101
 613 662 613 662 601 651 c 0,102,103
 587 637 587 637 575 623 c 1,104,105
 588 624 588 624 609 625.5 c 128,-1,106
 630 627 630 627 638 627 c 0,107,108
 691 635 691 635 730 642 c 1,0,1
603 259 m 1,109,110
 602 268 602 268 602 281 c 0,111,112
 599 314 599 314 593 338 c 0,113,114
 588 352 588 352 597 357 c 0,115,116
 607 364 607 364 637 347 c 0,117,118
 670 330 670 330 671 321 c 0,119,120
 674 312 674 312 667 294 c 0,121,122
 663 285 663 285 663 263 c 1,123,-1
 789 275 l 2,124,125
 812 279 812 279 828 270 c 0,126,127
 850 258 850 258 861 247 c 0,128,129
 878 232 878 232 873 223 c 0,130,131
 867 216 867 216 851 216 c 2,132,-1
 761 221 l 1,133,-1
 662 221 l 1,134,-1
 662 133 l 1,135,-1
 662 -34 l 2,136,137
 662 -61 662 -61 658 -77 c 0,138,139
 652 -95 652 -95 646 -101 c 0,140,141
 640 -106 640 -106 632 -104 c 0,142,143
 627 -101 627 -101 618 -85 c 0,144,145
 610 -69 610 -69 604 -49 c 0,146,147
 600 -29 600 -29 603 -5 c 0,148,149
 607 22 607 22 607 81 c 0,150,151
 605 159 605 159 605 194 c 0,152,153
 604 204 604 204 604 218 c 1,154,155
 519 209 519 209 469 202 c 0,156,157
 455 201 455 201 434 206 c 0,158,159
 416 214 416 214 402 230 c 0,160,161
 389 247 389 247 410 247 c 2,162,-1
 603 259 l 1,109,110
729 132 m 0,163,164
 722 143 722 143 722 155 c 0,165,166
 726 167 726 167 734 162 c 0,167,168
 757 152 757 152 796 127 c 0,169,170
 836 103 836 103 850 88 c 0,171,172
 867 70 867 70 868 36 c 0,173,174
 873 1 873 1 860 -8 c 0,175,176
 848 -17 848 -17 837 -14 c 0,177,178
 825 -6 825 -6 813 13 c 0,179,180
 767 86 767 86 729 132 c 0,163,164
481 152 m 128,-1,182
 481 164 481 164 488 164 c 0,183,184
 500 164 500 164 513 158 c 0,185,186
 531 150 531 150 539 138 c 0,187,188
 549 128 549 128 549 118 c 0,189,190
 549 109 549 109 543 106 c 0,191,192
 539 103 539 103 518 81 c 0,193,194
 497 58 497 58 471 39 c 0,195,196
 445 17 445 17 424 9 c 0,197,198
 402 -3 402 -3 386 -6 c 128,-1,199
 370 -9 370 -9 367 -9 c 0,200,201
 360 -5 360 -5 366 -2 c 0,202,203
 399 22 399 22 419 43 c 0,204,205
 443 67 443 67 455 89 c 0,206,207
 471 112 471 112 475 127 c 0,208,181
 481 140 481 140 481 152 c 128,-1,182
222 471 m 0,209,210
 276 557 276 557 294 613 c 0,211,212
 314 670 314 670 314 702 c 1,213,214
 305 724 305 724 323 724 c 0,215,216
 343 724 343 724 367 706 c 0,217,218
 395 687 395 687 398 674 c 0,219,220
 402 661 402 661 393 652 c 0,221,222
 367 614 367 614 328 549 c 0,223,224
 291 492 291 492 255 443 c 1,225,226
 264 437 264 437 265 436 c 0,227,228
 282 422 282 422 292 406 c 0,229,230
 304 389 304 389 296 363 c 1,231,-1
 296 11 l 2,232,233
 294 -36 294 -36 283 -63 c 0,234,235
 268 -89 268 -89 253 -77 c 0,236,237
 237 -63 237 -63 231 -35 c 0,238,239
 226 -11 226 -11 228 11 c 0,240,241
 244 91 244 91 244 190 c 0,242,243
 247 282 247 282 243 323 c 0,244,245
 240 359 240 359 234 384 c 0,246,247
 229 402 229 402 227 405 c 1,248,249
 170 335 170 335 127 296 c 0,250,251
 102 276 102 276 91 273 c 0,252,253
 85 272 85 272 83 274 c 128,-1,254
 81 276 81 276 82 279 c 0,255,256
 86 290 86 290 94 297 c 0,257,258
 173 393 173 393 222 471 c 0,209,210
EndSplineSet
EndChar
StartChar: u2A74A
Encoding: 173898 173898 37
Width: 1024
Flags: W
LayerCount: 2
Back
Fore
SplineSet
511 512 m 1,0,-1
 496 511 l 1,1,-1
 494 504 l 1,2,-1
 489 465 l 1,3,-1
 485 383 l 2,4,5
 484 327 484 327 468 244 c 0,6,7
 451 158 451 158 424 93 c 0,8,9
 396 23 396 23 368 -11 c 2,10,-1
 327 -60 l 2,11,12
 314 -75 314 -75 307 -76 c 128,-1,13
 300 -77 300 -77 300 -71 c 2,14,-1
 306 -57 l 1,15,16
 330 -19 330 -19 353 34 c 0,17,18
 378 90 378 90 395 154 c 0,19,20
 413 218 413 218 423 285 c 0,21,22
 435 351 435 351 435 404 c 2,23,-1
 435 480 l 1,24,-1
 432 514 l 1,25,-1
 424 537 l 2,26,27
 418 548 418 548 427 553 c 0,28,29
 435 558 435 558 447 556 c 2,30,-1
 458 556 l 1,31,-1
 555 566 l 1,32,-1
 649 578 l 1,33,34
 631 606 631 606 606 682 c 0,35,36
 599 701 599 701 605 707 c 0,37,38
 613 712 613 712 622 704 c 2,39,-1
 673 663 l 1,40,-1
 693 635 l 2,41,42
 698 624 698 624 693 597 c 2,43,-1
 689 583 l 1,44,-1
 784 599 l 2,45,46
 805 603 805 603 821 596 c 2,47,-1
 851 582 l 2,48,49
 864 573 864 573 863 563 c 128,-1,50
 862 553 862 553 843 551 c 2,51,-1
 701 536 l 1,52,-1
 511 512 l 1,0,-1
214 459 m 0,53,54
 266 541 266 541 282 596 c 0,55,56
 300 650 300 650 300 681 c 1,57,58
 291 704 291 704 309 704 c 0,59,60
 330 704 330 704 355 686 c 0,61,62
 384 665 384 665 387 653 c 0,63,64
 392 640 392 640 382 630 c 2,65,-1
 320 532 l 1,66,-1
 250 430 l 1,67,-1
 253 428 l 1,68,-1
 279 400 l 2,69,70
 291 384 291 384 283 359 c 1,71,-1
 283 -33 l 2,72,73
 283 -78 283 -78 270 -104 c 0,74,75
 257 -129 257 -129 242 -118 c 0,76,77
 227 -105 227 -105 221 -78 c 0,78,79
 216 -53 216 -53 218 -33 c 0,80,81
 235 52 235 52 235 162 c 2,82,-1
 235 307 l 1,83,-1
 225 373 l 1,84,-1
 220 390 l 1,85,86
 167 325 167 325 128 289 c 0,87,88
 102 268 102 268 91 265 c 0,89,90
 85 264 85 264 83 266 c 128,-1,91
 81 268 81 268 82 271 c 2,92,-1
 94 290 l 1,93,94
 166 376 166 376 214 459 c 0,53,54
574 68 m 1,95,-1
 577 48 l 2,96,97
 581 46 581 46 588 48 c 2,98,-1
 675 87 l 2,99,100
 688 94 688 94 693 87 c 0,101,102
 697 78 697 78 687 68 c 2,103,-1
 591 -19 l 1,104,105
 562 -53 562 -53 549 -43 c 2,106,-1
 525 -17 l 2,107,108
 514 -4 514 -4 516 15 c 2,109,-1
 523 81 l 1,110,-1
 531 210 l 1,111,-1
 536 336 l 2,112,113
 536 374 536 374 530 381 c 2,114,-1
 526 396 l 1,115,-1
 531 409 l 1,116,-1
 545 413 l 1,117,-1
 575 399 l 1,118,-1
 579 396 l 1,119,-1
 644 426 l 2,120,121
 684 445 684 445 719 470 c 0,122,123
 740 484 740 484 740 498 c 0,124,125
 744 512 744 512 755 509 c 0,126,127
 769 506 769 506 784 485 c 0,128,129
 802 462 802 462 805 445 c 0,130,131
 811 425 811 425 786 423 c 2,132,-1
 740 416 l 1,133,-1
 716 410 l 1,134,-1
 719 408 l 2,135,136
 744 395 744 395 747 387 c 0,137,138
 751 379 751 379 745 351 c 0,139,140
 744 339 744 339 753 280 c 1,141,-1
 778 286 l 2,142,143
 805 296 805 296 833 288 c 0,144,145
 862 280 862 280 865 271 c 0,146,147
 870 260 870 260 862 254 c 0,148,149
 853 249 853 249 798 240 c 2,150,-1
 763 235 l 1,151,-1
 787 149 l 1,152,153
 804 106 804 106 825 69 c 1,154,-1
 861 21 l 1,155,-1
 882 6 l 1,156,157
 894 10 894 10 909 75 c 0,158,159
 913 99 913 99 922 99 c 0,160,161
 931 98 931 98 931 70 c 2,162,-1
 935 11 l 1,163,-1
 943 -44 l 1,164,165
 954 -85 954 -85 946 -97 c 0,166,167
 940 -106 940 -106 924 -106 c 0,168,169
 911 -107 911 -107 882 -86 c 0,170,171
 863 -71 863 -71 833 -37 c 0,172,173
 807 -7 807 -7 785 36 c 0,174,175
 766 73 766 73 741 149 c 2,176,-1
 718 227 l 1,177,-1
 660 216 l 2,178,179
 635 212 635 212 609 216 c 1,180,-1
 583 227 l 1,181,-1
 574 68 l 1,95,-1
686 265 m 1,182,-1
 709 270 l 1,183,-1
 705 289 l 2,184,185
 697 330 697 330 686 357 c 2,186,-1
 667 395 l 1,187,-1
 595 377 l 1,188,-1
 595 363 l 1,189,190
 589 354 589 354 586 282 c 2,191,-1
 584 253 l 1,192,-1
 686 265 l 1,182,-1
620 -49 m 2,193,-1
 649 -44 l 1,194,-1
 684 -39 l 1,195,-1
 719 -31 l 2,196,197
 740 -26 740 -26 754 -31 c 2,198,-1
 784 -43 l 2,199,200
 797 -50 797 -50 797 -60 c 0,201,202
 796 -70 796 -70 779 -72 c 2,203,-1
 733 -78 l 1,204,-1
 673 -87 l 2,205,206
 652 -93 652 -93 637 -86 c 2,207,-1
 607 -66 l 1,208,209
 592 -51 592 -51 620 -49 c 2,193,-1
EndSplineSet
EndChar
StartChar: u2A74B
Encoding: 173899 173899 38
Width: 1024
Flags: W
LayerCount: 2
Back
Fore
SplineSet
216 467 m 0,0,1
 268 548 268 548 285 604 c 0,2,3
 304 661 304 661 304 689 c 1,4,5
 295 712 295 712 313 712 c 0,6,7
 334 712 334 712 359 694 c 0,8,9
 388 673 388 673 391 661 c 0,10,11
 396 648 396 648 386 638 c 2,12,-1
 322 540 l 1,13,-1
 253 439 l 1,14,-1
 257 436 l 1,15,-1
 283 408 l 2,16,17
 295 392 295 392 287 367 c 1,18,-1
 287 -25 l 2,19,20
 287 -70 287 -70 274 -96 c 0,21,22
 261 -121 261 -121 246 -110 c 0,23,24
 231 -97 231 -97 225 -70 c 0,25,26
 220 -45 220 -45 222 -25 c 0,27,28
 239 60 239 60 239 170 c 2,29,-1
 239 315 l 1,30,-1
 229 381 l 1,31,-1
 224 400 l 1,32,33
 171 334 171 334 128 297 c 0,34,35
 102 276 102 276 91 273 c 0,36,37
 85 272 85 272 83 274 c 128,-1,38
 81 276 81 276 82 279 c 2,39,-1
 94 298 l 1,40,41
 167 386 167 386 216 467 c 0,0,1
532 -40 m 2,42,43
 533 -65 533 -65 527 -84 c 128,-1,44
 521 -103 521 -103 514 -110 c 0,45,46
 508 -115 508 -115 500 -113 c 0,47,48
 492 -107 492 -107 485 -92 c 2,49,-1
 471 -54 l 2,50,51
 467 -34 467 -34 472 -9 c 0,52,53
 484 50 484 50 484 157 c 2,54,-1
 487 306 l 1,55,56
 464 246 464 246 433 202 c 0,57,58
 384 132 384 132 341 92 c 0,59,60
 332 83 332 83 323 83 c 0,61,62
 315 86 315 86 320 92 c 0,63,64
 381 176 381 176 420 269 c 0,65,66
 457 361 457 361 473 422 c 1,67,-1
 435 414 l 2,68,69
 408 410 408 410 386 413 c 1,70,71
 364 421 364 421 351 432 c 0,72,73
 338 448 338 448 361 448 c 2,74,-1
 447 459 l 1,75,-1
 489 468 l 1,76,-1
 489 540 l 2,77,78
 486 601 486 601 474 650 c 0,79,80
 471 665 471 665 480 670 c 0,81,82
 492 677 492 677 521 659 c 0,83,84
 554 639 554 639 555 631 c 0,85,86
 558 621 558 621 551 603 c 0,87,88
 543 566 543 566 540 481 c 1,89,90
 557 484 557 484 575 479 c 0,91,92
 602 471 602 471 605 463 c 0,93,94
 610 454 610 454 602 448 c 2,95,-1
 549 435 l 1,96,-1
 537 433 l 1,97,-1
 535 368 l 1,98,-1
 579 345 l 1,99,-1
 605 321 l 2,100,101
 613 312 613 312 614 290 c 0,102,103
 617 267 617 267 604 262 c 0,104,105
 592 257 592 257 582 265 c 0,106,107
 564 282 564 282 534 321 c 1,108,-1
 534 288 l 1,109,-1
 532 -40 l 2,42,43
897 71 m 1,110,111
 901 -15 901 -15 883 -49 c 0,112,113
 858 -88 858 -88 847 -88 c 0,114,115
 837 -87 837 -87 829 -72 c 2,116,-1
 816 -31 l 1,117,-1
 793 -34 l 1,118,-1
 719 -44 l 1,119,-1
 695 -44 l 1,120,-1
 683 -69 l 2,121,122
 673 -85 673 -85 657 -61 c 0,123,124
 642 -37 642 -37 640 -18 c 2,125,-1
 643 28 l 1,126,127
 655 104 655 104 655 212 c 2,128,-1
 655 394 l 1,129,-1
 646 491 l 1,130,-1
 642 508 l 1,131,132
 635 515 635 515 638 518 c 2,133,-1
 638 520 l 1,134,-1
 635 527 l 2,135,136
 629 540 629 540 638 544 c 0,137,138
 648 548 648 548 659 544 c 2,139,-1
 686 530 l 1,140,-1
 725 537 l 1,141,-1
 808 559 l 2,142,143
 835 569 835 569 863 555 c 0,144,145
 895 537 895 537 907 523 c 0,146,147
 920 505 920 505 910 490 c 0,148,149
 899 471 899 471 899 447 c 2,150,-1
 897 287 l 1,151,-1
 897 71 l 1,110,111
701 4 m 1,152,-1
 702 4 l 1,153,-1
 744 10 l 1,154,-1
 788 17 l 1,155,-1
 802 19 l 2,156,157
 805 23 805 23 808 18 c 1,158,-1
 821 18 l 1,159,-1
 826 16 l 1,160,-1
 830 19 l 1,161,162
 839 50 839 50 840 99 c 2,163,-1
 844 166 l 1,164,-1
 805 161 l 1,165,-1
 738 152 l 2,166,167
 719 148 719 148 704 154 c 1,168,-1
 701 4 l 1,152,-1
845 338 m 1,169,-1
 799 331 l 1,170,-1
 730 320 l 2,171,172
 718 318 718 318 704 320 c 1,173,-1
 704 194 l 1,174,-1
 721 194 l 1,175,-1
 760 199 l 1,176,-1
 800 207 l 2,177,178
 818 213 818 213 833 206 c 2,179,-1
 845 201 l 1,180,-1
 845 338 l 1,169,-1
703 362 m 1,181,-1
 714 363 l 1,182,-1
 754 369 l 1,183,-1
 795 378 l 2,184,185
 814 384 814 384 829 377 c 2,186,-1
 843 371 l 1,187,-1
 843 446 l 2,188,189
 841 492 841 492 826 505 c 0,190,191
 820 510 820 510 759 501 c 2,192,-1
 705 494 l 1,193,-1
 705 483 l 1,194,-1
 703 362 l 1,181,-1
EndSplineSet
EndChar
StartChar: u2A74C
Encoding: 173900 173900 39
Width: 1024
Flags: W
LayerCount: 2
Back
Fore
SplineSet
608 348 m 1,0,-1
 446 324 l 2,1,2
 433 322 433 322 411 327 c 1,3,4
 392 336 392 336 378 350 c 0,5,6
 365 367 365 367 386 367 c 2,7,-1
 524 380 l 1,8,-1
 519 477 l 1,9,-1
 511 477 l 2,10,11
 485 476 485 476 460 481 c 0,12,13
 440 489 440 489 425 504 c 0,14,15
 412 520 412 520 436 520 c 2,16,-1
 517 523 l 1,17,-1
 512 602 l 1,18,-1
 505 635 l 1,19,-1
 497 654 l 1,20,21
 500 665 500 665 506 668 c 0,22,23
 516 674 516 674 529 667 c 2,24,-1
 561 647 l 2,25,26
 578 632 578 632 574 613 c 2,27,-1
 570 547 l 1,28,-1
 570 527 l 1,29,-1
 604 529 l 1,30,-1
 694 541 l 1,31,-1
 700 633 l 1,32,-1
 697 669 l 1,33,-1
 691 690 l 1,34,35
 693 701 693 701 701 703 c 0,36,37
 712 708 712 708 724 700 c 2,38,-1
 754 676 l 2,39,40
 770 660 770 660 763 641 c 2,41,-1
 752 571 l 1,42,-1
 748 552 l 1,43,-1
 755 552 l 1,44,45
 783 559 783 559 810 550 c 0,46,47
 839 539 839 539 840 531 c 0,48,49
 846 521 846 521 836 514 c 0,50,51
 827 509 827 509 743 501 c 1,52,-1
 732 402 l 1,53,-1
 820 413 l 2,54,55
 843 417 843 417 859 409 c 0,56,57
 878 402 878 402 894 386 c 0,58,59
 911 372 911 372 906 363 c 0,60,61
 900 356 900 356 884 356 c 2,62,-1
 781 356 l 2,63,64
 699 357 699 357 608 348 c 1,0,-1
570 484 m 1,65,-1
 570 384 l 1,66,-1
 632 390 l 1,67,-1
 685 396 l 1,68,-1
 692 497 l 1,69,-1
 570 484 l 1,65,-1
236 466 m 0,70,71
 292 550 292 550 310 604 c 0,72,73
 332 663 332 663 332 691 c 1,74,75
 325 714 325 714 342 714 c 0,76,77
 363 712 363 712 387 694 c 0,78,79
 415 673 415 673 418 661 c 0,80,81
 422 648 422 648 412 638 c 2,82,-1
 345 539 l 1,83,-1
 273 439 l 1,84,-1
 277 436 l 1,85,-1
 303 408 l 2,86,87
 315 392 315 392 307 367 c 1,88,-1
 307 -25 l 2,89,90
 307 -70 307 -70 294 -96 c 0,91,92
 281 -121 281 -121 266 -110 c 0,93,94
 251 -97 251 -97 245 -70 c 0,95,96
 240 -45 240 -45 242 -25 c 0,97,98
 259 60 259 60 259 170 c 2,99,-1
 259 315 l 1,100,-1
 249 381 l 1,101,-1
 242 400 l 1,102,103
 184 331 184 331 140 296 c 0,104,105
 113 276 113 276 103 273 c 0,106,107
 98 272 98 272 96 274 c 128,-1,108
 94 276 94 276 95 279 c 2,109,-1
 107 298 l 1,110,111
 185 388 185 388 236 466 c 0,70,71
771 287 m 1,112,113
 795 303 795 303 819 284 c 2,114,-1
 855 251 l 1,115,116
 865 235 865 235 855 220 c 0,117,118
 844 203 844 203 843 189 c 2,119,-1
 832 100 l 1,120,-1
 817 -8 l 2,121,122
 810 -45 810 -45 797 -70 c 0,123,124
 784 -104 784 -104 771 -104 c 0,125,126
 756 -104 756 -104 750 -91 c 2,127,-1
 719 -52 l 1,128,-1
 534 -58 l 1,129,-1
 509 -56 l 1,130,-1
 506 -54 l 1,131,-1
 506 -75 l 2,132,133
 505 -88 505 -88 501.5 -94 c 128,-1,134
 498 -100 498 -100 493 -98 c 0,135,136
 482 -90 482 -90 470 -68 c 0,137,138
 458 -41 458 -41 458 -12 c 0,139,140
 453 80 453 80 445 138 c 0,141,142
 436 209 436 209 423 248 c 0,143,144
 419 261 419 261 422 264 c 0,145,146
 429 268 429 268 444 262 c 2,147,-1
 449 259 l 1,148,-1
 451 259 l 1,149,-1
 509 261 l 1,150,-1
 617 270 l 1,151,-1
 771 287 l 1,112,113
607 81 m 1,152,-1
 537 75 l 2,153,154
 515 74 515 74 502 80 c 1,155,-1
 505 -10 l 1,156,-1
 505 -21 l 1,157,-1
 607 -11 l 1,158,-1
 607 81 l 1,152,-1
656 -6 m 1,159,-1
 698 -2 l 2,160,161
 731 4 731 4 755 -15 c 1,162,-1
 757 -18 l 1,163,164
 765 -3 765 -3 771 36 c 2,165,-1
 778 92 l 1,166,-1
 776 92 l 1,167,-1
 673 86 l 1,168,-1
 661 86 l 1,169,-1
 656 -6 l 1,159,-1
664 130 m 1,170,-1
 724 138 l 2,171,172
 743 141 743 141 757 134 c 2,173,-1
 781 120 l 1,174,-1
 783 162 l 2,175,176
 784 228 784 228 775 234 c 0,177,178
 764 244 764 244 723 241 c 2,179,-1
 648 236 l 1,180,-1
 660 226 l 2,181,182
 676 210 676 210 671 191 c 2,183,-1
 664 130 l 1,170,-1
607 185 m 1,184,-1
 603 217 l 1,185,-1
 597 232 l 1,186,-1
 520 224 l 1,187,-1
 494 222 l 1,188,-1
 496 212 l 1,189,-1
 499 118 l 1,190,-1
 560 121 l 1,191,-1
 607 125 l 1,192,-1
 607 185 l 1,184,-1
EndSplineSet
EndChar
StartChar: u2A74D
Encoding: 173901 173901 40
Width: 1024
Flags: W
LayerCount: 2
Back
Fore
SplineSet
894 6 m 0,0,1
 897 -24 897 -24 883 -55 c 2,2,-1
 859 -97 l 2,3,4
 849 -107 849 -107 839 -105 c 1,5,-1
 810 -82 l 1,6,-1
 713 -5 l 1,7,8
 713 3 713 3 731 0 c 2,9,-1
 787 -8 l 2,10,11
 810 -12 810 -12 816 -3 c 0,12,13
 826 10 826 10 827 38 c 0,14,15
 840 175 840 175 840 310 c 1,16,-1
 834 302 l 1,17,-1
 797 259 l 1,18,-1
 759 216 l 2,19,20
 753 207 753 207 732 209 c 2,21,-1
 707 214 l 1,22,-1
 683 125 l 1,23,24
 656 44 656 44 629 5 c 2,25,-1
 587 -53 l 1,26,-1
 567 -71 l 2,27,28
 560 -72 560 -72 560 -67 c 2,29,-1
 565 -52 l 1,30,31
 589 -9 589 -9 611 53 c 0,32,33
 636 116 636 116 649 189 c 0,34,35
 667 272 667 272 671 337 c 0,36,37
 679 405 679 405 676 470 c 2,38,-1
 671 554 l 1,39,-1
 666 592 l 1,40,-1
 655 618 l 2,41,42
 647 629 647 629 658 634 c 0,43,44
 669 641 669 641 691 633 c 1,45,-1
 692 633 l 1,46,-1
 767 645 l 1,47,-1
 819 656 l 2,48,49
 837 663 837 663 860 648 c 0,50,51
 888 632 888 632 901 618 c 0,52,53
 917 601 917 601 905 581 c 0,54,55
 894 561 894 561 892 500 c 0,56,57
 888 247 888 247 894 6 c 0,0,1
721 296 m 2,58,-1
 716 262 l 1,59,-1
 745 279 l 1,60,-1
 840 342 l 1,61,-1
 840 394 l 1,62,-1
 828 394 l 1,63,64
 791 409 791 409 729 443 c 1,65,66
 730 384 730 384 721 296 c 2,58,-1
829 597 m 0,67,68
 826 610 826 610 802 610 c 2,69,-1
 746 601 l 1,70,-1
 731 601 l 1,71,-1
 731 588 l 1,72,-1
 729 544 l 1,73,-1
 729 482 l 1,74,-1
 786 472 l 2,75,76
 817 465 817 465 828 455 c 2,77,-1
 839 444 l 1,78,79
 834 582 834 582 829 597 c 0,67,68
466 409 m 1,80,-1
 449 406 l 2,81,82
 420 402 420 402 395 407 c 0,83,84
 372 414 372 414 356 430 c 0,85,86
 342 447 342 447 368 447 c 2,87,-1
 455 454 l 1,88,-1
 468 456 l 1,89,-1
 474 583 l 1,90,-1
 470 633 l 1,91,-1
 461 662 l 1,92,93
 464 674 464 674 473 678 c 0,94,95
 485 683 485 683 499 675 c 0,96,97
 518 666 518 666 534 648 c 0,98,99
 552 630 552 630 546 607 c 2,100,-1
 533 506 l 1,101,-1
 529 468 l 1,102,-1
 533 468 l 1,103,104
 564 478 564 478 591 469 c 0,105,106
 622 460 622 460 625 450 c 0,107,108
 631 440 631 440 621 432 c 1,109,-1
 566 422 l 1,110,-1
 524 417 l 1,111,-1
 512 262 l 1,112,-1
 539 271 l 2,113,114
 558 281 558 281 578 267 c 2,115,-1
 619 240 l 2,116,117
 638 227 638 227 617 204 c 1,118,-1
 573 74 l 1,119,120
 594 60 594 60 594 50 c 0,121,122
 593 41 593 41 580 39 c 2,123,-1
 436 39 l 1,124,-1
 431 13 l 1,125,126
 415 9 415 9 405 20 c 0,127,128
 390 43 390 43 387 99 c 0,129,130
 381 162 381 162 363 220 c 1,131,132
 351 238 351 238 358 241 c 0,133,134
 367 246 367 246 389 240 c 1,135,-1
 392 240 l 1,136,-1
 458 250 l 1,137,-1
 466 409 l 1,80,-1
514 88 m 1,138,-1
 528 90 l 1,139,-1
 542 167 l 2,140,141
 551 211 551 211 541 216 c 0,142,143
 534 223 534 223 505 220 c 2,144,-1
 436 213 l 1,145,-1
 427 213 l 1,146,-1
 427 207 l 1,147,-1
 434 108 l 1,148,-1
 436 78 l 1,149,-1
 514 88 l 1,138,-1
220 466 m 0,150,151
 276 550 276 550 294 604 c 0,152,153
 316 663 316 663 316 691 c 1,154,155
 309 714 309 714 326 714 c 0,156,157
 347 712 347 712 371 694 c 0,158,159
 399 673 399 673 402 661 c 0,160,161
 406 648 406 648 396 638 c 2,162,-1
 329 539 l 1,163,-1
 257 439 l 1,164,-1
 261 436 l 1,165,-1
 287 408 l 2,166,167
 299 392 299 392 291 367 c 1,168,-1
 291 -17 l 2,169,170
 291 -62 291 -62 278 -88 c 0,171,172
 265 -113 265 -113 250 -102 c 0,173,174
 235 -89 235 -89 229 -62 c 0,175,176
 224 -37 224 -37 226 -17 c 0,177,178
 243 67 243 67 243 175 c 2,179,-1
 243 317 l 1,180,-1
 233 382 l 1,181,-1
 226 400 l 1,182,183
 168 331 168 331 124 296 c 0,184,185
 97 276 97 276 87 273 c 0,186,187
 82 272 82 272 80 274 c 128,-1,188
 78 276 78 276 79 279 c 2,189,-1
 91 298 l 1,190,191
 169 388 169 388 220 466 c 0,150,151
EndSplineSet
EndChar
StartChar: u2A751
Encoding: 173905 173905 41
Width: 1024
Flags: W
LayerCount: 2
Back
Fore
SplineSet
236 466 m 0,0,1
 292 550 292 550 310 604 c 0,2,3
 332 663 332 663 332 691 c 1,4,5
 325 714 325 714 342 714 c 0,6,7
 363 712 363 712 387 694 c 0,8,9
 415 673 415 673 418 661 c 0,10,11
 422 648 422 648 412 638 c 2,12,-1
 345 539 l 1,13,-1
 273 439 l 1,14,-1
 277 436 l 1,15,-1
 303 408 l 2,16,17
 315 392 315 392 307 367 c 1,18,-1
 307 -25 l 2,19,20
 307 -70 307 -70 294 -96 c 0,21,22
 281 -121 281 -121 266 -110 c 0,23,24
 251 -97 251 -97 245 -70 c 0,25,26
 240 -45 240 -45 242 -25 c 0,27,28
 259 60 259 60 259 170 c 2,29,-1
 259 315 l 1,30,-1
 249 381 l 1,31,-1
 242 400 l 1,32,33
 184 331 184 331 140 296 c 0,34,35
 113 276 113 276 103 273 c 0,36,37
 98 272 98 272 96 274 c 128,-1,38
 94 276 94 276 95 279 c 2,39,-1
 107 298 l 1,40,41
 185 388 185 388 236 466 c 0,0,1
777 319 m 0,42,43
 766 301 766 301 752 306 c 0,44,45
 737 313 737 313 721 335 c 2,46,-1
 719 338 l 1,47,-1
 567 333 l 1,48,-1
 552 333 l 1,49,-1
 552 329 l 1,50,-1
 549 304 l 2,51,52
 545 299 545 299 532 305 c 0,53,54
 517 315 517 315 507 330 c 0,55,56
 499 346 499 346 499 366 c 2,57,-1
 488 504 l 2,58,59
 481 559 481 559 464 595 c 0,60,61
 460 604 460 604 463 612 c 0,62,63
 467 618 467 618 475 616 c 2,64,-1
 501 604 l 1,65,-1
 585 614 l 1,66,-1
 687 630 l 1,67,-1
 755 640 l 1,68,69
 774 650 774 650 801 632 c 0,70,71
 835 611 835 611 844 598 c 0,72,73
 858 583 858 583 841 565 c 0,74,75
 823 547 823 547 815 516 c 0,76,77
 793 352 793 352 777 319 c 0,42,43
598 455 m 1,78,-1
 542 453 l 1,79,-1
 544 437 l 1,80,-1
 551 368 l 1,81,-1
 671 383 l 2,82,83
 703 387 703 387 725 372 c 2,84,-1
 731 367 l 1,85,-1
 736 374 l 1,86,87
 747 401 747 401 756 474 c 1,88,89
 752 468 752 468 739 466 c 2,90,-1
 598 455 l 1,78,-1
530 571 m 1,91,-1
 530 563 l 1,92,-1
 539 482 l 1,93,-1
 645 504 l 2,94,95
 690 512 690 512 717 509 c 0,96,97
 744 504 744 504 754 487 c 2,98,-1
 758 480 l 1,99,-1
 758 483 l 1,100,101
 768 570 768 570 751 587 c 0,102,103
 745 594 745 594 670 587 c 2,104,-1
 530 571 l 1,91,-1
793 251 m 1,105,106
 824 261 824 261 843 239 c 0,107,108
 866 217 866 217 869 203 c 0,109,110
 873 187 873 187 864 178 c 1,111,112
 844 130 844 130 818 3 c 1,113,-1
 857 7 l 2,114,115
 880 13 880 13 898 3 c 2,116,-1
 933 -22 l 2,117,118
 950 -37 950 -37 945 -46 c 0,119,120
 940 -54 940 -54 922 -54 c 2,121,-1
 811 -51 l 2,122,123
 723 -48 723 -48 624 -56 c 0,124,125
 521 -66 521 -66 448 -78 c 0,126,127
 433 -79 433 -79 412 -74 c 1,128,129
 393 -65 393 -65 378 -50 c 1,130,131
 366 -32 366 -32 386 -32 c 2,132,-1
 478 -26 l 1,133,-1
 450 142 l 2,134,135
 441 176 441 176 423 211 c 1,136,137
 423 224 423 224 427 230 c 0,138,139
 433 234 433 234 450 231 c 2,140,-1
 476 221 l 1,141,142
 633 240 633 240 793 251 c 1,105,106
566 131 m 2,143,144
 562 160 562 160 546 192 c 1,145,-1
 520 189 l 1,146,-1
 503 189 l 1,147,-1
 503 180 l 1,148,-1
 508 108 l 1,149,-1
 519 -23 l 1,150,-1
 580 -18 l 1,151,-1
 566 131 l 2,143,144
789 145 m 2,152,153
 795 196 795 196 782 201 c 1,154,-1
 726 204 l 1,155,-1
 732 199 l 2,156,157
 751 186 751 186 749 176 c 2,158,-1
 743 158 l 1,159,-1
 730 104 l 1,160,-1
 706 -8 l 1,161,-1
 770 -2 l 1,162,-1
 789 145 l 2,152,153
681 130 m 1,163,-1
 676 200 l 1,164,-1
 674 203 l 1,165,-1
 598 197 l 1,166,-1
 608 190 l 2,167,168
 624 175 624 175 620 156 c 1,169,-1
 620 -15 l 1,170,-1
 653 -13 l 1,171,-1
 673 -11 l 1,172,-1
 681 130 l 1,163,-1
EndSplineSet
EndChar
StartChar: u2A752
Encoding: 173906 173906 42
Width: 1024
Flags: W
LayerCount: 2
Back
Fore
SplineSet
423 -68 m 0,0,1
 420 -89 420 -89 407 -105 c 0,2,3
 396 -119 396 -119 380 -96 c 0,4,5
 363 -70 363 -70 362 -52 c 2,6,-1
 365 -4 l 1,7,-1
 375 124 l 1,8,-1
 361 115 l 2,9,10
 350 107 350 107 329 116 c 2,11,-1
 293 137 l 2,12,13
 278 149 278 149 278 160 c 0,14,15
 281 173 281 173 293 173 c 2,16,-1
 379 193 l 1,17,-1
 379 211 l 2,18,19
 381 353 381 353 377 423 c 0,20,21
 372 512 372 512 366 535 c 2,22,-1
 353 578 l 2,23,24
 349 591 349 591 356 595 c 0,25,26
 368 600 368 600 378 596 c 2,27,-1
 406 582 l 2,28,29
 420 574 420 574 423 565 c 1,30,-1
 444 578 l 1,31,-1
 482 609 l 2,32,33
 500 624 500 624 501 637 c 0,34,35
 502 649 502 649 514 649 c 0,36,37
 526 648 526 648 543 628 c 0,38,39
 561 608 561 608 567 590 c 0,40,41
 572 573 572 573 550 569 c 2,42,-1
 506 558 l 1,43,-1
 466 547 l 1,44,-1
 426 538 l 1,45,-1
 426 532 l 1,46,-1
 424 460 l 1,47,-1
 437 462 l 1,48,-1
 466 468 l 1,49,50
 496 481 496 481 521 474 c 0,51,52
 548 470 548 470 554 459 c 0,53,54
 561 449 561 449 551 442 c 1,55,-1
 530 437 l 1,56,-1
 484 427 l 2,57,58
 453 420 453 420 433 423 c 2,59,-1
 425 425 l 1,60,-1
 425 335 l 1,61,-1
 439 337 l 1,62,-1
 471 344 l 2,63,64
 498 354 498 354 522 350 c 0,65,66
 548 344 548 344 554 336 c 0,67,68
 558 327 558 327 551 320 c 1,69,-1
 528 313 l 1,70,-1
 478 303 l 2,71,72
 449 296 449 296 430 300 c 1,73,-1
 427 300 l 1,74,-1
 427 207 l 1,75,-1
 536 238 l 2,76,77
 552 242 552 242 553 237 c 0,78,79
 554 230 554 230 541 220 c 2,80,-1
 499 192 l 1,81,-1
 430 152 l 1,82,-1
 427 152 l 1,83,84
 429 -40 429 -40 423 -68 c 0,0,1
667 30 m 0,85,86
 693 63 693 63 708 89 c 1,87,-1
 685 131 l 2,88,89
 627 240 627 240 598 261 c 0,90,91
 590 268 590 268 596 274 c 2,92,-1
 598 276 l 1,93,-1
 598 278 l 2,94,95
 601 287 601 287 622 287 c 2,96,-1
 701 298 l 1,97,-1
 758 311 l 2,98,99
 794 322 794 322 814 315 c 0,100,101
 838 308 838 308 850 291 c 0,102,103
 865 275 865 275 846 256 c 0,104,105
 828 238 828 238 814 194 c 0,106,107
 799 139 799 139 771 89 c 1,108,-1
 794 64 l 1,109,-1
 849 13 l 1,110,-1
 895 -24 l 1,111,-1
 938 -52 l 2,112,113
 948 -57 948 -57 953 -61.5 c 128,-1,114
 958 -66 958 -66 957 -70 c 0,115,116
 957 -77 957 -77 931 -85 c 0,117,118
 910 -90 910 -90 858 -95 c 0,119,120
 831 -95 831 -95 788 -37 c 1,121,-1
 738 39 l 1,122,123
 712 6 712 6 683 -17 c 0,124,125
 643 -44 643 -44 573 -69 c 0,126,127
 547 -78 547 -78 541 -76 c 0,128,129
 536 -71 536 -71 550 -63 c 0,130,131
 628 -15 628 -15 667 30 c 0,85,86
759 248 m 0,132,133
 761 270 761 270 752 275 c 1,134,-1
 696 257 l 1,135,-1
 656 247 l 1,136,-1
 698 187 l 1,137,-1
 731 139 l 1,138,139
 748 184 748 184 759 248 c 0,132,133
809 473 m 0,140,141
 807 423 807 423 816 407 c 1,142,-1
 828 399 l 1,143,144
 841 397 841 397 847 399 c 0,145,146
 873 410 873 410 886 401 c 2,147,-1
 913 376 l 2,148,149
 925 361 925 361 910 351 c 1,150,151
 884 342 884 342 848 345 c 0,152,153
 810 348 810 348 790 360 c 0,154,155
 774 374 774 374 769 390 c 0,156,157
 757 422 757 422 760 461 c 2,158,-1
 763 546 l 1,159,-1
 761 566 l 1,160,161
 756 573 756 573 737 569 c 2,162,-1
 689 556 l 1,163,-1
 687 537 l 1,164,-1
 682 454 l 2,165,166
 679 422 679 422 669 401 c 2,167,-1
 647 365 l 1,168,-1
 615 337 l 2,169,170
 597 321 597 321 585 321 c 0,171,172
 579 321 579 321 576.5 322 c 128,-1,173
 574 323 574 323 575 326 c 2,174,-1
 588 344 l 1,175,-1
 607 371 l 2,176,177
 620 390 620 390 628 422 c 0,178,179
 636 456 636 456 632 493 c 2,180,-1
 625 552 l 2,181,182
 622 573 622 573 614 583 c 1,183,184
 609 600 609 600 618 604 c 0,185,186
 632 609 632 609 661 597 c 2,187,-1
 672 592 l 1,188,-1
 713 601 l 1,189,-1
 766 617 l 2,190,191
 787 625 787 625 802 618 c 0,192,193
 818 612 818 612 837 593 c 0,194,195
 854 576 854 576 843 559 c 0,196,197
 813 522 813 522 809 473 c 0,140,141
185 463 m 0,198,199
 229 543 229 543 243 599 c 0,200,201
 257 657 257 657 257 682 c 1,202,203
 246 705 246 705 264 705 c 0,204,205
 286 707 286 707 311 689 c 0,206,207
 339 671 339 671 345 658 c 0,208,209
 350 644 350 644 341 635 c 2,210,-1
 285 538 l 1,211,-1
 221 432 l 1,212,-1
 247 404 l 2,213,214
 258 387 258 387 251 363 c 1,215,-1
 247 -29 l 2,216,217
 247 -73 247 -73 234 -100 c 0,218,219
 222 -126 222 -126 206 -114 c 0,220,221
 192 -100 192 -100 185 -74 c 0,222,223
 180 -41 180 -41 182 -29 c 0,224,225
 199 63 199 63 202 166 c 2,226,-1
 202 310 l 2,227,228
 201 344 201 344 192 377 c 2,229,-1
 189 388 l 1,230,231
 146 328 146 328 110 295 c 0,232,233
 88 274 88 274 75 270 c 0,234,235
 70 268 70 268 67.5 269.5 c 128,-1,236
 65 271 65 271 66 275 c 2,237,-1
 77 294 l 1,238,239
 143 386 143 386 185 463 c 0,198,199
EndSplineSet
EndChar
StartChar: u2A753
Encoding: 173907 173907 43
Width: 1024
Flags: W
LayerCount: 2
Back
Fore
SplineSet
232 466 m 0,0,1
 290 550 290 550 309 604 c 0,2,3
 332 664 332 664 332 692 c 1,4,5
 325 714 325 714 342 714 c 0,6,7
 364 712 364 712 387 694 c 0,8,9
 416 671 416 671 417 660 c 0,10,11
 422 646 422 646 412 637 c 2,12,-1
 343 538 l 1,13,-1
 270 441 l 1,14,-1
 277 436 l 1,15,-1
 303 408 l 2,16,17
 315 392 315 392 307 367 c 1,18,-1
 307 -25 l 2,19,20
 307 -70 307 -70 294 -96 c 0,21,22
 281 -121 281 -121 266 -110 c 0,23,24
 251 -97 251 -97 245 -70 c 0,25,26
 240 -45 240 -45 242 -25 c 0,27,28
 259 60 259 60 259 170 c 2,29,-1
 259 315 l 1,30,-1
 249 381 l 1,31,-1
 242 405 l 1,32,-1
 237 399 l 2,33,34
 181 334 181 334 133 296 c 0,35,36
 109 275 109 275 95 273 c 0,37,38
 90 272 90 272 88 274 c 128,-1,39
 86 276 86 276 87 279 c 2,40,-1
 99 297 l 1,41,42
 184 395 184 395 232 466 c 0,0,1
458 508 m 0,43,44
 498 552 498 552 521 590 c 0,45,46
 545 627 545 627 555 655 c 0,47,48
 565 685 565 685 565 701 c 0,49,50
 563 715 563 715 573 715 c 0,51,52
 584 717 584 717 601 709 c 0,53,54
 622 701 622 701 633 689 c 0,55,56
 646 676 646 676 646 667 c 0,57,58
 648 656 648 656 640 652 c 2,59,-1
 628 639 l 1,60,61
 648 630 648 630 670 608 c 0,62,63
 708 574 708 574 740 554 c 2,64,-1
 790 528 l 2,65,66
 803 520 803 520 863 505 c 2,67,-1
 931 485 l 2,68,69
 941 481 941 481 936 474 c 1,70,-1
 910 463 l 1,71,-1
 855 447 l 2,72,73
 822 437 822 437 798 449 c 1,74,75
 729 499 729 499 695 533 c 2,76,-1
 638 589 l 1,77,-1
 609 614 l 1,78,-1
 603 605 l 2,79,80
 570 560 570 560 533 523 c 0,81,82
 496 484 496 484 460 462 c 2,83,-1
 399 429 l 1,84,-1
 367 420 l 2,85,86
 357 421 357 421 366 427 c 0,87,88
 421 465 421 465 458 508 c 0,43,44
587 487 m 1,89,-1
 651 497 l 2,90,91
 680 505 680 505 703 497 c 0,92,93
 730 488 730 488 733 479 c 0,94,95
 737 470 737 470 728 464 c 1,96,-1
 683 456 l 1,97,-1
 621 449 l 1,98,-1
 632 439 l 2,99,100
 646 425 646 425 640 406 c 2,101,-1
 635 389 l 1,102,-1
 631 376 l 1,103,-1
 732 388 l 2,104,105
 755 393 755 393 769 385 c 2,106,-1
 802 363 l 2,107,108
 817 349 817 349 814 341 c 0,109,110
 808 333 808 333 792 333 c 2,111,-1
 724 335 l 1,112,-1
 608 331 l 1,113,-1
 499 317 l 2,114,115
 486 315 486 315 465 320 c 0,116,117
 450 326 450 326 434 342 c 0,118,119
 422 358 422 358 441 358 c 2,120,-1
 581 372 l 1,121,-1
 579 432 l 1,122,-1
 577 445 l 1,123,124
 555 444 555 444 538 447 c 0,125,126
 518 454 518 454 504 468 c 0,127,128
 492 483 492 483 515 483 c 2,129,-1
 587 487 l 1,89,-1
773 -37 m 2,130,131
 776 -66 776 -66 763 -96 c 2,132,-1
 742 -136 l 2,133,134
 733 -147 733 -147 723 -145 c 1,135,-1
 694 -124 l 2,136,137
 660 -96 660 -96 598 -61 c 0,138,139
 597 -57 597 -57 601.5 -55.5 c 128,-1,140
 606 -54 606 -54 615 -54 c 2,141,-1
 666 -56 l 2,142,143
 691 -60 691 -60 698 -51 c 0,144,145
 708 -37 708 -37 709 -6 c 2,146,-1
 711 57 l 1,147,-1
 652 51 l 1,148,-1
 558 42 l 2,149,150
 541 39 541 39 526 45 c 1,151,-1
 521 49 l 1,152,-1
 501 -12 l 1,153,154
 483 -54 483 -54 468 -71 c 2,155,-1
 444 -99 l 2,156,157
 431 -113 431 -113 423 -115 c 0,158,159
 416 -116 416 -116 416 -111 c 2,160,-1
 422 -96 l 1,161,-1
 446 -41 l 1,162,-1
 467 30 l 1,163,-1
 479 108 l 1,164,-1
 481 178 l 1,165,-1
 479 223 l 1,166,-1
 476 243 l 1,167,-1
 471 256 l 2,168,169
 464 268 464 268 474 273 c 0,170,171
 486 280 486 280 507 270 c 2,172,-1
 518 265 l 1,173,-1
 613 276 l 1,174,-1
 693 289 l 1,175,176
 710 296 710 296 732 282 c 2,177,-1
 770 253 l 2,178,179
 785 237 785 237 774 217 c 0,180,181
 763 198 763 198 761 141 c 1,182,-1
 773 -37 l 2,130,131
562 141 m 1,183,-1
 537 142 l 1,184,-1
 528 82 l 1,185,-1
 561 84 l 1,186,-1
 615 90 l 1,187,-1
 672 98 l 2,188,189
 692 103 692 103 703 96 c 2,190,-1
 710 93 l 1,191,-1
 710 153 l 1,192,-1
 649 149 l 1,193,-1
 562 141 l 1,183,-1
547 234 m 1,194,-1
 546 234 l 1,195,-1
 544 223 l 1,196,-1
 541 200 l 1,197,-1
 539 183 l 1,198,-1
 561 183 l 1,199,-1
 612 188 l 1,200,-1
 664 195 l 2,201,202
 682 199 682 199 695 192 c 2,203,-1
 708 186 l 1,204,-1
 703 235 l 2,205,206
 699 246 699 246 678 246 c 2,207,-1
 547 234 l 1,194,-1
EndSplineSet
EndChar
StartChar: u2A754
Encoding: 173908 173908 44
Width: 1024
Flags: W
LayerCount: 2
Back
Fore
SplineSet
205 455 m 0,0,1
 259 536 259 536 279 599 c 0,2,3
 300 660 300 660 300 690 c 1,4,5
 292 713 292 713 309 713 c 0,6,7
 329 713 329 713 355 694 c 0,8,9
 383 675 383 675 386 661 c 0,10,11
 391 647 391 647 382 638 c 0,12,13
 355 601 355 601 314 534 c 0,14,15
 273 470 273 470 240 427 c 1,16,17
 248 422 248 422 253 416 c 0,18,19
 269 402 269 402 279 388 c 0,20,21
 290 371 290 371 283 347 c 1,22,-1
 283 -13 l 2,23,24
 283 -57 283 -57 270 -84 c 0,25,26
 258 -110 258 -110 242 -98 c 0,27,28
 228 -84 228 -84 221 -58 c 0,29,30
 216 -25 216 -25 218 -13 c 0,31,32
 234 67 234 67 234 168 c 0,33,34
 236 282 236 282 233 303 c 0,35,36
 232 338 232 338 224 364 c 0,37,38
 219 382 219 382 215 393 c 1,39,40
 211 391 211 391 210 387 c 0,41,42
 157 320 157 320 108 277 c 0,43,44
 84 257 84 257 71 253 c 0,45,46
 65 253 65 253 63 254 c 128,-1,47
 61 255 61 255 62 259 c 0,48,49
 65 267 65 267 74 278 c 0,50,51
 153 374 153 374 205 455 c 0,0,1
494 373 m 0,52,53
 494 374 494 374 495 376 c 2,54,-1
 496 378 l 2,55,56
 495 378 495 378 491.5 377.5 c 128,-1,57
 488 377 488 377 485 377 c 0,58,59
 468 383 468 383 455 402 c 0,60,61
 445 419 445 419 427 455 c 1,62,-1
 425 458 l 1,63,-1
 414 442 l 2,64,65
 394 416 394 416 360 388 c 0,66,67
 351 381 351 381 346 380 c 0,68,69
 339 378 339 378 339 384 c 128,-1,70
 339 390 339 390 343 395 c 0,71,72
 381 449 381 449 404 498 c 0,73,74
 427 546 427 546 437 575 c 0,75,76
 447 603 447 603 450 632 c 0,77,78
 453 662 453 662 450 666 c 2,79,-1
 445 675 l 1,80,81
 447 689 447 689 456 692 c 0,82,83
 468 694 468 694 482 687 c 0,84,85
 499 679 499 679 513 664 c 0,86,87
 530 647 530 647 520 634 c 0,88,89
 509 614 509 614 498 586 c 0,90,91
 495 580 495 580 495 579 c 1,92,93
 528 594 528 594 543 603 c 0,94,95
 566 618 566 618 594 608 c 0,96,97
 625 599 625 599 631 588 c 128,-1,98
 637 577 637 577 633 567 c 0,99,100
 621 554 621 554 596 481 c 0,101,102
 569 407 569 407 525 340 c 0,103,104
 480 270 480 270 439 238 c 0,105,106
 397 204 397 204 374 200 c 0,107,108
 364 198 364 198 364.5 201.5 c 128,-1,109
 365 205 365 205 375 214 c 0,110,111
 453 296 453 296 494 373 c 0,52,53
545 500 m 0,112,113
 554 552 554 552 548 562 c 0,114,115
 546 567 546 567 516 554 c 1,116,117
 490 549 490 549 482 552 c 1,118,-1
 459 509 l 1,119,-1
 440 480 l 1,120,121
 454 476 454 476 476 459 c 0,122,123
 500 443 500 443 507 425 c 0,124,125
 510 414 510 414 510 406 c 1,126,127
 537 459 537 459 545 500 c 0,112,113
702 460 m 0,128,129
 697 370 697 370 697 354 c 0,130,131
 698 329 698 329 705 318 c 0,132,133
 716 305 716 305 725 299 c 0,134,135
 738 292 738 292 767 291 c 0,136,137
 808 291 808 291 830 293 c 0,138,139
 862 296 862 296 867 302 c 0,140,141
 880 321 880 321 892 390 c 0,142,143
 894 407 894 407 903 407 c 0,144,145
 913 406 913 406 913 387 c 0,146,147
 921 339 921 339 929 311 c 0,148,149
 939 283 939 283 938 264 c 1,150,151
 932 251 932 251 904 247 c 0,152,153
 877 243 877 243 812 238 c 0,154,155
 746 235 746 235 718 243 c 0,156,157
 686 254 686 254 676 270 c 0,158,159
 661 290 661 290 656 333 c 0,160,161
 654 392 654 392 656 425 c 2,162,-1
 660 524 l 2,163,164
 660 584 660 584 653 606 c 0,165,166
 648 632 648 632 657 636 c 0,167,168
 669 641 669 641 695 620 c 0,169,170
 697 618 697 618 698 618 c 2,171,-1
 741 621 l 1,172,-1
 777 627 l 1,173,174
 804 644 804 644 830 628 c 0,175,176
 860 612 860 612 860 602 c 0,177,178
 862 591 862 591 856 580 c 0,179,180
 846 565 846 565 846 505 c 0,181,182
 844 440 844 440 835 417 c 0,183,184
 825 394 825 394 811 377 c 1,185,186
 786 359 786 359 779 359 c 256,187,188
 772 359 772 359 764 368 c 0,189,190
 751 396 751 396 724 427 c 0,191,192
 718 438 718 438 719 440 c 0,193,194
 724 445 724 445 729 442 c 0,195,196
 766 429 766 429 772 429 c 0,197,198
 781 432 781 432 784 438 c 0,199,200
 791 449 791 449 794 474 c 0,201,202
 798 507 798 507 794 554 c 0,203,204
 796 575 796 575 790 582 c 0,205,206
 783 592 783 592 770 588 c 0,207,208
 741 587 741 587 724 582 c 1,209,-1
 716 582 l 1,210,-1
 716 580 l 1,211,212
 711 551 711 551 702 460 c 0,128,129
401 145 m 0,213,214
 405 155 405 155 411 155 c 0,215,216
 415 156 415 156 418.5 152.5 c 128,-1,217
 422 149 422 149 425 141 c 0,218,219
 430 123 430 123 429 95 c 0,220,221
 428 61 428 61 413 11 c 0,222,223
 404 -18 404 -18 385 -34 c 0,224,225
 364 -48 364 -48 357 -35 c 0,226,227
 347 -18 347 -18 347 -2 c 0,228,229
 347 18 347 18 354 28 c 0,230,231
 384 88 384 88 401 145 c 0,213,214
712 -92 m 0,232,233
 655 -86 655 -86 608 -68 c 1,234,235
 563 -46 563 -46 542 -28 c 0,236,237
 515 1 515 1 505 33 c 0,238,239
 492 69 492 69 488 114 c 0,240,241
 484 154 484 154 478 181 c 0,242,243
 475 199 475 199 480 202 c 0,244,245
 486 205 486 205 501 195 c 0,246,247
 516 183 516 183 517 158 c 0,248,249
 522 113 522 113 533 75 c 0,250,251
 546 34 546 34 569 15 c 0,252,253
 590 -6 590 -6 637 -20 c 0,254,255
 693 -32 693 -32 727 -31 c 0,256,257
 771 -29 771 -29 784 -21 c 0,258,259
 797 -8 797 -8 787 22 c 2,260,-1
 764 94 l 2,261,262
 763 101 763 101 765 101 c 0,263,264
 770 101 770 101 776 94 c 0,265,266
 851 10 851 10 877 -11 c 0,267,268
 901 -30 901 -30 904 -44 c 0,269,270
 906 -52 906 -52 879 -67 c 0,271,272
 853 -81 853 -81 820 -88 c 0,273,274
 767 -98 767 -98 712 -92 c 0,232,233
615 201 m 0,275,276
 655 190 655 190 669 181 c 0,277,278
 687 173 687 173 694 164 c 0,279,280
 703 155 703 155 706 127 c 0,281,282
 708 100 708 100 695 93 c 0,283,284
 680 86 680 86 668 96 c 0,285,286
 646 115 646 115 605 176 c 0,287,288
 594 193 594 193 597 199 c 0,289,290
 602 205 602 205 615 201 c 0,275,276
809 167 m 0,291,292
 802 179 802 179 802 188 c 0,293,294
 804 199 804 199 813 194 c 0,295,296
 834 187 834 187 864 172 c 0,297,298
 897 156 897 156 910 145 c 0,299,300
 924 130 924 130 928 99 c 0,301,302
 933 70 933 70 923 60 c 0,303,304
 913 51 913 51 904 54 c 0,305,306
 894 58 894 58 881 76 c 0,307,308
 845 130 845 130 809 167 c 0,291,292
EndSplineSet
EndChar
StartChar: u2A756
Encoding: 173910 173910 45
Width: 1024
Flags: W
LayerCount: 2
Back
Fore
SplineSet
225 463 m 0,0,1
 279 544 279 544 299 607 c 0,2,3
 320 668 320 668 320 698 c 1,4,5
 312 721 312 721 329 721 c 0,6,7
 349 721 349 721 375 702 c 0,8,9
 403 683 403 683 406 669 c 0,10,11
 411 655 411 655 402 646 c 0,12,13
 375 609 375 609 334 542 c 0,14,15
 293 478 293 478 260 435 c 1,16,17
 268 430 268 430 273 424 c 0,18,19
 289 410 289 410 299 396 c 0,20,21
 310 379 310 379 303 355 c 1,22,-1
 303 -5 l 2,23,24
 303 -49 303 -49 290 -76 c 0,25,26
 278 -102 278 -102 262 -90 c 0,27,28
 248 -76 248 -76 241 -50 c 0,29,30
 236 -17 236 -17 238 -5 c 0,31,32
 254 75 254 75 254 176 c 0,33,34
 256 290 256 290 253 311 c 0,35,36
 252 346 252 346 244 372 c 0,37,38
 239 390 239 390 235 401 c 1,39,40
 231 399 231 399 230 395 c 0,41,42
 177 328 177 328 128 285 c 0,43,44
 104 265 104 265 91 261 c 0,45,46
 85 261 85 261 83 262 c 128,-1,47
 81 263 81 263 82 267 c 0,48,49
 85 275 85 275 94 286 c 0,50,51
 173 382 173 382 225 463 c 0,0,1
616 665 m 2,52,53
 662 669 662 669 706 679 c 0,54,55
 739 687 739 687 761 678 c 0,56,57
 789 669 789 669 792 659 c 0,58,59
 797 648 797 648 788 642 c 0,60,61
 784 638 784 638 725 633 c 0,62,63
 673 628 673 628 658 626 c 1,64,65
 661 625 661 625 665 619 c 0,66,67
 679 601 679 601 669 585 c 1,68,-1
 661 561 l 2,69,70
 656 550 656 550 649 525 c 1,71,-1
 650 525 l 1,72,-1
 837 546 l 2,73,74
 862 551 862 551 878 542 c 0,75,76
 896 535 896 535 913 518 c 0,77,78
 930 504 930 504 926 494 c 0,79,80
 921 485 921 485 903 485 c 0,81,82
 886 486 886 486 801 488 c 0,83,84
 713 488 713 488 630 481 c 0,85,86
 537 471 537 471 468 459 c 0,87,88
 448 457 448 457 432 462 c 0,89,90
 415 469 415 469 398 486 c 1,91,92
 386 504 386 504 406 504 c 2,93,-1
 598 520 l 1,94,95
 609 610 609 610 609 615 c 2,96,-1
 609 621 l 1,97,-1
 592 618 l 2,98,99
 561 616 561 616 540 622 c 0,100,101
 520 630 520 630 504 644 c 1,102,103
 492 660 492 660 516 660 c 2,104,-1
 616 665 l 2,52,53
577 79 m 2,105,106
 589 64 589 64 597 46 c 0,107,108
 605 26 605 26 593 17 c 0,109,110
 584 11 584 11 565 -8 c 0,111,112
 546 -28 546 -28 517 -47 c 0,113,114
 486 -70 486 -70 469 -79 c 0,115,116
 454 -87 454 -87 418 -99 c 0,117,118
 408 -101 408 -101 403 -101 c 0,119,120
 397 -99 397 -99 398 -96 c 0,121,122
 399 -90 399 -90 406 -87 c 0,123,124
 444 -58 444 -58 471 -31 c 128,-1,125
 498 -4 498 -4 511 14 c 0,126,127
 523 30 523 30 533 50 c 0,128,129
 541 71 541 71 541 73 c 128,-1,130
 541 75 541 75 540 78 c 2,131,-1
 540 80 l 2,132,133
 541 81 541 81 541 85 c 1,134,-1
 537 85 l 1,135,136
 534 71 534 71 527 62 c 0,137,138
 517 49 517 49 504 69 c 0,139,140
 489 94 489 94 488 107 c 0,141,142
 488 132 488 132 491 148 c 0,143,144
 497 188 497 188 497 245 c 0,145,146
 499 308 499 308 495 340 c 0,147,148
 493 382 493 382 490 391 c 0,149,150
 489 404 489 404 484 410 c 0,151,152
 481 423 481 423 487 425 c 0,153,154
 498 429 498 429 506 425 c 0,155,156
 515 422 515 422 525 415 c 1,157,-1
 527 415 l 1,158,-1
 619 426 l 2,159,160
 670 434 670 434 705 441 c 0,161,162
 729 448 729 448 757 435 c 0,163,164
 786 420 786 420 799 403 c 0,165,166
 811 384 811 384 807 372 c 0,167,168
 796 340 796 340 792 256 c 0,169,170
 790 169 790 169 796 120 c 0,171,172
 798 103 798 103 784 77 c 0,173,174
 770 52 770 52 760 50 c 0,175,176
 748 50 748 50 738 71 c 0,177,178
 737 73 737 73 734.5 79 c 128,-1,179
 732 85 732 85 731 87 c 0,180,181
 702 87 702 87 647.5 85.5 c 128,-1,182
 593 84 593 84 572 84 c 1,183,-1
 577 79 l 2,105,106
579 178 m 2,184,185
 559 176 559 176 549 182 c 0,186,187
 548 184 548 184 542 186 c 1,188,-1
 542 120 l 1,189,190
 616 126 616 126 683 133 c 0,191,192
 714 138 714 138 734 122 c 1,193,194
 738 141 738 141 741 192 c 1,195,-1
 739 192 l 2,196,197
 737 191 737 191 735 191 c 2,198,-1
 668 186 l 1,199,-1
 579 178 l 2,184,185
575 274 m 2,200,201
 553 272 553 272 545 278 c 1,202,-1
 544 278 l 1,203,-1
 544 236 l 2,204,205
 544 232 544 232 543.5 226 c 128,-1,206
 543 220 543 220 543 216 c 1,207,208
 567 218 567 218 582 218 c 2,209,-1
 634 223 l 2,210,211
 642 224 642 224 660.5 226.5 c 128,-1,212
 679 229 679 229 688 231 c 0,213,214
 708 234 708 234 718 228 c 0,215,216
 734 220 734 220 742 215 c 1,217,-1
 743 215 l 1,218,219
 745 245 745 245 745 261 c 2,220,-1
 745 290 l 1,221,222
 739 287 739 287 735 287 c 2,223,-1
 667 282 l 1,224,-1
 575 274 l 2,200,201
576 383 m 0,225,226
 555 383 555 383 546 386 c 1,227,-1
 546 371 l 2,228,229
 544 361 544 361 544 312 c 1,230,231
 566 314 566 314 579 314 c 2,232,-1
 633 319 l 1,233,-1
 688 327 l 2,234,235
 708 330 708 330 718 324 c 2,236,-1
 742 310 l 1,237,-1
 744 310 l 1,238,239
 742 376 742 376 726 388 c 0,240,241
 717 398 717 398 682 394 c 0,242,243
 669 392 669 392 631.5 388.5 c 128,-1,244
 594 385 594 385 576 383 c 0,225,226
694 34 m 0,245,246
 686 45 686 45 686 56 c 0,247,248
 688 68 688 68 697 63 c 0,249,250
 727 50 727 50 763 28 c 0,251,252
 806 3 806 3 820 -12 c 0,253,254
 834 -28 834 -28 840 -59 c 0,255,256
 845 -91 845 -91 836 -100 c 0,257,258
 825 -110 825 -110 815 -107 c 0,259,260
 804 -102 804 -102 791 -83 c 0,261,262
 738 -12 738 -12 694 34 c 0,245,246
EndSplineSet
EndChar
StartChar: u2A757
Encoding: 173911 173911 46
Width: 1024
Flags: W
LayerCount: 2
Back
Fore
SplineSet
158 390 m 0,0,1
 175 429 175 429 178 453 c 0,2,3
 180 487 180 487 180 491 c 0,4,5
 173 507 173 507 184 507 c 0,6,7
 197 508 197 508 218 498 c 0,8,9
 239 486 239 486 242 478 c 0,10,11
 247 467 247 467 241 461 c 0,12,13
 232 446 232 446 217 418 c 0,14,15
 210 409 210 409 206 400 c 1,16,17
 227 394 227 394 236 387 c 0,18,19
 252 378 252 378 258 371 c 0,20,21
 265 365 265 365 268 343 c 0,22,23
 271 324 271 324 261 317 c 0,24,25
 250 312 250 312 241 319 c 0,26,27
 220 337 220 337 190 374 c 1,28,29
 184 367 184 367 179 358 c 0,30,31
 162 332 162 332 142 312 c 0,32,33
 128 298 128 298 118 292 c 0,34,35
 111 292 111 292 111 295 c 2,36,-1
 118 310 l 1,37,38
 143 353 143 353 158 390 c 0,0,1
388 403 m 0,39,40
 400 434 400 434 402 460 c 0,41,42
 404 482 404 482 402 493 c 0,43,44
 395 509 395 509 406 510 c 0,45,46
 423 512 423 512 442 502 c 0,47,48
 463 492 463 492 468 481 c 128,-1,49
 473 470 473 470 467 464 c 2,50,-1
 446 427 l 1,51,-1
 433 404 l 1,52,53
 454 391 454 391 463 382 c 0,54,55
 482 367 482 367 487 357 c 0,56,57
 492 350 492 350 492 329 c 0,58,59
 493 308 493 308 481 304 c 0,60,61
 468 302 468 302 462 308 c 0,62,63
 442 329 442 329 414 374 c 1,64,65
 395 347 395 347 382 334 c 0,66,67
 366 318 366 318 358 313 c 0,68,69
 354 312 354 312 352 312.5 c 128,-1,70
 350 313 350 313 351 316 c 0,71,72
 352 322 352 322 357 330 c 0,73,74
 375 368 375 368 388 403 c 0,39,40
340 -33 m 0,75,76
 342 -62 342 -62 335 -79 c 0,77,78
 331 -96 331 -96 322 -105 c 0,79,80
 314 -112 314 -112 307 -109 c 0,81,82
 302 -104 302 -104 292 -87 c 0,83,84
 285 -72 285 -72 277 -49 c 0,85,86
 272 -25 272 -25 277 -1 c 0,87,88
 287 56 287 56 287 176 c 2,89,-1
 287 207 l 1,90,91
 253 161 253 161 228 134 c 0,92,93
 195 102 195 102 164 77 c 0,94,95
 129 50 129 50 96 31 c 0,96,97
 79 25 79 25 70 30 c 1,98,99
 64 38 64 38 75 45 c 0,100,101
 132 90 132 90 170 135 c 0,102,103
 207 179 207 179 238 226 c 0,104,105
 265 267 265 267 287 321 c 1,106,107
 289 365 289 365 287 407 c 2,108,-1
 287 537 l 1,109,-1
 197 528 l 2,110,111
 173 526 173 526 163 532 c 0,112,113
 145 546 145 546 136 554 c 0,114,115
 124 569 124 569 150 570 c 2,116,-1
 230 575 l 1,117,-1
 286 580 l 1,118,-1
 286 584 l 1,119,120
 281 652 281 652 269 700 c 0,121,122
 264 715 264 715 274 721 c 0,123,124
 285 729 285 729 317 710 c 0,125,126
 350 692 350 692 353 682 c 0,127,128
 355 668 355 668 349 652 c 0,129,130
 343 623 343 623 342 586 c 1,131,132
 371 589 371 589 416 597 c 0,133,134
 439 599 439 599 449 593 c 2,135,-1
 476 579 l 2,136,137
 488 571 488 571 487 562 c 0,138,139
 485 552 485 552 468 552 c 2,140,-1
 352 543 l 1,141,-1
 340 543 l 1,142,143
 336 429 336 429 336 316 c 2,144,-1
 336 274 l 1,145,146
 350 266 350 266 398 234 c 0,147,148
 440 207 440 207 459 185 c 0,149,150
 473 171 473 171 476 141 c 0,151,152
 480 112 480 112 471 103 c 0,153,154
 462 95 462 95 452 98 c 0,155,156
 444 103 444 103 431 120 c 0,157,158
 381 187 381 187 336 239 c 1,159,160
 338 26 338 26 340 -33 c 0,75,76
588 389 m 2,161,162
 581 380 581 380 584.5 375 c 128,-1,163
 588 370 588 370 603 371 c 0,164,165
 674 383 674 383 786 396 c 1,166,-1
 744 474 l 2,167,168
 739 488 739 488 741 495 c 0,169,170
 746 507 746 507 753 500 c 0,171,172
 776 484 776 484 807 454 c 0,173,174
 842 424 842 424 852 405 c 0,175,176
 861 388 861 388 861 357 c 0,177,178
 860 327 860 327 848 319 c 0,179,180
 837 311 837 311 827 317 c 128,-1,181
 817 323 817 323 810 344 c 0,182,183
 805 353 805 353 799 369 c 0,184,185
 796 368 796 368 776 361 c 1,186,187
 748 359 748 359 729 353 c 1,188,189
 747 350 747 350 764 333 c 0,190,191
 782 315 782 315 778 298 c 0,192,193
 776 294 776 294 767 258 c 0,194,195
 760 223 760 223 756 156 c 0,196,197
 754 54 754 54 754 49 c 0,198,199
 755 14 755 14 759 5 c 0,200,201
 765 -7 765 -7 769 -12 c 0,202,203
 778 -21 778 -21 790 -25 c 0,204,205
 817 -28 817 -28 831 -28 c 0,206,207
 858 -26 858 -26 876 -22 c 0,208,209
 895 -15 895 -15 899 -8 c 0,210,211
 908 7 908 7 913 41 c 0,212,213
 922 91 922 91 923 97 c 0,214,215
 925 107 925 107 927.5 110.5 c 128,-1,216
 930 114 930 114 933 112 c 0,217,218
 941 109 941 109 941 96 c 0,219,220
 956 25 956 25 963 0 c 0,221,222
 974 -32 974 -32 964 -59 c 1,223,224
 951 -72 951 -72 921 -79 c 0,225,226
 889 -87 889 -87 847 -87 c 0,227,228
 804 -87 804 -87 781 -81 c 0,229,230
 760 -73 760 -73 741 -59 c 0,231,232
 723 -43 723 -43 716 -31 c 0,233,234
 710 -13 710 -13 707 -3 c 0,235,236
 703 17 703 17 702 62 c 0,237,238
 702 144 702 144 705 205 c 2,239,-1
 709 310 l 2,240,241
 708 323 708 323 703 332 c 0,242,243
 701 345 701 345 702 348 c 2,244,-1
 638 334 l 1,245,246
 652 326 652 326 658 313 c 0,247,248
 668 299 668 299 658 289 c 0,249,250
 656 283 656 283 650 263 c 0,251,252
 646 249 646 249 638 210 c 0,253,254
 629 172 629 172 610 121 c 0,255,256
 589 68 589 68 563 28 c 0,257,258
 538 -13 538 -13 515 -33 c 2,259,-1
 482 -61 l 2,260,261
 465 -73 465 -73 459 -73 c 0,262,263
 451 -73 451 -73 454 -67 c 0,264,265
 455 -62 455 -62 462 -55 c 0,266,267
 482 -31 482 -31 501 2 c 0,268,269
 523 38 523 38 540 78 c 0,270,271
 558 118 558 118 571 164 c 0,272,273
 584 206 584 206 589 242 c 0,274,275
 596 277 596 277 596 293 c 0,276,277
 597 302 597 302 597 316 c 0,278,279
 597 319 597 319 596.5 322 c 128,-1,280
 596 325 596 325 596 326 c 2,281,-1
 549 314 l 2,282,283
 537 309 537 309 525 321 c 0,284,285
 515 334 515 334 510 350 c 0,286,287
 508 368 508 368 525 379 c 1,288,289
 560 419 560 419 603 492 c 0,290,291
 641 558 641 558 667 614 c 1,292,-1
 667 652 l 2,293,294
 667 666 667 666 677 672 c 0,295,296
 689 677 689 677 714 655 c 0,297,298
 740 632 740 632 743 622 c 0,299,300
 744 613 744 613 731 594 c 2,301,-1
 588 389 l 2,161,162
EndSplineSet
EndChar
StartChar: u2A75B
Encoding: 173915 173915 47
Width: 1024
Flags: W
LayerCount: 2
Back
Fore
SplineSet
165 455 m 0,0,1
 211 539 211 539 223 598 c 0,2,3
 235 651 235 651 235 685 c 1,4,5
 224 706 224 706 242 708 c 0,6,7
 262 710 262 710 287 693 c 0,8,9
 317 676 317 676 321 664 c 0,10,11
 325 651 325 651 318 641 c 0,12,13
 301 614 301 614 263 538 c 0,14,15
 231 477 231 477 196 423 c 1,16,17
 202 420 202 420 205 416 c 0,18,19
 222 400 222 400 231 388 c 0,20,21
 243 372 243 372 235 347 c 1,22,23
 233 298 233 298 231 -13 c 0,24,25
 231 -58 231 -58 218 -84 c 0,26,27
 205 -109 205 -109 190 -98 c 0,28,29
 175 -85 175 -85 169 -58 c 0,30,31
 164 -33 164 -33 166 -13 c 0,32,33
 182 69 182 69 184 168 c 0,34,35
 188 260 188 260 184 302 c 0,36,37
 181 339 181 339 175 364 c 0,38,39
 174 367 174 367 170 383 c 1,40,41
 123 317 123 317 88 280 c 0,42,43
 65 257 65 257 55 254 c 0,44,45
 44 251 44 251 46 258 c 0,46,47
 51 269 51 269 56 277 c 0,48,49
 123 375 123 375 165 455 c 0,0,1
408 274 m 2,50,51
 398 273 398 273 386 275 c 0,52,53
 384 277 384 277 382 277 c 0,54,55
 375 230 375 230 372 212 c 1,56,-1
 420 218 l 2,57,58
 479 228 479 228 494 231 c 1,59,60
 512 240 512 240 532 224 c 0,61,62
 556 207 556 207 562 199 c 0,63,64
 575 188 575 188 576 176 c 0,65,66
 579 163 579 163 569 150 c 0,67,68
 558 137 558 137 556 120 c 0,69,70
 548 88 548 88 540 60 c 0,71,72
 526 13 526 13 515 -9 c 0,73,74
 499 -36 499 -36 490 -44 c 0,75,76
 463 -68 463 -68 451 -68 c 0,77,78
 437 -65 437 -65 431 -51 c 0,79,80
 416 -22 416 -22 386 9 c 0,81,82
 376 24 376 24 378 26 c 0,83,84
 382 30 382 30 391 25 c 0,85,86
 410 19 410 19 437 15 c 0,87,88
 449 11 449 11 459 11 c 0,89,90
 470 14 470 14 479 28 c 0,91,92
 490 55 490 55 493 80 c 0,93,94
 499 104 499 104 499 142 c 0,95,96
 497 178 497 178 494 180 c 0,97,98
 487 187 487 187 467 185 c 2,99,-1
 422 179 l 2,100,101
 399 175 399 175 389 175 c 0,102,103
 383 174 383 174 371 174 c 0,104,105
 368 175 368 175 366 175 c 0,106,107
 362 154 362 154 355 124 c 0,108,109
 332 41 332 41 309 3 c 2,110,-1
 271 -57 l 2,111,112
 257 -73 257 -73 251 -75 c 0,113,114
 244 -76 244 -76 244 -70 c 0,115,116
 245 -67 245 -67 246.5 -62 c 128,-1,117
 248 -57 248 -57 248 -56 c 0,118,119
 271 -7 271 -7 289 46 c 0,120,121
 313 108 313 108 320 182 c 0,122,123
 322 191 322 191 322 201 c 2,124,-1
 322 202 l 1,125,126
 332 269 332 269 334 326 c 0,127,128
 339 382 339 382 339 453 c 128,-1,129
 339 524 339 524 338 538 c 0,130,131
 337 560 337 560 333 573 c 2,132,-1
 324 597 l 1,133,134
 326 605 326 605 332 610 c 0,135,136
 341 617 341 617 361 611 c 0,137,138
 384 603 384 603 393 594 c 0,139,140
 395 593 395 593 395 591 c 2,141,-1
 435 609 l 1,142,-1
 469 631 l 2,143,144
 481 642 481 642 485 651 c 0,145,146
 492 661 492 661 497 661 c 0,147,148
 504 662 504 662 529 650 c 0,149,150
 557 638 557 638 564 626 c 0,151,152
 574 613 574 613 570 609 c 0,153,154
 566 602 566 602 545 599 c 2,155,-1
 481 581 l 2,156,157
 458 575 458 575 429 572 c 0,158,159
 417 571 417 571 399 571 c 1,160,-1
 399 569 l 2,161,162
 396 551 396 551 396 527 c 0,163,164
 395 520 395 520 395 498 c 1,165,-1
 435 508 l 2,166,167
 472 521 472 521 497 528 c 0,168,169
 519 537 519 537 545 523 c 0,170,171
 575 510 575 510 587 499 c 0,172,173
 600 487 600 487 587 469 c 0,174,175
 576 449 576 449 563 396 c 2,176,-1
 543 314 l 1,177,178
 563 300 563 300 563 293 c 0,179,180
 560 284 560 284 551 284 c 2,181,-1
 408 274 l 2,50,51
420 366 m 2,182,183
 404 362 404 362 390 367 c 1,184,-1
 389 367 l 1,185,186
 387 346 387 346 385 306 c 1,187,188
 438 316 438 316 492 323 c 0,189,190
 497 325 497 325 504 325 c 1,191,-1
 511 381 l 1,192,-1
 478 375 l 1,193,-1
 420 366 l 2,182,183
471 417 m 0,194,195
 489 421 489 421 501 416 c 0,196,197
 509 414 509 414 514 412 c 1,198,-1
 514 416 l 2,199,200
 517 471 517 471 509 479 c 0,201,202
 506 481 506 481 483 478 c 2,203,-1
 421 469 l 2,204,205
 406 465 406 465 393 465 c 1,206,-1
 393 439 l 2,207,208
 391 415 391 415 391 402 c 1,209,210
 396 403 396 403 404 403 c 2,211,-1
 437 409 l 2,212,213
 443 410 443 410 454.5 413 c 128,-1,214
 466 416 466 416 471 417 c 0,194,195
677 27 m 0,215,216
 701 54 701 54 719 85 c 1,217,-1
 689 137 l 1,218,219
 630 251 630 251 603 271 c 0,220,221
 598 277 598 277 598 280 c 0,222,223
 595 285 595 285 595 290 c 0,224,225
 599 298 599 298 618 298 c 0,226,227
 662 299 662 299 708 306 c 2,228,-1
 773 318 l 1,229,230
 806 329 806 329 826 321 c 0,231,232
 851 312 851 312 861 299 c 0,233,234
 874 284 874 284 856 266 c 0,235,236
 838 247 838 247 826 207 c 0,237,238
 808 140 808 140 776 85 c 1,239,-1
 799 61 l 1,240,-1
 855 8 l 2,241,242
 874 -8 874 -8 902 -28 c 0,243,244
 926 -45 926 -45 946 -55 c 0,245,246
 965 -67 965 -67 965 -73 c 0,247,248
 965 -81 965 -81 938 -87 c 0,249,250
 914 -93 914 -93 862 -95 c 0,251,252
 835 -95 835 -95 792 -35 c 0,253,254
 775 -10 775 -10 746 37 c 1,255,256
 718 1 718 1 689 -21 c 0,257,258
 647 -51 647 -51 576 -77 c 0,259,260
 554 -86 554 -86 545 -84 c 0,261,262
 538 -80 538 -80 553 -71 c 0,263,264
 637 -21 637 -21 677 27 c 0,215,216
774 258 m 0,265,266
 777 281 777 281 767 284 c 1,267,268
 750 277 750 277 700 268 c 0,269,270
 657 262 657 262 654 261 c 1,271,272
 675 235 675 235 702 191 c 2,273,-1
 741 133 l 1,274,275
 763 185 763 185 774 258 c 0,265,266
820 481 m 0,276,277
 819 431 819 431 831 410 c 0,278,279
 838 404 838 404 849 401 c 0,280,281
 862 399 862 399 877 404 c 0,282,283
 901 417 901 417 914 407 c 0,284,285
 930 400 930 400 941 384 c 128,-1,286
 952 368 952 368 939 361 c 0,287,288
 914 350 914 350 873 350 c 0,289,290
 831 351 831 351 810 363 c 0,291,292
 790 377 790 377 787 393 c 0,293,294
 774 425 774 425 777 470 c 2,295,-1
 777 563 l 2,296,297
 780 578 780 578 776 584 c 128,-1,298
 772 590 772 590 751 587 c 0,299,300
 727 580 727 580 700 575 c 1,301,-1
 698 575 l 1,302,303
 697 570 697 570 697 559 c 0,304,305
 697 501 697 501 693 470 c 0,306,307
 689 437 689 437 679 413 c 0,308,309
 667 388 667 388 656 374 c 0,310,311
 638 356 638 356 622 344 c 0,312,313
 606 329 606 329 593 329 c 0,314,315
 583 328 583 328 583 333 c 0,316,317
 589 342 589 342 596 351 c 2,318,-1
 616 379 l 2,319,320
 632 403 632 403 639 433 c 0,321,322
 648 465 648 465 645 508 c 0,323,324
 642 552 642 552 639 571 c 0,325,326
 635 594 635 594 628 604 c 0,327,328
 622 622 622 622 632 624 c 0,329,330
 643 630 643 630 673 617 c 2,331,-1
 686 611 l 1,332,-1
 729 618 l 2,333,334
 754 626 754 626 781 632 c 1,335,336
 800 641 800 641 815 633 c 0,337,338
 834 624 834 624 848 609 c 0,339,340
 864 593 864 593 854 577 c 0,341,342
 820 536 820 536 820 481 c 0,276,277
EndSplineSet
EndChar
StartChar: u2A75E
Encoding: 173918 173918 48
Width: 1024
Flags: W
LayerCount: 2
Back
Fore
SplineSet
205 459 m 0,0,1
 259 540 259 540 279 603 c 0,2,3
 300 664 300 664 300 694 c 1,4,5
 292 717 292 717 309 717 c 0,6,7
 329 717 329 717 355 698 c 0,8,9
 383 679 383 679 386 665 c 0,10,11
 391 651 391 651 382 642 c 0,12,13
 355 605 355 605 314 538 c 0,14,15
 273 474 273 474 240 431 c 1,16,17
 248 426 248 426 253 420 c 0,18,19
 269 406 269 406 279 392 c 0,20,21
 290 375 290 375 283 351 c 1,22,-1
 283 -9 l 2,23,24
 283 -53 283 -53 270 -80 c 0,25,26
 258 -106 258 -106 242 -94 c 0,27,28
 228 -80 228 -80 221 -54 c 0,29,30
 216 -21 216 -21 218 -9 c 0,31,32
 234 71 234 71 234 172 c 0,33,34
 236 286 236 286 233 307 c 0,35,36
 232 342 232 342 224 368 c 0,37,38
 219 386 219 386 215 397 c 1,39,40
 211 395 211 395 210 391 c 0,41,42
 157 324 157 324 108 281 c 0,43,44
 84 261 84 261 71 257 c 0,45,46
 65 257 65 257 63 258 c 128,-1,47
 61 259 61 259 62 263 c 0,48,49
 65 271 65 271 74 282 c 0,50,51
 153 378 153 378 205 459 c 0,0,1
488 656 m 0,52,53
 530 636 530 636 546 621 c 0,54,55
 563 606 563 606 570 595 c 0,56,57
 576 586 576 586 576 560 c 0,58,59
 576 535 576 535 562 530 c 0,60,61
 547 527 547 527 538 536 c 0,62,63
 519 557 519 557 476 634 c 0,64,65
 468 651 468 651 472 656 c 0,66,67
 477 663 477 663 488 656 c 0,52,53
793 658 m 0,68,69
 806 644 806 644 787 631 c 0,70,71
 769 620 769 620 752 603 c 2,72,-1
 719 575 l 2,73,74
 706 562 706 562 665 534 c 0,75,76
 658 532 658 532 656 535 c 128,-1,77
 654 538 654 538 657 545 c 0,78,79
 681 585 681 585 686 593 c 0,80,81
 701 618 701 618 709 638 c 0,82,83
 717 662 717 662 713 672 c 0,84,85
 711 686 711 686 720 688 c 0,86,87
 733 692 733 692 755 682 c 0,88,89
 781 671 781 671 793 658 c 0,68,69
417 476 m 0,90,91
 516 478 516 478 593 483 c 0,92,93
 684 491 684 491 751 505 c 0,94,95
 782 513 782 513 806 503 c 0,96,97
 833 492 833 492 836 483 c 0,98,99
 840 473 840 473 831 466 c 0,100,101
 822 460 822 460 723 452 c 2,102,-1
 491 432 l 2,103,104
 460 430 460 430 440 437 c 0,105,106
 419 445 419 445 405 460 c 0,107,108
 393 476 393 476 417 476 c 0,90,91
513 393 m 0,109,110
 513 404 513 404 521 404 c 0,111,112
 533 404 533 404 545 398 c 0,113,114
 563 390 563 390 571 378 c 0,115,116
 581 367 581 367 581 358 c 0,117,118
 581 350 581 350 574 346 c 0,119,120
 569 343 569 343 548 320 c 0,121,122
 524 294 524 294 500 276 c 0,123,124
 473 255 473 255 451 245 c 0,125,126
 426 234 426 234 411 230 c 0,127,128
 405 229 405 229 398.5 228 c 128,-1,129
 392 227 392 227 391 227 c 0,130,131
 383 230 383 230 390 234 c 0,132,133
 424 257 424 257 446 280 c 0,134,135
 472 307 472 307 485 328 c 0,136,137
 501 352 501 352 506 366 c 0,138,139
 513 383 513 383 513 393 c 0,109,110
694 372 m 0,140,141
 686 383 686 383 686 392 c 0,142,143
 688 404 688 404 697 399 c 0,144,145
 724 388 724 388 759 368 c 0,146,147
 800 348 800 348 815 332 c 0,148,149
 829 318 829 318 835 288 c 0,150,151
 840 257 840 257 831 248 c 0,152,153
 821 238 821 238 812 241 c 0,154,155
 801 246 801 246 788 263 c 0,156,157
 737 328 737 328 694 372 c 0,140,141
774 212 m 1,158,159
 804 220 804 220 822 202 c 0,160,161
 842 184 842 184 847 168 c 0,162,163
 852 154 852 154 842 144 c 1,164,165
 825 103 825 103 806 7 c 1,166,-1
 873 13 l 2,167,168
 897 18 897 18 914 8 c 0,169,170
 934 -3 934 -3 949 -18 c 0,171,172
 966 -32 966 -32 961 -42 c 0,173,174
 956 -50 956 -50 937 -50 c 2,175,-1
 808 -43 l 2,176,177
 702 -38 702 -38 592 -46 c 0,178,179
 478 -52 478 -52 388 -68 c 0,180,181
 367 -68 367 -68 351 -63 c 0,182,183
 331 -54 331 -54 318 -38 c 0,184,185
 306 -21 306 -21 327 -21 c 0,186,187
 392 -16 392 -16 442 -16 c 1,188,189
 423 98 423 98 417 118 c 0,190,191
 409 148 409 148 394 172 c 1,192,193
 396 187 396 187 399 190 c 0,194,195
 404 195 404 195 422 191 c 0,196,197
 433 189 433 189 445 182 c 1,198,199
 613 199 613 199 774 212 c 1,158,159
539 110 m 0,200,201
 535 130 535 130 523 156 c 1,202,-1
 477 150 l 1,203,-1
 474 150 l 2,204,205
 475 148 475 148 475 140 c 0,206,207
 475 114 475 114 477 87 c 2,208,-1
 483 -14 l 1,209,210
 516 -10 516 -10 557 -10 c 1,211,212
 544 88 544 88 539 110 c 0,200,201
772 118 m 0,213,214
 773 161 773 161 764 165 c 0,215,216
 756 170 756 170 700 168 c 1,217,218
 704 166 704 166 706 163 c 0,219,220
 720 149 720 149 716 136 c 0,221,222
 712 121 712 121 712 119 c 2,223,-1
 704 70 l 2,224,225
 700 38 700 38 692 -2 c 1,226,227
 714 1 714 1 758 3 c 1,228,229
 770 94 770 94 772 118 c 0,213,214
659 153 m 1,230,-1
 654 167 l 1,231,232
 616 166 616 166 575 161 c 1,233,234
 589 150 589 150 588 131 c 0,235,236
 586 119 586 119 589 81 c 0,237,238
 591 54 591 54 593 -8 c 1,239,240
 623 -6 623 -6 636 -6 c 0,241,242
 646 -4 646 -4 653 -4 c 1,243,-1
 659 106 l 1,244,-1
 659 153 l 1,230,-1
EndSplineSet
EndChar
StartChar: u2A760
Encoding: 173920 173920 49
Width: 1024
Flags: W
LayerCount: 2
Back
Fore
SplineSet
582 220 m 0,0,1
 574 206 574 206 566 205 c 128,-1,2
 558 204 558 204 551 215 c 0,3,4
 547 222 547 222 547 225 c 2,5,-1
 494 223 l 1,6,-1
 492 223 l 1,7,-1
 492 150 l 1,8,-1
 568 163 l 2,9,10
 587 167 587 167 603 160 c 0,11,12
 626 150 626 150 631 146 c 0,13,14
 644 137 644 137 643 128 c 0,15,16
 640 117 640 117 624 117 c 0,17,18
 564 112 564 112 514 107 c 0,19,20
 496 105 496 105 492 105 c 2,21,-1
 495 -31 l 2,22,23
 495 -60 495 -60 491 -76 c 0,24,25
 485 -95 485 -95 478 -101 c 0,26,27
 472 -107 472 -107 464 -105 c 0,28,29
 456 -99 456 -99 449 -84 c 0,30,31
 439 -63 439 -63 434 -47 c 0,32,33
 430 -29 430 -29 434 -1 c 0,34,35
 442 42 442 42 442 98 c 1,36,37
 392 92 392 92 368 88 c 0,38,39
 347 85 347 85 332 92 c 0,40,41
 322 99 322 99 304 115 c 0,42,43
 291 131 291 131 318 131 c 0,44,45
 366 137 366 137 392 138 c 2,46,-1
 443 144 l 1,47,48
 444 152 444 152 444 164 c 2,49,-1
 444 221 l 1,50,-1
 412 218 l 2,51,52
 394 217 394 217 383 223 c 1,53,-1
 381 223 l 1,54,55
 376 198 376 198 374 192 c 1,56,57
 360 191 360 191 352 200 c 0,58,59
 338 226 338 226 338 294 c 0,60,61
 336 368 336 368 322 436 c 1,62,63
 311 453 311 453 318 455 c 0,64,65
 326 459 326 459 346 452 c 0,66,67
 364 447 364 447 369 442 c 1,68,-1
 422 447 l 2,69,70
 431 450 431 450 444 450 c 1,71,-1
 444 512 l 1,72,-1
 428 509 l 2,73,74
 403 505 403 505 377 511 c 0,75,76
 357 518 357 518 340 533 c 0,77,78
 327 549 327 549 351 549 c 0,79,80
 401 552 401 552 437 555 c 0,81,82
 439 556 439 556 442 556 c 1,83,84
 436 610 436 610 427 653 c 0,85,86
 423 668 423 668 431 673 c 0,87,88
 442 680 442 680 473 663 c 0,89,90
 507 645 507 645 508 635 c 0,91,92
 510 626 510 626 504 607 c 0,93,94
 500 591 500 591 498 566 c 1,95,-1
 514 569 l 1,96,97
 543 579 543 579 569 569 c 0,98,99
 598 560 598 560 601 551 c 0,100,101
 607 541 607 541 597 534 c 0,102,103
 591 530 591 530 543 525 c 2,104,-1
 495 519 l 1,105,106
 493 481 493 481 493 457 c 1,107,-1
 499 457 l 1,108,-1
 553 465 l 1,109,110
 566 472 566 472 588 466 c 0,111,112
 614 458 614 458 628 447 c 0,113,114
 644 434 644 434 632 417 c 0,115,116
 618 398 618 398 609 372 c 1,117,118
 597 249 597 249 582 220 c 0,0,1
558 326 m 1,119,-1
 556 325 l 1,120,121
 513 322 513 322 492 320 c 1,122,-1
 492 262 l 1,123,124
 500 264 500 264 512 264 c 0,125,126
 528 267 528 267 540 260 c 0,127,128
 546 259 546 259 550 255 c 1,129,130
 557 285 557 285 558 326 c 1,119,-1
444 316 m 1,131,132
 427 315 427 315 400 311 c 1,133,-1
 381 311 l 2,134,135
 382 308 382 308 382 304 c 2,136,-1
 382 254 l 1,137,138
 393 255 393 255 415 255 c 0,139,140
 425 257 425 257 444 257 c 1,141,-1
 444 316 l 1,131,132
555 423 m 1,142,143
 550 427 550 427 492 422 c 1,144,-1
 492 359 l 1,145,146
 500 362 500 362 512 362 c 0,147,148
 527 366 527 366 540 359 c 0,149,150
 554 354 554 354 560 349 c 1,151,152
 564 423 564 423 555 423 c 1,142,143
380 347 m 1,153,154
 389 349 389 349 406 349 c 0,155,156
 423 353 423 353 444 353 c 1,157,158
 445 363 445 363 445 379 c 0,159,160
 444 394 444 394 444 419 c 1,161,-1
 389 413 l 1,162,-1
 378 413 l 1,163,-1
 380 347 l 1,153,154
190 455 m 0,164,165
 240 542 240 542 255 598 c 0,166,167
 270 653 270 653 270 687 c 1,168,169
 260 709 260 709 278 709 c 0,170,171
 296 712 296 712 323 693 c 0,172,173
 352 675 352 675 356 663 c 0,174,175
 362 651 362 651 352 641 c 2,176,-1
 292 536 l 2,177,178
 259 479 259 479 223 425 c 0,179,180
 224 424 224 424 228 421 c 128,-1,181
 232 418 232 418 233 416 c 0,182,183
 250 400 250 400 259 388 c 0,184,185
 271 372 271 372 263 347 c 1,186,187
 261 298 261 298 259 -13 c 0,188,189
 259 -58 259 -58 246 -84 c 0,190,191
 233 -109 233 -109 218 -98 c 0,192,193
 203 -85 203 -85 197 -58 c 0,194,195
 192 -33 192 -33 194 -13 c 0,196,197
 210 69 210 69 212 168 c 0,198,199
 216 260 216 260 212 302 c 0,200,201
 209 339 209 339 203 364 c 0,202,203
 200 380 200 380 197 387 c 1,204,205
 143 315 143 315 105 278 c 0,206,207
 81 257 81 257 71 254 c 0,208,209
 60 251 60 251 62 258 c 0,210,211
 65 265 65 265 73 277 c 0,212,213
 141 368 141 368 190 455 c 0,164,165
739 440 m 0,214,215
 741 424 741 424 741 418 c 1,216,-1
 782 430 l 1,217,218
 819 445 819 445 837 440 c 0,219,220
 858 436 858 436 870 425 c 0,221,222
 882 413 882 413 864 408 c 2,223,-1
 804 389 l 1,224,-1
 746 372 l 1,225,226
 754 310 754 310 766 252 c 2,227,-1
 772 228 l 1,228,229
 790 257 790 257 795 273 c 0,230,231
 805 302 805 302 805 317 c 0,232,233
 804 329 804 329 812 329 c 0,234,235
 822 330 822 330 836 324 c 0,236,237
 856 316 856 316 863 307 c 0,238,239
 875 298 875 298 875 287 c 0,240,241
 876 278 876 278 870 275 c 0,242,243
 862 268 862 268 835 229 c 0,244,245
 816 203 816 203 788 171 c 1,246,247
 790 165 790 165 810 120 c 0,248,249
 833 70 833 70 856 38 c 1,250,251
 880 12 880 12 885 12 c 0,252,253
 898 18 898 18 907 86 c 0,254,255
 914 111 914 111 921 111 c 0,256,257
 931 110 931 110 931 80 c 0,258,259
 931 70 931 70 932.5 48 c 128,-1,260
 934 26 934 26 934 16 c 0,261,262
 935 6 935 6 937 -7 c 128,-1,263
 939 -20 939 -20 940 -29 c 128,-1,264
 941 -38 941 -38 941 -44 c 0,265,266
 951 -88 951 -88 941 -100 c 0,267,268
 931 -110 931 -110 916 -110 c 0,269,270
 901 -109 901 -109 873 -85 c 1,271,272
 842 -51 842 -51 809 0 c 0,273,274
 777 52 777 52 754 120 c 0,275,276
 750 127 750 127 750 131 c 1,277,278
 722 106 722 106 702 93 c 0,279,280
 665 69 665 69 644 61 c 0,281,282
 620 51 620 51 615 51 c 0,283,284
 607 55 607 55 613 58 c 0,285,286
 663 92 663 92 702 134 c 2,287,-1
 737 175 l 1,288,289
 722 238 722 238 711 298 c 0,290,291
 705 328 705 328 701 358 c 1,292,-1
 698 358 l 1,293,294
 679 353 679 353 660 358 c 0,295,296
 647 364 647 364 630 374 c 1,297,298
 620 387 620 387 638 389 c 2,299,-1
 696 404 l 1,300,301
 690 452 690 452 688 516 c 0,302,303
 686 558 686 558 678 590 c 0,304,305
 668 627 668 627 658 638 c 0,306,307
 648 654 648 654 660 654 c 0,308,309
 669 656 669 656 685 656 c 0,310,311
 700 654 700 654 719 638 c 0,312,313
 743 621 743 621 745 612 c 0,314,315
 749 603 749 603 738 575 c 0,316,317
 733 554 733 554 739 440 c 0,214,215
781 577 m 0,318,319
 819 572 819 572 830 567 c 0,320,321
 849 561 849 561 853 555 c 0,322,323
 864 546 864 546 868 522 c 0,324,325
 875 497 875 497 862 487 c 0,326,327
 849 480 849 480 836 488 c 0,328,329
 817 502 817 502 775 552 c 0,330,331
 763 567 763 567 765 573 c 0,332,333
 769 580 769 580 781 577 c 0,318,319
EndSplineSet
EndChar
StartChar: u2A761
Encoding: 173921 173921 50
Width: 1024
Flags: W
LayerCount: 2
Back
Fore
SplineSet
484 645 m 0,0,1
 474 661 474 661 484 665 c 0,2,3
 501 671 501 671 510 667 c 0,4,5
 524 666 524 666 537 658 c 0,6,7
 551 652 551 652 551 636 c 2,8,-1
 556 587 l 1,9,10
 571 588 571 588 599 588 c 0,11,12
 611 588 611 588 612 581 c 0,13,14
 612 572 612 572 602 568 c 0,15,16
 596 566 596 566 576 560 c 0,17,18
 564 558 564 558 557 555 c 1,19,20
 558 547 558 547 558 529 c 0,21,22
 560 508 560 508 556 497 c 0,23,24
 553 486 553 486 540 495 c 0,25,26
 531 504 531 504 526 522 c 0,27,28
 526 526 526 526 524 534 c 128,-1,29
 522 542 522 542 522 546 c 2,30,-1
 479 533 l 1,31,32
 462 533 462 533 442 541 c 0,33,34
 424 551 424 551 413 563 c 0,35,36
 405 577 405 577 406 580 c 0,37,38
 409 585 409 585 419 585 c 2,39,-1
 490 585 l 2,40,41
 497 586 497 586 510 586 c 1,42,43
 498 622 498 622 484 645 c 0,0,1
742 691 m 0,44,45
 740 703 740 703 749 705 c 0,46,47
 760 710 760 710 779 697 c 0,48,49
 799 685 799 685 805 674 c 0,50,51
 813 663 813 663 801 651 c 1,52,-1
 776 609 l 1,53,54
 787 612 787 612 805 614 c 0,55,56
 830 617 830 617 846 611 c 0,57,58
 867 606 867 606 879 593 c 0,59,60
 891 581 891 581 887 572 c 0,61,62
 882 565 882 565 870 566 c 0,63,64
 848 568 848 568 826 568 c 0,65,66
 790 568 790 568 775 567 c 0,67,68
 757 565 757 565 751 565 c 1,69,-1
 736 537 l 2,70,71
 722 513 722 513 709 506 c 0,72,73
 696 500 696 500 696 509 c 0,74,75
 698 523 698 523 703 538 c 2,76,-1
 709 560 l 2,77,78
 705 560 705 560 697.5 560.5 c 128,-1,79
 690 561 690 561 687 562 c 0,80,81
 668 571 668 571 656 578 c 0,82,83
 643 591 643 591 663 592 c 0,84,85
 695 598 695 598 721 601 c 1,86,87
 730 627 730 627 733 641 c 0,88,89
 742 676 742 676 742 691 c 0,44,45
690 60 m 0,90,91
 682 72 682 72 683 83 c 0,92,93
 685 96 685 96 694 91 c 0,94,95
 728 74 728 74 766 50 c 0,96,97
 813 23 813 23 829 4 c 0,98,99
 844 -12 844 -12 850 -47 c 0,100,101
 854 -82 854 -82 844 -92 c 0,102,103
 832 -102 832 -102 822 -99 c 0,104,105
 810 -94 810 -94 796 -73 c 0,106,107
 739 7 739 7 690 60 c 0,90,91
467 454 m 1,108,109
 457 470 457 470 462 473 c 0,110,111
 472 478 472 478 490 471 c 0,112,113
 491 471 491 471 495 469 c 0,114,115
 548 471 548 471 576 474 c 0,116,117
 621 478 621 478 671 485 c 2,118,-1
 737 493 l 1,119,120
 754 501 754 501 778 494 c 0,121,122
 804 486 804 486 822 470 c 0,123,124
 843 456 843 456 826 436 c 0,125,126
 811 417 811 417 798 386 c 1,127,128
 780 281 780 281 766 258 c 0,129,130
 755 242 755 242 746 241 c 0,131,132
 737 241 737 241 730 253 c 1,133,-1
 656 251 l 2,134,135
 650 251 650 251 640 250.5 c 128,-1,136
 630 250 630 250 624 250 c 1,137,138
 639 240 639 240 651 229 c 0,139,140
 664 218 664 218 654 202 c 0,141,142
 643 178 643 178 641 170 c 1,143,-1
 647 170 l 1,144,145
 767 179 767 179 838 188 c 0,146,147
 863 193 863 193 880 183 c 0,148,149
 900 174 900 174 917 158 c 0,150,151
 935 141 935 141 929 132 c 0,152,153
 924 124 924 124 905 124 c 2,154,-1
 801 128 l 2,155,156
 696 130 696 130 627 124 c 1,157,-1
 624 124 l 1,158,-1
 618 105 l 2,159,160
 604 70 604 70 591 45 c 0,161,162
 581 29 581 29 559 -1 c 0,163,164
 545 -20 545 -20 507 -45 c 0,165,166
 474 -65 474 -65 432 -79 c 1,167,168
 399 -85 399 -85 388 -83 c 0,169,170
 377 -79 377 -79 390 -72 c 0,171,172
 410 -62 410 -62 420 -58 c 0,173,174
 436 -49 436 -49 457 -36 c 0,175,176
 480 -21 480 -21 507 9 c 0,177,178
 533 38 533 38 553 84 c 2,179,-1
 566 119 l 1,180,181
 526 115 526 115 463 105 c 0,182,183
 443 103 443 103 425 109 c 0,184,185
 406 116 406 116 390 134 c 0,186,187
 376 152 376 152 399 152 c 2,188,-1
 578 165 l 1,189,190
 584 192 584 192 584 207 c 0,191,192
 584 226 584 226 580 242 c 0,193,194
 580 244 580 244 580 246 c 2,195,-1
 579 247 l 1,196,197
 563 245 563 245 556 245 c 0,198,199
 541 245 541 245 534 247 c 1,200,201
 534 235 534 235 530 228 c 1,202,203
 517 227 517 227 507 235 c 1,204,205
 494 258 494 258 489 322 c 0,206,207
 486 390 486 390 467 454 c 1,108,109
564 338 m 2,208,209
 545 336 545 336 535 342 c 0,210,211
 534 345 534 345 531 345 c 1,212,213
 532 340 532 340 532 333 c 0,214,215
 535 304 535 304 535 282 c 1,216,217
 546 283 546 283 569 283 c 2,218,-1
 627 286 l 2,219,220
 666 290 666 290 688 293 c 0,221,222
 708 295 708 295 716 289 c 0,223,224
 724 285 724 285 729 282 c 1,225,-1
 729 284 l 2,226,227
 732 301 732 301 739 349 c 1,228,-1
 736 349 l 1,229,-1
 662 345 l 1,230,-1
 564 338 l 2,208,209
523 435 m 1,231,-1
 527 375 l 1,232,233
 542 376 542 376 575 376 c 0,234,235
 613 378 613 378 633 380 c 2,236,-1
 692 387 l 2,237,238
 710 390 710 390 720 384 c 2,239,-1
 742 372 l 1,240,-1
 742 376 l 1,241,242
 748 445 748 445 739 446 c 1,243,244
 732 453 732 453 660 446 c 0,245,246
 574 441 574 441 530 435 c 1,247,-1
 523 435 l 1,231,-1
217 455 m 0,248,249
 271 536 271 536 291 599 c 0,250,251
 312 660 312 660 312 690 c 1,252,253
 304 713 304 713 321 713 c 0,254,255
 341 713 341 713 367 694 c 0,256,257
 395 675 395 675 398 661 c 0,258,259
 403 647 403 647 394 638 c 0,260,261
 367 601 367 601 326 534 c 0,262,263
 285 470 285 470 252 427 c 1,264,265
 260 422 260 422 265 416 c 0,266,267
 281 402 281 402 291 388 c 0,268,269
 302 371 302 371 295 347 c 1,270,-1
 295 -13 l 2,271,272
 295 -57 295 -57 282 -84 c 0,273,274
 270 -110 270 -110 254 -98 c 0,275,276
 240 -84 240 -84 233 -58 c 0,277,278
 228 -25 228 -25 230 -13 c 0,279,280
 246 67 246 67 246 168 c 0,281,282
 248 282 248 282 245 303 c 0,283,284
 244 338 244 338 236 364 c 0,285,286
 231 382 231 382 227 393 c 1,287,288
 223 391 223 391 222 387 c 0,289,290
 169 320 169 320 120 277 c 0,291,292
 96 257 96 257 83 253 c 0,293,294
 77 253 77 253 75 254 c 128,-1,295
 73 255 73 255 74 259 c 0,296,297
 77 267 77 267 86 278 c 0,298,299
 165 374 165 374 217 455 c 0,248,249
EndSplineSet
EndChar
